<svg style="height:auto;width:100%" version="1.1" viewBox="0 0 1277 648" xmlns="http://www.w3.org/2000/svg" xmlns:xlink="http://www.w3.org/1999/xlink">
 <path d="m74.77 646c-22.28-87.23-77.81-188.6 132.6-248.2-68.43-302 176-354.4 500.4-352.9 197.4-18.27 346.1-29.62 317.7 126.3-33.98 187.1 170.7 188 160.8 280.4 47.59 0.5804 141.5 187.3-13.96 193.4-8.214 0.32-1098 0.9969-1098 0.9969z" fill="#fff" opacity=".08553"/>
 <g transform="matrix(3.204 0 0 3.063 125.3 4.165)">
  <clipPath id="SVGID_2_">
   <use width="100%" height="100%" xlink:href="#SVGID_1_"/>
  </clipPath>
  <g clip-path="url(#SVGID_2_)">
   <mask id="SVGID_23_" x="-13.797" y="0" width="348.547" height="153" maskUnits="userSpaceOnUse">
    <g filter="url(#Adobe_OpacityMaskFilter)">
     <polygon points="167.7 0 174.8 153 146.1 153 157.3 0" fill="url(#SVGID_24_)"/>
     <polygon points="124.4 0 99.22 153 70.52 153 114 0" fill="url(#SVGID_25_)"/>
     <polygon points="79.03 0 14.9 153 -13.8 153 68.62 0" fill="url(#SVGID_26_)"/>
     <polygon points="200.2 0 221.7 153 250.4 153 210.6 0" fill="url(#SVGID_27_)"/>
     <polygon points="245.6 0 306.1 153 334.8 153 256 0" fill="url(#SVGID_28_)"/>
    </g>
   </mask>
   <mask id="SVGID_29_" x="0.203" y="23" width="74.297" height="148" maskUnits="userSpaceOnUse">
    <g filter="url(#Adobe_OpacityMaskFilter_1_)">
     <polygon points="74.5 171 0.297 171 0 23" fill="url(#SVGID_30_)"/>
    </g>
   </mask>
   <mask id="SVGID_31_" x="250.5" y="23" width="74.5" height="148" maskUnits="userSpaceOnUse">
    <g filter="url(#Adobe_OpacityMaskFilter_2_)">
     <polygon points="250.5 171 324.7 171 325 23" fill="url(#SVGID_32_)"/>
    </g>
   </mask>
  </g>
 </g>
 <g transform="matrix(1.389 0 0 1.375 104.2 -9.802)">
  <path d="m618.5 313.2a2.004 1.996 50.26 0 1-0.1707-0.5101l-0.3959-1.498c-0.3418-1.295-0.7852-3.199-1.298-5.553-1.038-4.701-2.268-11.24-3.52-18.48-1.252-7.243-2.411-13.78-3.355-18.49-0.4534-2.292-0.8306-4.224-1.119-5.59-0.1231-0.6029-0.2134-1.108-0.3002-1.521a1.934 1.926 50.26 0 1-0.0633-0.5408 2.264 2.256 50.26 0 1 0.1787 0.5218c0.1003 0.3951 0.2317 0.8978 0.3959 1.498 0.3418 1.295 0.7754 3.197 1.3 5.543 1.026 4.709 2.256 11.25 3.508 18.49 1.252 7.243 2.421 13.78 3.355 18.49 0.4632 2.294 0.8306 4.224 1.119 5.59q0.1905 0.9003 0.3002 1.521a2.064 2.056 50.26 0 1 0.0652 0.531z" fill="#e0e0e0"/>
  <path d="m687 215.6a30.82 30.82 0 0 1-5.61 5.9l1.46 7.39-11.4 5.06-4.51-6a30.68 30.68 0 0 1-8.13 0.2l-4.2 6.26-11.61-4.52 1.09-7.46a30.53 30.53 0 0 1-5.9-5.61l-7.4 1.46-5.06-11.41 6.05-4.51a30.68 30.68 0 0 1-0.2-8.13l-6.26-4.2 4.48-11.64 7.46 1.09a30.48 30.48 0 0 1 5.61-5.89l-1.46-7.4 11.41-5.06 4.51 6a30.26 30.26 0 0 1 8.13-0.21l4.2-6.26 11.64 4.49-1.09 7.46a30.18 30.18 0 0 1 5.89 5.61l7.4-1.46 5.06 11.4-6 4.51a30.26 30.26 0 0 1 0.21 8.13l6.26 4.2-4.49 11.64zm-12.6-12.72a13.38 13.38 0 1 0-17.3 7.68 13.38 13.38 0 0 0 17.28-7.68z" fill="none"/>
  <g fill="#4f5e4e">
   <path d="m641.5 181.8a10.07 10.07 0 0 1-1.44 3 13.34 13.34 0 0 1-7.24 5.3 13.5 13.5 0 0 1-6.29 0.37 13.72 13.72 0 0 1-6.52-3.11 12.89 12.89 0 0 1-2.59-3 12.63 12.63 0 0 1-1.67-3.76 13.64 13.64 0 0 1 5.85-15.19 13.73 13.73 0 0 1 7.69-2.15 13.71 13.71 0 0 1 6.93 2.08 13.46 13.46 0 0 1 4.41 4.49 13.32 13.32 0 0 1 1.81 8.79 10.19 10.19 0 0 1-0.94 3.18 30.28 30.28 0 0 0 0.64-3.21 13.34 13.34 0 0 0-2-8.47 13.08 13.08 0 0 0-4.29-4.24 13.25 13.25 0 0 0-6.61-1.91 12.17 12.17 0 0 0-3.71 0.48 12.34 12.34 0 0 0-3.56 1.6 13 13 0 0 0-5.53 14.35 12.72 12.72 0 0 0 1.57 3.57 12.37 12.37 0 0 0 2.43 2.84 13.1 13.1 0 0 0 12.2 2.76 13.43 13.43 0 0 0 7.15-4.95 30 30 0 0 0 1.71-2.82z"/>
   <path d="m654.1 194.5a4.12 4.12 0 0 1 0.47 0l1.42 0.18 5.59 0.75-0.13 0.08 4.42-11.67 0.07 0.23-6.3-4.12-0.11-0.08v-0.13a30.24 30.24 0 0 0-0.23-8.07v-0.15l0.12-0.09 6-4.53-0.09 0.33-5.08-11.39 0.33 0.17-7.4 1.48h-0.18l-0.12-0.15a30.42 30.42 0 0 0-5.84-5.55l-0.17-0.11v-0.2c0.34-2.31 0.71-4.87 1.08-7.46l0.22 0.37-11.59-4.44 0.42-0.13-4.19 6.26-0.12 0.19h-0.22a30.69 30.69 0 0 0-8 0.21h-0.23l-0.13-0.18-4.51-6 0.45 0.12-11.4 5.06 0.22-0.42 1.46 7.4v0.23l-0.19 0.15a29.77 29.77 0 0 0-5.53 5.81l-0.37 0.16h-0.46l-1.41-0.21-1.87-0.27-3.72-0.54 0.41-0.24q-2.28 5.9-4.49 11.64l-0.14-0.45 6.26 4.2 0.19 0.12v0.23a30.35 30.35 0 0 0 0.2 8v0.23l-0.19 0.13-6.05 4.5 0.12-0.44q2.58 5.85 5.05 11.41l-0.39-0.2 7.4-1.45h0.2l0.13 0.16a30.25 30.25 0 0 0 5.82 5.56l0.16 0.12v0.19c-0.37 2.56-0.74 5-1.1 7.46l-0.2-0.34 11.63 4.51-0.34 0.11 4.21-6.25 0.09-0.14h0.17a30.72 30.72 0 0 0 8.06-0.18h0.15l0.09 0.13 4.49 6.06-0.27-0.07 11.42-5-0.1 0.19c-0.56-3-1-5.39-1.41-7.41v-0.08h0.06a32.71 32.71 0 0 0 4.4-4.24c0.41-0.51 0.73-0.89 1-1.17a4.06 4.06 0 0 1 0.32-0.39 3 3 0 0 1-0.27 0.43c-0.19 0.27-0.49 0.68-0.92 1.21a29.25 29.25 0 0 1-4.34 4.35v-0.12c0.42 2 0.91 4.44 1.51 7.39v0.14l-0.13 0.05-11.38 5.11-0.17 0.08-0.11-0.15-4.52-6 0.24 0.1a31.27 31.27 0 0 1-8.2 0.23l0.26-0.12c-1.33 2-2.72 4.06-4.19 6.27l-0.13 0.19-0.22-0.08-11.65-4.47-0.24-0.09v-0.25l1.08-7.46 0.13 0.32a31 31 0 0 1-6-5.67l0.33 0.12-7.4 1.47-0.27 0.06-0.12-0.26-4.97-11.59-0.12-0.27 0.24-0.17 6-4.52-0.14 0.36a30.58 30.58 0 0 1-0.22-8.23l0.17 0.35-6.27-4.19-0.25-0.17 0.11-0.28q2.22-5.74 4.49-11.65l0.11-0.29 0.3 0.05 3.72 0.54 1.87 0.27 1.41 0.21h0.46c-0.73 0.31-0.2 0.08-0.37 0.15a30.43 30.43 0 0 1 5.67-6l-0.13 0.37-1.46-7.4-0.06-0.3 0.28-0.12 11.41-5.06 0.27-0.12 0.18 0.24 4.5 6.05-0.35-0.14a30.91 30.91 0 0 1 8.23-0.2l-0.34 0.16 4.2-6.26 0.16-0.24 0.27 0.11 11.63 4.5 0.26 0.1v0.27c-0.38 2.59-0.76 5.14-1.1 7.45l-0.13-0.31a30.73 30.73 0 0 1 5.95 5.74l-0.31-0.11 7.4-1.45 0.24-0.05 0.1 0.22 5 11.42 0.09 0.2-0.17 0.13-6.07 4.49 0.1-0.24a30.7 30.7 0 0 1 0.18 8.2l-0.1-0.21 6.25 4.22 0.13 0.09-0.06 0.14c-1.85 4.73-3.39 8.64-4.55 11.62v0.09h-0.09l-5.53-0.87-1.43-0.24a2.86 2.86 0 0 1-0.48-0.1z"/>
   <g fill-rule="evenodd">
    <path d="m631.8 102.6a43.26 43.26 0 0 1-7.93 8.33l2.07 10.47-16.13 7.16-6.37-8.56a42.92 42.92 0 0 1-11.5 0.29l-5.94 8.86-16.46-6.35 1.54-10.54a43 43 0 0 1-8.33-7.94l-10.46 2.08-7.13-16.15 8.55-6.37a42.92 42.92 0 0 1-0.28-11.5l-8.89-5.98 6.35-16.46 10.54 1.54a43.32 43.32 0 0 1 7.94-8.33l-2.07-10.46 16.13-7.16 6.37 8.56a43.32 43.32 0 0 1 11.5-0.29l5.94-8.86 16.46 6.35-1.54 10.59a43.26 43.26 0 0 1 8.33 7.93l10.46-2.07 7.21 16.13-8.56 6.37a43.33 43.33 0 0 1 0.29 11.5l8.86 5.94-6.35 16.46-10.55-1.54zm-17.81-18a18.93 18.93 0 1 0-24.47 10.86 18.92 18.92 0 0 0 24.47-10.85z"/>
    <path d="m707.8 127.9a24 24 0 0 1-4.39 4.61l1.14 5.79-8.93 4-3.52-4.73a24.2 24.2 0 0 1-6.37 0.16l-3.29 4.9-9.11-3.51 0.85-5.84a24.33 24.33 0 0 1-4.61-4.39l-5.79 1.08-4-8.93 4.73-3.53a24.14 24.14 0 0 1-0.16-6.36l-4.9-3.29 3.51-9.12 5.84 0.86a24 24 0 0 1 4.39-4.61l-1.14-5.8 8.93-4 3.53 4.74a23.32 23.32 0 0 1 6.36-0.16l3.33-4.8 9.12 3.52-0.86 5.84a23.73 23.73 0 0 1 4.61 4.39l5.8-1.14 4 8.92-4.78 3.47a23.38 23.38 0 0 1 0.16 6.37l4.9 3.28-3.51 9.12-5.84-0.85zm-9.86-10a10.48 10.48 0 1 0-13.53 6.07 10.48 10.48 0 0 0 13.53-6z"/>
    <path d="m225.1 194.7a71.09 71.58 25.9 0 1-14.82 11.83l0.9269 17.55-27.89 8.195-8.359-15.38a71.68 72.17 25.9 0 1-18.77-2.102l-11.71 13.13-25.28-14.04 4.937-16.89a72.07 72.56 25.9 0 1-11.7-14.82l-17.45 0.8474-8.012-27.97 15.37-8.506a71.51 71.99 25.9 0 1 2.189-18.83l-13.01-11.69 14.12-25.49 16.79 4.898a71.09 71.58 25.9 0 1 14.82-11.83l-0.9227-17.58 27.89-8.195 8.384 15.41a69.08 69.55 25.9 0 1 18.74 2.098l11.79-12.82 25.31 14.07-4.967 16.89a70.29 70.77 25.9 0 1 11.7 14.82l17.51-1.02 8.017 27.94-15.49 8.308a69.26 69.73 25.9 0 1-2.193 18.86l13.02 11.66-14.12 25.49-16.79-4.868zm-24.77-33.49a31.04 31.26 25.9 1 0-42.27 12.45 31.04 31.26 25.9 0 0 42.24-12.24z" stroke-width="2.972"/>
   </g>
  </g>
  <path d="m490 37.66a20.26 20.26 0 0 1 3.88 3.8l4.95-0.91 3.27 7.66-4.1 2.95a20.55 20.55 0 0 1 0.06 5.43l4.14 2.85-3.11 7.73-5-0.8a20.26 20.26 0 0 1-3.8 3.88l0.9 5-7.65 3.27-2.95-4.08a20.55 20.55 0 0 1-5.43 0.06l-2.86 4.14-7.72-3.11 0.79-5a20.5 20.5 0 0 1-3.87-3.8l-4.95 0.9-3.2-7.63 4.08-3a20.13 20.13 0 0 1-0.06-5.43l-4.14-2.86 3.11-7.71 5 0.79a20.2 20.2 0 0 1 3.8-3.87l-0.91-5 7.66-3.27 2.95 4.08a20.13 20.13 0 0 1 5.43-0.06l2.86-4.14 7.72 3.1-0.8 5zm-8.6 8.28a8.93 8.93 0 1 0 5 11.62 8.93 8.93 0 0 0-4.99-11.62z" fill="none"/>
  <g transform="matrix(.72 0 0 .7275 -41.25 167.3)">
   <path d="m134.7 324.5c-13 17.54-26.46 37.9-29.75 59.9 0 0.34 0.49 0.45 0.57 0.12a129 129 0 0 1 5.73-17.62c8.51-2.34 16.87-4.27 21.34-12.72 4.56-8.69 4-20 3.12-29.48-0.06-0.51-0.75-0.54-1.01-0.2z" fill="#66983c"/>
   <path d="m111.3 366.8c5.82-13.06 13.29-26.17 22.79-36.91 0.06-0.07 0.16 0 0.1 0.1-6.21 7.65-10.94 16-15.55 24.45 4.29-4.35 9-8.25 13-12.87 0.08-0.09 0.21 0 0.13 0.13-4 4.84-8.44 10.1-13.69 13.69q-2.11 3.9-4.28 7.81c0.36-0.2 0.72-0.37 1.08-0.55a0.06 0.06 0 0 1 0.06 0.1c-0.4 0.2-0.8 0.41-1.21 0.59-0.68 1.23-1.36 2.47-2.06 3.7-0.11 0.27-0.49 0.01-0.37-0.24z" fill="#263238"/>
   <path d="m115.7 362.2a76.89 76.89 0 0 0 10-6.64c0.08-0.07 0.2 0.05 0.12 0.12a52.19 52.19 0 0 1-9.92 6.76c-0.22 0.09-0.36-0.15-0.2-0.24z" fill="#263238"/>
   <path d="m103.4 381.1c0 0.27 0.48 0.27 0.47 0 0.07-7.24 0-14.52 0.12-21.8 1.85-3.74 5.84-5.82 8.61-8.82a38.78 38.78 0 0 0 5.16-7.19 51.76 51.76 0 0 0 6-20c0.76-7.75-2.18-33.32-5.44-32.43-1.7 0.46-7.18 13.12-8.63 17.31a120.2 120.2 0 0 0-5.16 21.23c-2.65 17.04-2.43 34.56-1.13 51.7z" fill="#66983c"/>
   <g fill="#263238">
    <path d="m103.4 349.9c0.4-9.17 2.46-18.42 4.39-27.31 2.09-9.58 4.52-18.6 9.45-27.14a0.14 0.14 0 0 1 0.24 0.14 100.6 100.6 0 0 0-7.58 20.83c0.33-0.52 0.73-1 1.07-1.49 0.14-0.19 0.45 0 0.32 0.18a13 13 0 0 1-1.54 2.18h-0.06c-1.7 6.84-2.92 13.85-4 20.83l0.23-0.27c0-0.06 0.14 0 0.11 0.08-0.13 0.24-0.28 0.47-0.42 0.7-0.52 3.54-1 7.08-1.5 10.59 6.31-5.4 11.71-11.76 14.75-19.59h0.06c-3 8.13-7.68 15.36-14.91 20.29-0.13 0.94-0.26 1.89-0.4 2.83 0 0.2-0.34 0.14-0.34-0.05 0-0.83 0-1.67 0.08-2.51a0.19 0.19 0 0 1 0.05-0.29z"/>
    <path d="m106.3 336.6c4.82-7.2 9.33-14.2 12.86-22.15 0-0.09 0.19 0 0.16 0.06-3 7.91-7.14 15.92-12.78 22.27-0.11 0.13-0.34-0.04-0.24-0.18z"/>
    <path d="m112.7 312.7c2-3.54 4.11-7 6-10.59 0-0.1 0.19 0 0.15 0.09a55.28 55.28 0 0 1-5.83 10.68c-0.14 0.14-0.43 0.02-0.32-0.18z"/>
    <path d="m112 314.2a0.03 0-90 0 0 0 0.06z"/>
   </g>
   <path d="m98.5 360.2a73.68 73.68 0 0 1-1.69 14.28c0.08 0.51 0.15 1 0.23 1.56a68.24 68.24 0 0 0 2.55-15.91 0.48 0.48 0 0 0 0-0.49 105.5 105.5 0 0 0-1.59-21.58c-2.23-13.31-7.13-26.05-16.42-36.05a0.67 0.67 0 0 0-1 0.21c-3.74 9.53-2.44 20.9 0.76 30.4a55.3 55.3 0 0 0 7.33 14.39c3.19 4.51 7.25 8.3 9.83 13.19z" fill="#66983c"/>
   <g fill="#263238">
    <path d="m82.68 306.4c8.8 14.28 14.92 31.22 15.67 48.09 0 0.3-0.49 0.38-0.53 0.07-0.21-1.52-0.44-3-0.68-4.51-3.64-3.49-7.38-7.17-10-11.52 0-0.08 0.06-0.17 0.12-0.1a121.2 121.2 0 0 0 9.74 10.53q-0.94-5.59-2.26-11c-0.24-0.27-0.47-0.55-0.7-0.82s0.1-0.44 0.26-0.26l0.22 0.23a126.3 126.3 0 0 0-4.61-14.61c-2.24-2.67-4.74-5-6.37-8.2a0.07 0.07 0 1 1 0.11-0.07c1.32 1.85 2.59 3.7 4.07 5.41 0.6 0.68 1.25 1.31 1.86 2a112.7 112.7 0 0 0-7.2-15 0.2 0.2 0 0 1 0.3-0.24z"/>
    <path d="m84.46 324.1c2.84 3.83 6.08 7.48 8.73 11.44 0.07 0.11-0.09 0.23-0.19 0.14-3.39-3.19-6.27-7.54-8.73-11.47-0.08-0.12 0.1-0.17 0.19-0.11z"/>
    <path d="m93.59 336.4 0.12 0.12c0.08 0.09 0 0.22-0.13 0.13l-0.12-0.12c-0.09-0.08 0.04-0.21 0.13-0.13z"/>
   </g>
   <path d="m68.89 333.9a43.8 43.8 0 0 0 9.29 21.78 23.09 23.09 0 0 0 7.53 5.88c3.26 1.61 6.67 3.47 10.05 4.8a66 66 0 0 1 3.56 12.64c0.11-0.37 0.21-0.75 0.32-1.12-2.16-18.61-14.2-34.51-29.6-44.72a0.75 0.75 0 0 0-1.15 0.74z" fill="#66983c"/>
   <path d="m74.21 339.4c-0.11-0.09 0-0.29 0.16-0.2a63 63 0 0 1 19.63 24.18c0.11 0.26-0.24 0.48-0.38 0.23-0.72-1.26-1.45-2.48-2.19-3.68-3.52-0.66-6.85-3.13-9.45-5.48-0.08-0.06 0-0.17 0.1-0.1a21.21 21.21 0 0 0 4.45 3.12 47.54 47.54 0 0 0 4.47 1.77c-1.3-2.07-2.66-4.05-4.07-6a41.17 41.17 0 0 1-10.57-5.94c-0.1-0.07 0-0.24 0.1-0.17a107.8 107.8 0 0 0 9.82 5.25 88.14 88.14 0 0 0-6.93-8.09c-1.2-0.63-2.41-1.26-3.57-1.93-0.09-0.06 0-0.22 0.08-0.19a13.07 13.07 0 0 1 2.73 1.35c-1.42-1.38-2.85-2.76-4.38-4.12z" fill="#263238"/>
   <path d="m74.54 345.8a4 4 0 0 1 0.59 0.42c0.06 0.05 0 0.12-0.07 0.1a4.71 4.71 0 0 1-0.62-0.35c-0.11-0.07-0.01-0.24 0.1-0.17z" fill="#263238"/>
   <polygon points="84.88 380.9 85.63 372.4 119.5 372.4 120.3 380.9 123.7 419.3 81.48 419.3" fill="#455a64"/>
   <polygon points="120.3 380.9 84.88 380.9 85.63 372.4 119.5 372.4" fill="#263238"/>
   <rect x="83.61" y="366.5" width="37.93" height="8.39" fill="#455a64"/>
  </g>
  <ellipse cx="397.2" cy="462.1" rx="334.5" ry="15.5" fill="#ccc" opacity=".3184" stroke-linecap="round" stroke-linejoin="round" stroke-width=".8923"/>
  <path d="m606.6 98.69h-404.6a12.64 12.64 0 0 0-12.63 12.63v285.8a12.64 12.64 0 0 0 12.63 12.63h155.3s9.88 30.55-20.74 46.35h145.2s-34.57-11.85-25.68-46.35h150.6a12.64 12.64 0 0 0 12.63-12.63v-285.8a12.64 12.64 0 0 0-12.63-12.63z" fill="#455a64"/>
  <path d="m409.7 379.7c5.51 7.87-3.11 16.48-11 11a2.89 2.89 0 0 1-0.67-0.68c-5.49-7.86 3.11-16.46 11-11a2.67 2.67 0 0 1 0.67 0.68z" fill="#263238"/>
  <rect x="198.5" y="115.8" width="410.8" height="243.6" rx="3.27" fill="#fafafa"/>
  <g fill="#3f555d">
   <path d="m595.1 125.2a3.28 3.28 0 1 1-3.28-3.28 3.28 3.28 0 0 1 3.28 3.28z"/>
   <path d="m575.2 125.2a3.28 3.28 0 1 1-3.32-3.23 3.28 3.28 0 0 1 3.32 3.23z"/>
   <path d="m584.7 125.2a3.29 3.29 0 1 1-3.29-3.28 3.28 3.28 0 0 1 3.29 3.28z"/>
  </g>
  <path d="m609.6 135.1c0 0.15-92.09 0.26-205.7 0.26s-205.7-0.11-205.7-0.26 92.07-0.26 205.7-0.26 205.7 0.12 205.7 0.26z" fill="#263238"/>
  <rect x="369" y="163.1" width="67.59" height="58" fill="#66983c" stroke-width="1.079"/>
  <rect x="369" y="225" width="67.59" height="19.17" fill="#66983c" stroke-width=".6206"/>
  <rect x="377.9" y="228.6" width="50.33" height="11.48" fill="#fff" stroke-width=".4144"/>
  <polygon transform="matrix(1.165 0 0 1 -67.47 -40.74)" points="397.8 234.8 389.6 234.8 404 254.2 417.3 234.9 409.2 234.9 409.4 213.1 398 213.1" fill="#fafafa"/>
  <g fill="#66983c">
   <path d="m353.2 237.6h-3l-8.51 0.06-30.49 0.09 0.15-0.05-25.82 23.37-0.08 0.07h-51.14l0.15-0.05c-11 9.12-20.21 16.79-26.71 22.19l-7.57 6.24-2 1.63-0.52 0.41c-0.12 0.1-0.18 0.14-0.18 0.13l0.16-0.15c0.12-0.12 0.29-0.26 0.5-0.44l2-1.69 7.48-6.34 26.59-22.34 0.06-0.05h51.13l-0.17 0.07 25.87-23.32 0.07-0.06h0.08l30.49 0.09 8.51 0.06h2.23z"/>
   <path d="m303.2 215.2a0.94 0.94 0 0 1 0 0.27v0.81c0 0.76 0 1.8 0.05 3.11 0 2.74 0.05 6.62 0.09 11.37v0.09l-0.07 0.06-19.16 16.71-0.07 0.06h-3.09l-31.11-0.07-9.42-0.09-2.57-0.05a4.77 4.77 0 0 1-0.89-0.05 6.22 6.22 0 0 1 0.89 0l2.57-0.05 9.42-0.08 31.11-0.08h3l-0.17 0.07 19.24-16.62-0.07 0.15c0-4.75 0.07-8.63 0.09-11.37 0-1.31 0-2.35 0.05-3.11q0-0.48 0-0.81a0.94 0.94 0 0 1 0.11-0.32z"/>
   <path d="m291 279.2v-1.13c0-0.79 0-1.86-0.06-3.2 0-2.83 0-6.78-0.09-11.56v-0.09l0.07-0.06 15.59-14.71 6.23-5.84 0.07-0.06h0.1l20.6 0.09 6 0.07h1.62a2.44 2.44 0 0 1 0.56 0.05 3 3 0 0 1-0.56 0l-1.62 0.05-6 0.07-20.6 0.09 0.09 0.02-6.22 5.85-15.66 14.64 0.07-0.16c0 4.78-0.07 8.73-0.09 11.56 0 1.34 0 2.41-0.06 3.2q0 0.51 0 0.84a1.11 1.11 0 0 1-0.04 0.28z"/>
   <path d="m332.2 232.9h-1.72l-4.92 0.06-18 0.08h0.13l-23.8 21.58-0.07 0.07h-52.09l0.15-0.05-31.74 26.47-1.88 1.53-0.49 0.39-0.17 0.12s0-0.06 0.15-0.15l0.46-0.42 1.83-1.59 7-5.94 24.59-20.8h52.12l-0.16 0.07c9-8.15 17.2-15.49 23.87-21.49l0.05-0.05h0.08l18 0.08h6.2z"/>
   <path d="m608.3 249.7h-4.25l-12 0.07h-0.07l-37.61-37.46 0.19 0.08h-29l-0.08-0.08-10.64-10.66 0.17 0.07h-23.32l0.17-0.09-6.65 9.66-0.05 0.08h-0.13l-15.27-0.08h-5.13a2.45 2.45 0 0 1-0.36 0h5.49l15.27-0.08-0.14 0.07 6.59-9.7 0.06-0.09h23.53l0.07 0.07 10.69 10.4-0.18-0.07h29l0.08 0.07 37.46 37.61h-0.11l12 0.07h3.98a0.94 0.94 0 0 1 0.24 0.06z"/>
   <path d="m608.3 254.6a1.39 1.39 0 0 1-0.33 0h-4.84l-14.3 0.08h-0.07l-37.45-37.32 0.18 0.08h-7.46l-56.39-0.08-17.09-0.08-4.65-0.05h-1.62a2.18 2.18 0 0 1 0.41 0h5.86l17.09-0.09 56.39-0.13h7.52l0.08 0.07 37.32 37.45-0.12-0.05 14.3 0.08h4.84z"/>
   <path d="m608.3 228.7h-2.21l-6.28 0.06-22.65 0.09h-0.13l-0.07-0.06-19.83-20.31 0.18 0.08h-31.28l-0.08-0.07-9.74-9.34 0.15 0.06-26.62-0.09-7.49-0.06h-2.68 2.68l7.49-0.07 26.62-0.09h0.1l0.06 0.06 9.78 9.31-0.17-0.07h31.34l0.07 0.07 19.82 20.43-0.15-0.07 22.65 0.09 6.28 0.06h1.65z"/>
   <path d="m608.3 261h-5.97l-16.46 0.09h-0.07v-0.05l-34.4-32.14 0.17 0.07h-19l0.19-0.09-25.73 27.76-0.07 0.07h-0.09l-27.82-0.09-7.77-0.06h-2.7 2.7l7.77-0.06 27.82-0.09-0.16 0.07 25.61-27.81 0.08-0.08h19.24l0.07 0.07 34.32 32.21-0.12-0.05 16.46 0.08 4.44 0.05h1.14z"/>
   <path d="m553.3 225.6a2.42 2.42 0 0 1-0.5 0h-1.47l-5.52 0.06-19.38 0.1 0.17-0.08-12.74 13.52-9.22 9.75-0.07 0.08h-0.11l-23-0.09-6.65-0.08h-1.78a3.63 3.63 0 0 1-0.61 0 3.63 3.63 0 0 1 0.61 0h1.78l6.65-0.08 23-0.09-0.18 0.08 9.21-9.76 12.77-13.49 0.07-0.08h0.1l19.38 0.1 5.52 0.06h1.47a2.42 2.42 0 0 1 0.5 0z"/>
   <path d="m304.1 215.4a0.89 0.89 0 1 1-0.89-0.89 0.88 0.88 0 0 1 0.89 0.89z"/>
   <path d="m354.2 237.6a0.89 0.89 0 1 1-0.89-0.89 0.89 0.89 0 0 1 0.89 0.89z"/>
   <path d="m237.9 247.4a0.89 0.89 0 1 1-0.89-0.89 0.89 0.89 0 0 1 0.89 0.89z"/>
   <circle cx="464.7" cy="211.2" r=".89"/>
   <path d="m480.4 199a0.89 0.89 0 1 1-0.89-0.89 0.88 0.88 0 0 1 0.89 0.89z"/>
   <path d="m553.6 225.6a0.89 0.89 0 1 1-0.89-0.89 0.89 0.89 0 0 1 0.89 0.89z"/>
   <circle cx="474.1" cy="248.6" r=".89"/>
  </g>
  <path d="m456.1 410c0 0.15-22.22 0.26-49.62 0.26s-49.62-0.11-49.62-0.26 22.21-0.26 49.62-0.26 49.62 0.13 49.62 0.26z" fill="#263238"/>
  <path d="m70.61 336.2 18.22 61.49a6.42 6.42 0 0 0 6.16 4.6l73.92 0.21a6.84 6.84 0 0 0 6.84-7.2 6.83 6.83 0 0 0-6.83-6.47h-28.26l-22.66-63.07h-39.6a8.13 8.13 0 0 0-7.79 10.44z" fill="#455a64"/>
  <path d="m133.1 393.8c0 0.14-7.53 0.26-16.83 0.26s-16.83-0.12-16.83-0.26 7.54-0.26 16.83-0.26 16.83 0.12 16.83 0.26z" fill="#263238"/>
  <path d="m76.05 327.7c0.13 0 5.16 14.68 11.24 32.88s10.88 33 10.74 33.05-5.17-14.67-11.24-32.88-10.88-33-10.74-33.05z" fill="#263238"/>
  <polygon points="125.6 402.3 130.1 402.3 130.1 456.9 125.6 456.8" fill="#455a64"/>
  <polygon points="129.8 450 125.3 450 106.8 456.6 148.8 456.6" fill="#455a64"/>
  <path d="m96.25 311.6 6.93 34.66-1.23 26 46.63-7.76-1.83-22.75v-18.82l11.43 22.16 8.91-17.2-16.3-29.53a27.56 27.56 0 0 0-10.66-6.91 22.28 22.28 0 0 0-6.69-1.28 26.7 26.7 0 0 1-16.14 0l-2.71 0.31h-0.21a20.63 20.63 0 0 0-18 19.39z" fill="#66983c"/>
  <path d="m114.6 290.5s-19.16 0.14-21.54 20.38l-0.32 14.84 16.5-0.14z" fill="#66983c"/>
  <g fill="#fafafa">
   <path d="m160.3 316.5c0 0.14-15.08 0.26-33.68 0.26s-33.65-0.12-33.65-0.26 15.08-0.26 33.68-0.26 33.65 0.12 33.65 0.26z"/>
   <path d="m160.3 319.8c0 0.14-15.08 0.26-33.68 0.26s-33.65-0.12-33.65-0.26 15.08-0.26 33.68-0.26 33.65 0.11 33.65 0.26z"/>
   <path d="m159.2 313.9c0 0.14-14.84 0.26-33.14 0.26s-33.11-0.14-33.11-0.26 14.84-0.26 33.14-0.26 33.11 0.12 33.11 0.26z"/>
  </g>
  <path d="m146.5 345.1c-0.15 0-0.08-8.2 0.14-18.31s0.52-18.32 0.66-18.31 0.08 8.2-0.14 18.32-0.52 18.31-0.66 18.3z" fill="#263238"/>
  <path d="m139.9 331.8s9.06 0.65 10.69 3.05 4.12 9.23 3.18 9.28a2.64 2.64 0 0 1-1.63-0.52l-2.48-4.4s0.4 4.25-1.09 4.34-8.84 1.55-8.84 1.55z" fill="#b78876"/>
  <path d="m92.7 321.8v23.37a8.88 8.88 0 0 0 10.76 8.19l36.54-7.53-0.08-15-31.53 6.05-0.46-15.86z" fill="#66983c"/>
  <path d="m113.6 351.5a2.47 2.47 0 0 1 0.48-0.14l1.42-0.32 5.37-1.13 19-3.89-0.19 0.23v-15.39l0.3 0.25-6.42 1.23-25.12 4.78-0.27 0.06v-0.28c0.24-6.95 0.44-12.75 0.58-16.85 0.08-2 0.15-3.58 0.2-4.7 0-0.52 0-0.93 0.06-1.24a2 2 0 0 1 0-0.42 1.91 1.91 0 0 1 0 0.42v1.24c0 1.13 0 2.72-0.07 4.71-0.1 4.11-0.23 9.9-0.4 16.85l-0.26-0.22 25.1-4.86 6.43-1.23 0.3-0.06v15.9h-0.19l-19.06 3.7-5.4 1-1.43 0.25a3 3 0 0 1-0.43 0.11z" fill="#263238"/>
  <path d="m134.5 290.5s0.07 0.11 0.15 0.34a7.32 7.32 0 0 1 0.28 1 8.42 8.42 0 0 1-0.17 3.93 10.3 10.3 0 0 1-3.17 4.9 9.8 9.8 0 0 1-6.65 2.51 9 9 0 0 1-6.58-2.67 9.28 9.28 0 0 1-2.45-5.29 8.38 8.38 0 0 1 0.46-3.91 6.84 6.84 0 0 1 0.47-1c0.13-0.21 0.2-0.31 0.22-0.3s-0.22 0.46-0.49 1.34a8.6 8.6 0 0 0-0.29 3.79 9 9 0 0 0 2.43 5 8.65 8.65 0 0 0 6.28 2.55 9.48 9.48 0 0 0 6.33-2.35 10.29 10.29 0 0 0 3.14-4.64 8.86 8.86 0 0 0 0.32-3.8c-0.17-0.91-0.33-1.39-0.28-1.4z" fill="#263238"/>
  <path d="m136.3 347a12.37 12.37 0 0 1 0-2.31c0.06-1.42 0.12-3.37 0.14-5.54s0-4.12-0.07-5.54a10.51 10.51 0 0 1 0-2.3 9.22 9.22 0 0 1 0.34 2.28c0.14 1.42 0.24 3.39 0.23 5.57s-0.14 4.14-0.29 5.56a9 9 0 0 1-0.35 2.28z" fill="#fafafa"/>
  <path d="m134.4 347.4a10.4 10.4 0 0 1-0.07-2.29c0-1.61 0-3.46 0.06-5.5v-5.51a10.78 10.78 0 0 1 0.08-2.29 9.19 9.19 0 0 1 0.28 2.28c0.1 1.41 0.17 3.36 0.16 5.52s-0.1 4.11-0.21 5.52a9.42 9.42 0 0 1-0.3 2.27z" fill="#fafafa"/>
  <path d="m158.6 449.7 3.27 9.39s17.82 18.82 22.57 17.33c3.11-1-1.34-5.91-8.91-20.82l-1.91-6.28z" fill="#66983c"/>
  <path d="m160.3 454.5 1.25 4.21s10.43 10.31 13.43 12.6 6.72 5.6 9.47 5 0.34-3.08 0.34-3.08-0.74 1.83-2.07 1.43-3.79-1.45-9.49-6.56-6.61-6.32-6.61-6.32 0.28-2.61-0.83-4-3.21-3.5-5.49-3.28z" fill="#fff" opacity=".4"/>
  <g fill="#263238">
   <path d="m184.8 473.4a2.05 2.05 0 0 1-0.76 0.89 2.89 2.89 0 0 1-3.05-0.11 87.74 87.74 0 0 1-8.59-6.62c-3.22-2.75-6-5.44-7.91-7.43-0.87-0.91-1.62-1.71-2.28-2.39l-0.61-0.65c-0.15-0.15-0.22-0.22-0.23-0.21a1.16 1.16 0 0 0 0.18 0.25c0.19 0.21 0.38 0.44 0.58 0.68 0.51 0.6 1.26 1.44 2.21 2.45a102.3 102.3 0 0 0 7.88 7.52 77.4 77.4 0 0 0 8.67 6.58 3.77 3.77 0 0 0 1.85 0.47 2.58 2.58 0 0 0 1.36-0.44 1.79 1.79 0 0 0 0.6-0.69 0.92 0.92 0 0 0 0.1-0.3z"/>
   <path d="m181.9 467a2.73 2.73 0 0 0-1.31 0 6.93 6.93 0 0 0-2.86 1.34 5.39 5.39 0 0 0-1.92 2.49 2.81 2.81 0 0 0-0.21 1.29s0.1-0.49 0.4-1.21a5.76 5.76 0 0 1 1.91-2.35 7.57 7.57 0 0 1 2.72-1.36c0.77-0.2 1.27-0.13 1.27-0.2z"/>
   <path d="m166.5 463.8a1.69 1.69 0 0 0 0.14-0.48 7.27 7.27 0 0 0 0.17-1.35 7.09 7.09 0 0 0-1.18-4.3 6.74 6.74 0 0 0-3.49-2.76 5.06 5.06 0 0 0-1.34-0.27 1.24 1.24 0 0 0-0.5 0 11.84 11.84 0 0 1 1.77 0.44 6.88 6.88 0 0 1 3.32 2.73 7.37 7.37 0 0 1 1.22 4.14c-0.01 1.15-0.16 1.84-0.11 1.85z"/>
   <path d="m159.8 451.3c-0.07 0 0.42 1.34 0.89 3a10.16 10.16 0 0 0 1.13 2.94c0.06 0-0.4-1.34-0.86-3a10.72 10.72 0 0 0-1.16-2.94z"/>
   <path d="m176 457a3.6 3.6 0 0 0-2 0.23 3.51 3.51 0 0 0-1.73 1.05c0 0.06 0.79-0.44 1.82-0.78s1.91-0.5 1.91-0.5z"/>
   <path d="m176.5 458.6a3.2 3.2 0 0 0-3.12 1.09c0.06 0.06 0.65-0.41 1.5-0.71s1.61-0.29 1.62-0.38z"/>
   <path d="m177.9 460.5a2.58 2.58 0 0 0-3.17 1.07 7.72 7.72 0 0 1 1.48-0.85 7.15 7.15 0 0 1 1.69-0.22z"/>
   <path d="m174.8 456.4c0-0.05-0.74-0.13-1.91-0.44a16.52 16.52 0 0 1-2-0.72c-0.36-0.17-0.74-0.35-1.11-0.56s-0.73-0.52-0.76-0.9 0.42-0.62 0.79-0.57a2.34 2.34 0 0 1 1 0.55c0.63 0.49 1.18 1 1.63 1.37 0.89 0.81 1.4 1.37 1.43 1.34s-0.09-0.17-0.31-0.43-0.55-0.63-1-1.06a20.91 20.91 0 0 0-1.61-1.42 2.44 2.44 0 0 0-1.17-0.62 0.92 0.92 0 0 0-1.11 0.86 1.61 1.61 0 0 0 0.91 1.12c0.39 0.21 0.77 0.4 1.14 0.56a12.42 12.42 0 0 0 2.05 0.67 10.5 10.5 0 0 0 1.43 0.24 2.15 2.15 0 0 0 0.6 0.01z"/>
   <path d="m174 456.3s0-0.69 0.11-1.78a7.43 7.43 0 0 1 0.34-1.88 4 4 0 0 1 0.5-1c0.21-0.3 0.55-0.57 0.86-0.43s0.4 0.57 0.39 0.93a4.29 4.29 0 0 1-0.2 1.09 6.21 6.21 0 0 1-0.86 1.69c-0.65 0.88-1.18 1.33-1.14 1.36s0.15-0.08 0.39-0.28a8 8 0 0 0 0.91-1 6 6 0 0 0 1-1.73 4.27 4.27 0 0 0 0.23-1.16 1.21 1.21 0 0 0-0.56-1.2 1.06 1.06 0 0 0-1.2 0.52 4.18 4.18 0 0 0-0.51 1.07 6.76 6.76 0 0 0-0.31 2v1.31a1.75 1.75 0 0 0 0.05 0.49z"/>
  </g>
  <path d="m203.3 452.2-0.68-6.55-17.92 0.33v10.56l1.14 0.08c5.08 0.31 25.82 1.22 29.22 0.23 3.84-1.1-11.76-4.65-11.76-4.65z" fill="#66983c"/>
  <g fill="#fff" opacity=".5">
   <path d="m191.4 456.4a6.32 6.32 0 0 0-2.2-4 5.46 5.46 0 0 0-4.49-1.24v5z"/>
   <path d="m210.9 454.2s5.47 1.59 4.78 2.47-21.69 0.73-31-0.13v-0.4l24.49 0.37s0.66-2.27 1.73-2.31z"/>
  </g>
  <g fill="#263238">
   <path d="m184.5 456.1h0.31l0.91 0.06 3.34 0.17c2.83 0.12 6.73 0.23 11 0.26s8.21 0 11-0.09l3.34-0.12h1.23a1.14 1.14 0 0 0-0.32 0h-4.26c-2.82 0-6.72 0.07-11 0s-8.21-0.12-11-0.2l-3.35-0.09h-0.9z"/>
   <path d="m209.2 456.8a7.7 7.7 0 0 1 0.64-1.56 7.19 7.19 0 0 1 1.11-1.23 2.43 2.43 0 0 0-1.33 1.13 2.39 2.39 0 0 0-0.42 1.66z"/>
   <path d="m203.8 454.1s0.32-0.28 0.59-0.69 0.45-0.77 0.4-0.8-0.32 0.27-0.59 0.68-0.45 0.75-0.4 0.81z"/>
   <path d="m202.4 453.3s0.33-0.15 0.65-0.42 0.54-0.54 0.5-0.59-0.33 0.15-0.65 0.42-0.54 0.54-0.5 0.59z"/>
   <path d="m201.4 451.6a2.21 2.21 0 0 0 1 0.13 2.12 2.12 0 0 0 1-0.1 2.3 2.3 0 0 0-1-0.12 2.2 2.2 0 0 0-1 0.09z"/>
   <path d="m201.1 450.4a2.73 2.73 0 0 0 2.17 0.17 6.41 6.41 0 0 0-1.09-0.08 6.31 6.31 0 0 0-1.08-0.09z"/>
   <path d="m204.5 452.5a3.34 3.34 0 0 0 1.18 0 7.08 7.08 0 0 0 1.26-0.26 3.5 3.5 0 0 0 0.72-0.29 0.62 0.62 0 0 0 0.3-0.35 0.47 0.47 0 0 0-0.18-0.47 2.2 2.2 0 0 0-2.68 0.6 2 2 0 0 0-0.39 0.77 0.77 0.77 0 0 0 0 0.32 3.29 3.29 0 0 1 0.55-1 2.09 2.09 0 0 1 1-0.63 1.87 1.87 0 0 1 1.41 0.1c0.19 0.14 0.11 0.35-0.1 0.47a3 3 0 0 1-0.66 0.28 9.74 9.74 0 0 1-1.22 0.3c-0.74 0.13-1.19 0.13-1.19 0.16z"/>
   <path d="m204.8 452.6a1.08 1.08 0 0 0 0.15-0.8 1.87 1.87 0 0 0-0.32-0.85 1.18 1.18 0 0 0-1-0.6 0.47 0.47 0 0 0-0.37 0.53 1.16 1.16 0 0 0 0.2 0.52 3.57 3.57 0 0 0 0.55 0.71 1.85 1.85 0 0 0 0.67 0.47s-0.23-0.21-0.55-0.58a3.71 3.71 0 0 1-0.49-0.7c-0.16-0.24-0.27-0.68 0-0.73s0.59 0.26 0.77 0.49a2 2 0 0 1 0.33 0.76 3.71 3.71 0 0 1 0.06 0.78z"/>
   <path d="m184.9 451.2s0.52-0.05 1.36 0.05a6.08 6.08 0 0 1 2.95 1.22 5.87 5.87 0 0 1 1.84 2.58c0.27 0.77 0.29 1.29 0.34 1.29a1.12 1.12 0 0 0 0-0.36 5 5 0 0 0-0.19-1 5.64 5.64 0 0 0-1.85-2.7 5.81 5.81 0 0 0-3.08-1.2 5.24 5.24 0 0 0-1 0 1.07 1.07 0 0 0-0.37 0.12z"/>
   <path d="m193.7 454.7a15.46 15.46 0 0 0 5.37 0.09c0-0.06-1.2 0-2.68 0s-2.68-0.15-2.69-0.09z"/>
   <path d="m190.1 454.7c0 0.05 0.09 0.25 0.21 0.52s0.19 0.51 0.25 0.51 0.1-0.28 0-0.6-0.42-0.47-0.46-0.43z"/>
   <path d="m188.8 453c-0.05 0 0.07 0.23 0.26 0.42s0.38 0.31 0.42 0.26-0.07-0.23-0.26-0.42-0.38-0.26-0.42-0.26z"/>
   <path d="m186.8 452.2c0 0.06 0.26 0.06 0.53 0.15s0.46 0.24 0.51 0.2-0.11-0.29-0.44-0.4-0.62-0.01-0.6 0.05z"/>
   <path d="m185.5 451.9c0 0.05 0.08 0.15 0.23 0.21s0.3 0.06 0.32 0-0.08-0.15-0.23-0.21-0.3-0.06-0.32 0z"/>
  </g>
  <polygon points="202.6 445.6 184.7 446 184.7 449.5 203 449.6" opacity=".3"/>
  <path d="m185.2 361.2c-17.73 1.81-41.18 4.25-41.18 4.25l3.2 28.86s34.54-9.13 34.29-8.39 1.6 61.41 1.6 61.41h20.8l0.39-68.71a17.28 17.28 0 0 0-19.1-17.42z" fill="#263238"/>
  <path d="m101.5 372.8v9c0 6.09 6.94 12.55 13 12.55h4.71c3.71 0 9.53-2.7 12.52-4.89l1.81-1.32 21.65 67.09s24.79-4.49 24.79-5.27-16.78-54.95-24.53-80.09c-3.16-10.27-14.16-16.24-24.32-12.75l-1 0.38c-11.15 4.46-28.63 15.3-28.63 15.3z" fill="#263238"/>
  <g fill="#455a64">
   <path d="m180 450a0.86 0.86 0 0 1-0.11-0.24l-0.27-0.72c-0.24-0.63-0.58-1.57-1-2.78-0.83-2.43-2-6-3.35-10.33-2.76-8.74-6.47-20.85-10.5-34.25-2-6.7-3.91-13.08-5.65-18.89l-2.45-8.25-1.12-3.73a34.75 34.75 0 0 0-1.12-3.4 14 14 0 0 0-3.5-5 28.67 28.67 0 0 0-3.67-2.86c-1.06-0.71-1.9-1.23-2.48-1.58l-0.65-0.41q-0.22-0.14-0.21-0.15l0.24 0.11 0.67 0.36c0.6 0.32 1.46 0.81 2.54 1.51a27.39 27.39 0 0 1 3.76 2.8 14.25 14.25 0 0 1 3.64 5 34.24 34.24 0 0 1 1.17 3.42c0.36 1.2 0.75 2.44 1.14 3.73 0.78 2.58 1.62 5.33 2.5 8.23 1.75 5.81 3.67 12.19 5.69 18.88 4 13.37 7.69 25.48 10.35 34.29l3.2 10.37c0.37 1.19 0.67 2.14 0.89 2.82l0.22 0.73a0.82 0.82 0 0 1 0.07 0.34z"/>
   <path d="m185.2 377.3c0.13 0.09-1.05 1.86-2 4.26s-1.43 4.48-1.58 4.45a11.32 11.32 0 0 1 1.1-4.65 11.06 11.06 0 0 1 2.48-4.06z"/>
   <path d="m189.2 380c0.06 0.14-1.73 0.92-3.59 2.4s-3.06 3-3.18 2.92a11.31 11.31 0 0 1 6.77-5.32z"/>
   <path d="m155.5 455.2c-0.13 0-6-17.91-13.06-40.09s-12.71-40.22-12.57-40.26 6 17.9 13.06 40.1 12.71 40.21 12.57 40.25z"/>
  </g>
  <path d="m116.5 265.6c-0.67-1.6-2.13-4.28-2.48-6a8.8 8.8 0 0 1 0.31-5.11 5.37 5.37 0 0 1 3.74-3.3 20.65 20.65 0 0 0 3.17-0.4 9.31 9.31 0 0 0 2.84-2.34 9.06 9.06 0 0 1 5.19-2.36 5.29 5.29 0 0 1 3 0.43 3 3 0 0 1 1.71 2.35 14.45 14.45 0 0 1 3.63-0.87 4.83 4.83 0 0 1 3.5 1 2.94 2.94 0 0 1 0.81 3.39 2.39 2.39 0 0 1 3.08 0.87 3.06 3.06 0 0 1-0.2 3.33 5.75 5.75 0 0 1-3.43 2 8.42 8.42 0 0 1-3.64-0.11" fill="#263238"/>
  <path d="m128.8 250.8a11.74 11.74 0 0 1 11.74 11.52c0.12 5.83 0.16 12-0.13 13.84-1.17 7.33-6.79 8.27-6.79 8.27s-0.09 4.59-0.1 8.95a8 8 0 0 1-8.08 7.7 7.61 7.61 0 0 1-8-7.25l-0.34-31.16a11.74 11.74 0 0 1 11.74-11.87z" fill="#b78876"/>
  <g fill="#263238">
   <path d="m139 265.4a1 1 0 0 1-0.91 1 0.9 0.9 0 0 1-1-0.85 0.94 0.94 0 0 1 0.9-0.95 0.91 0.91 0 0 1 1.01 0.8z"/>
   <path d="m139.2 264.7c-0.12 0.12-0.83-0.41-1.84-0.4s-1.75 0.51-1.86 0.38 0.06-0.27 0.38-0.51a2.67 2.67 0 0 1 1.5-0.46 2.48 2.48 0 0 1 1.46 0.47c0.31 0.24 0.42 0.46 0.36 0.52z"/>
   <path d="m128.9 265.6a1 1 0 0 1-0.91 0.95 0.9 0.9 0 0 1-1-0.85 0.94 0.94 0 0 1 0.91-0.95 0.9 0.9 0 0 1 1 0.85z"/>
   <path d="m129.3 264.9c-0.11 0.12-0.83-0.41-1.84-0.4s-1.75 0.5-1.86 0.38 0.06-0.28 0.39-0.51a2.53 2.53 0 0 1 1.49-0.46 2.41 2.41 0 0 1 1.46 0.47c0.31 0.24 0.42 0.46 0.36 0.52z"/>
   <path d="m133 272.4a7.25 7.25 0 0 1 1.64-0.29c0.26 0 0.5-0.08 0.55-0.26a1.29 1.29 0 0 0-0.18-0.76l-0.76-2a34.69 34.69 0 0 1-1.72-5.15 33 33 0 0 1 2.13 5c0.25 0.69 0.5 1.35 0.73 2a1.48 1.48 0 0 1 0.14 1 0.67 0.67 0 0 1-0.43 0.38 1.92 1.92 0 0 1-0.44 0.06 6.06 6.06 0 0 1-1.66 0.02z"/>
  </g>
  <path d="m133.6 284.4a18.63 18.63 0 0 1-9.82-2.62s2.39 5 9.73 4.35z" fill="#aa6550"/>
  <g fill="#263238">
   <path d="m130 273.1c0.16 0 0.16 1.09 1.1 1.87s2.11 0.66 2.12 0.81-0.26 0.22-0.75 0.23a2.69 2.69 0 0 1-1.77-0.62 2.38 2.38 0 0 1-0.86-1.56c-0.06-0.46 0.06-0.73 0.16-0.73z"/>
   <path d="m129.5 260.9c-0.1 0.28-1.11 0.15-2.29 0.29s-2.15 0.47-2.31 0.22 0.1-0.38 0.49-0.64a4 4 0 0 1 3.5-0.39c0.44 0.18 0.66 0.39 0.61 0.52z"/>
   <path d="m138.9 261.8c-0.18 0.23-0.88 0-1.72 0s-1.54 0.15-1.71-0.09 0-0.34 0.35-0.56a2.48 2.48 0 0 1 2.76 0.08c0.3 0.22 0.4 0.46 0.32 0.57z"/>
  </g>
  <path d="m118 265.2c-0.1-0.05-4.24-1.45-4.28 2.83s4.26 3.44 4.27 3.31 0.01-6.14 0.01-6.14z" fill="#b78876"/>
  <path d="m116.7 269.7s-0.08 0.05-0.2 0.11a0.76 0.76 0 0 1-0.56 0 1.86 1.86 0 0 1-0.84-1.66 2.54 2.54 0 0 1 0.22-1.06 0.89 0.89 0 0 1 0.57-0.57 0.38 0.38 0 0 1 0.44 0.21c0.05 0.12 0 0.2 0.05 0.21s0.09-0.07 0.06-0.25a0.55 0.55 0 0 0-0.17-0.27 0.6 0.6 0 0 0-0.41-0.11 1 1 0 0 0-0.78 0.66 2.52 2.52 0 0 0-0.28 1.19 1.93 1.93 0 0 0 1.07 1.85 0.79 0.79 0 0 0 0.69-0.1c0.13-0.11 0.15-0.2 0.14-0.21z" fill="#aa6550"/>
  <path d="m141.2 257.2a15.56 15.56 0 0 1-9.66-0.49c-3.43-1.3-7.32-1.71-8.09-1s-0.61 4.12-3.75 5.43c0 0 0.87 6.4-1.71 6.43s-2-10.08-2-10.08l5.24-5.12 6.71-2.34 7.11 1.14 6.14 1.23z" fill="#263238"/>
  <polygon points="128.9 350.6 199.8 351.2 213 313.9 161.4 314.2 149.5 347.8 128.9 348.1" fill="#e0e0e0"/>
  <circle transform="rotate(-72.62 183.1 333)" cx="183" cy="332.9" r="2.87" fill="#fff"/>
  <polygon points="227.8 354.9 227.8 456.8 231.2 456.8 231.2 354.9 249.6 354.9 249.6 350.8 53.25 350.8 53.25 354.9 70.27 354.9 70.27 456.8 73.67 456.8 73.67 354.9" fill="#263238"/>
  <g transform="translate(26.42 11.72)">
   <g fill="#66983c">
    <path d="m652.9 374.7c4.36-2.26 9.5-2.55 14.35-1.75 2.6 0.43 5.32 1.21 7.09 3.17s2.11 5.4 0.07 7.08a6.78 6.78 0 0 1-4.47 1.13c-3.79 0-8-0.71-11 1.57-1.73 1.31-2.88 3.47-4.95 4.11a4.89 4.89 0 0 1-5.38-2.39 8.38 8.38 0 0 1-0.61-6.17 9.42 9.42 0 0 1 4.9-6.75z"/>
    <path d="m642.9 355.4c2.67 3.81 7.86 2.55 10.27 0.22s3.42-5.7 4.35-8.92c2.11-7.35 4.24-15.06 2.67-22.54a12.54 12.54 0 0 0-2.88-6.13 6.53 6.53 0 0 0-6.2-2.06c-2.62 0.69-4.24 3.25-5.42 5.69a53.8 53.8 0 0 0-5.31 23.06c0 3.71 0.43 7.61 2.52 10.68"/>
    <path d="m635.6 360.9c2.9-3.44 3.45-8.46 2.16-12.77a24.57 24.57 0 0 0-7.56-11 40.79 40.79 0 0 0-13.54-8 14.39 14.39 0 0 0-6.09-1 6.36 6.36 0 0 0-5.11 3.09c-1.43 2.72-0.06 6 1.41 8.7a104.7 104.7 0 0 0 8.9 13.55c2.66 3.43 5.72 6.82 9.78 8.38s8.28 1.37 10.44-1.45"/>
   </g>
   <g fill="#263238">
    <path d="m642.7 412.9a8.51 8.51 0 0 0 0.24-1.74c0.13-1.26 0.28-2.84 0.46-4.72a66.52 66.52 0 0 1 1.07-6.94 53.37 53.37 0 0 1 2.52-8.19 30 30 0 0 1 4.18-7.4 15.58 15.58 0 0 1 5.28-4.4 15 15 0 0 1 4.45-1.38 8.83 8.83 0 0 0 1.73-0.25 8 8 0 0 0-1.76 0 13.61 13.61 0 0 0-4.64 1.21 15.6 15.6 0 0 0-5.57 4.43 29.26 29.26 0 0 0-4.33 7.56 49.87 49.87 0 0 0-2.51 8.32 59.94 59.94 0 0 0-0.92 7c-0.15 2-0.21 3.63-0.23 4.76a8 8 0 0 0 0.03 1.74z"/>
    <path d="m643.1 409.3a3.63 3.63 0 0 0 0-0.81v-2.29c0-2 0-4.89 0.1-8.45 0.18-7.13 0.79-14.81 2-25.63 1.12-10.17 2.63-22 4.22-29.71 0.34-1.75 0.68-3.33 1-4.71s0.57-2.57 0.82-3.53l0.54-2.24a4.19 4.19 0 0 0 0.14-0.79 3.44 3.44 0 0 0-0.28 0.75c-0.17 0.58-0.4 1.31-0.67 2.2s-0.6 2.14-0.94 3.52-0.74 2.95-1.12 4.69a260.7 260.7 0 0 0-4.43 27.57c-1.19 10.85-1.73 20.72-1.77 27.87-0.05 3.57 0 6.47 0.12 8.46 0.06 0.94 0.1 1.7 0.14 2.3a3.07 3.07 0 0 0 0.13 0.8z"/>
    <path d="m643.1 390.2a15.21 15.21 0 0 0 0-2.4 65.47 65.47 0 0 0-0.74-6.51 85.75 85.75 0 0 0-2.11-9.48 77.67 77.67 0 0 0-4-11.22 59.74 59.74 0 0 0-11.64-18.13 30.54 30.54 0 0 0-2.74-2.54c-0.42-0.36-0.79-0.71-1.17-1l-1.06-0.73a16 16 0 0 0-2-1.3c-0.12 0.16 2.86 1.91 6.63 5.91a63.15 63.15 0 0 1 11.35 18.07 87.88 87.88 0 0 1 4 11.11c1 3.48 1.73 6.69 2.26 9.39s0.78 4.91 0.95 6.44a14.53 14.53 0 0 0 0.27 2.39z"/>
    <polygon points="660.2 450 662.1 423.8 624.7 423.8 626.6 450"/>
    <rect x="621.5" y="413.5" width="44.65" height="10.3"/>
   </g>
   <polygon points="621.5 449 621.5 451.8 623.6 451.8 665.4 451.8 665.4 449" fill="#455a64"/>
   <polygon points="663.8 451.8 661.4 456.8 625.6 456.8 623.6 451.8" fill="#455a64"/>
   <path d="m661.5 432.4a0.9 0.9 0 0 1-0.15 0.24l-0.5 0.66-2 2.51-0.09 0.11-0.08-0.12-4.81-6.64h0.28l-4.73 6.7-0.15 0.21-0.17-0.2-5.61-6.68h0.33l-0.31 0.38-5 6.3-0.17 0.2-0.15-0.21-4.74-6.7h0.28l-5.83 6.64-0.11 0.12-0.07-0.13c-0.77-1.29-1.39-2.32-1.83-3.07-0.19-0.33-0.34-0.6-0.47-0.81a1.21 1.21 0 0 1-0.14-0.3 2.34 2.34 0 0 1 0.19 0.26l0.52 0.79 1.92 3h-0.18l5.73-6.73 0.15-0.17 0.13 0.19 4.78 6.66h-0.33l5-6.3 0.31-0.38 0.16-0.2 0.16 0.19 5.6 6.69h-0.32c1.73-2.4 3.34-4.65 4.78-6.66l0.14-0.2 0.14 0.2 4.7 6.72h-0.17l2-2.44 0.54-0.63a1.37 1.37 0 0 1 0.27-0.2z" fill="#e0e0e0"/>
   <path d="m662.6 423.6c0 0.12-8.41 0.21-18.79 0.21s-18.79-0.09-18.79-0.21 8.41-0.21 18.79-0.21 18.79 0.1 18.79 0.21z" fill="#455a64"/>
   <path d="m664.3 452.1c0 0.12-9.14 0.21-20.42 0.21s-20.42-0.09-20.42-0.21 9.14-0.21 20.42-0.21 20.42 0.12 20.42 0.21z" fill="#263238"/>
  </g>
  <g transform="matrix(.72 0 0 .7275 91.33 572.7)" fill="#ebebeb">
   <path d="m-64.67-471.3c-5.74 0.1-20.22 0.35-25.77 0.41h-9.14v-12.14h0.5l17.23 0.07c4.29 0 12.94 0.13 17.23 0.19h0.25v0.24l-0.24 11.19zm0 0-0.27-11.19 0.24 0.24c-4.3 0.06-12.93 0.15-17.23 0.19l-17.23 0.07 0.5-0.5v11.19l-0.45-0.46h8.54c5.46 0.06 20.27 0.31 25.92 0.41z"/>
   <path d="m-83.89-457.2c-5.74 0.1-20.22 0.35-25.77 0.41h-9.15v-12.08h0.51l17.23 0.07c4.29 0 12.94 0.13 17.23 0.19h0.24v0.24l-0.24 11.19zm0 0-0.24-11.19 0.24 0.24c-4.3 0.06-12.94 0.15-17.23 0.19l-17.23 0.09 0.5-0.5-0.09 11.17-0.45-0.46 8.53 0.05c5.46 0.06 20.28 0.31 25.93 0.41z"/>
   <path d="m-127.1-580.5c-5.74 0.1-20.21 0.35-25.76 0.41h-9.15v-12.15h0.5l17.23 0.07c4.29 0 12.94 0.13 17.23 0.19h0.25v0.24l-0.24 11.19zm0 0-0.24-11.19 0.24 0.24c-4.29 0.06-12.93 0.16-17.23 0.19l-17.23 0.07 0.5-0.5v11.19l-0.46-0.45h8.54c5.46 0.06 20.27 0.31 25.92 0.41z"/>
   <path d="m-146.3-566.4c-5.74 0.1-20.22 0.35-25.77 0.41l-8.69 0.05h-0.46v-12.15h0.5l17.23 0.07c4.29 0 12.94 0.13 17.23 0.19h0.25v0.24l-0.24 11.19zm0 0-0.24-11.19 0.24 0.24c-4.3 0.06-12.93 0.16-17.23 0.19l-17.23 0.07 0.5-0.5v11.19l-0.46-0.45h8.54c5.46 0.06 20.27 0.31 25.92 0.41z"/>
   <rect x="-142.3" y="-577.6" width="34.46" height="11.19"/>
   <rect x="965.1" y="-720.1" width="34.46" height="11.19"/>
   <rect x="915.2" y="-521" width="34.46" height="11.19"/>
   <path d="m968.9-495.7c-5.74 0.1-20.22 0.35-25.76 0.41h-9.15v-0.46l-0.05-11.19v-0.5h0.5l17.23 0.07c4.29 0 12.94 0.13 17.23 0.19h0.25v0.23l-0.24 11.19zm0 0-0.24-11.19 0.24 0.24c-4.3 0.07-12.93 0.16-17.23 0.2l-17.23 0.06 0.5-0.5v11.19l-0.46-0.45h8.54c5.46 0.07 20.27 0.32 25.92 0.41z"/>
   <path d="m-124.6-727.1c-5.74 0.1-20.22 0.34-25.77 0.41h-9.15v-12.15h0.5l17.23 0.06c4.29 0 12.94 0.13 17.23 0.19h0.25v0.24l-0.24 11.19zm0 0-0.24-11.19 0.24 0.24c-4.3 0.06-12.93 0.15-17.23 0.19l-17.23 0.06 0.5-0.49v11.19l-0.5-0.45h8.53c5.47 0.07 20.28 0.32 25.93 0.42z"/>
   <rect transform="scale(-1)" x="-8.123" y="693.4" width="34.46" height="11.19"/>
   <path d="m-7.137-718.7c5.74-0.1 20.22-0.35 25.77-0.41h9.14v12.08h-17.65c-4.29 0-12.94-0.13-17.23-0.19h-0.25v-0.24zm0 0 0.24 11.19-0.24-0.24c4.3-0.06 12.93-0.15 17.23-0.19l17.26-0.09-0.5 0.5v-11.19l0.46 0.46-8.45-0.03c-5.46-0.06-20.27-0.31-25.92-0.41z"/>
  </g>
 </g>
 <rect x="534.4" y="371.7" width="268.6" height="17.7" fill="#455a64"/>
 <rect x="534.4" y="371.7" width="126.2" height="17.7" fill="#66983c"/>
 <rect x="534.4" y="397.9" width="268.6" height="17.7" fill="#455a64"/>
 <rect x="534.4" y="424.9" width="268.6" height="17.7" fill="#455a64"/>
 <rect x="534.4" y="424.9" width="222.3" height="17.7" fill="#66983c"/>
 <rect x="534.4" y="397.9" width="61.49" height="17.7" fill="#66983c"/>
</svg>
