<svg width="120" height="120" version="1.1" viewBox="0 0 120 120" xmlns="http://www.w3.org/2000/svg">
 <g stroke-linecap="round" stroke-linejoin="round">
  <path d="m19.36 0.8393h81.42c10.1 0 18.24 7.755 18.24 17.39v84.24c0 9.631-8.133 17.39-18.24 17.39h-81.42c-10.1 0-18.24-7.755-18.24-17.39v-84.24c0-9.631 8.133-17.39 18.24-17.39z" fill="#76b83f" stroke-width="1.333" style="paint-order:stroke fill markers"/>
  <g transform="matrix(1.032 -.2355 .2241 .8935 -.665 -.3144)" fill="#fff" stroke-linecap="round" stroke-linejoin="round" stroke-width="3.484" style="paint-order:fill markers stroke" aria-label="u">
   <path transform="matrix(1.598 .4213 -.408 1.879 -20 -25.16)" d="m55.95 13.19c-4.289 0.0012-9.129 2.207-7.566 6.434l10.77 29.57c-1.033 1.044-2.172 1.944-3.418 2.699-1.246 0.7551-2.431 1.302-3.555 1.645-1.685 0.5131-3.066 0.7458-4.141 0.6973-1.05-0.05611-1.94-0.3808-2.67-0.9766-0.7545-0.5882-1.406-1.418-1.955-2.488-0.5315-1.098-1.104-2.495-1.715-4.188l-6.004-16.64c-1.865-4.026-14.31-2.194-13.27 4.018l-0.0078 2e-3c1.941 5.38 4.588 13.05 7.295 20.65l3.02 8.332c1.499 4.06 2.945 7.85 4.213 10.88 2.93 4.57 15.09 1.385 13.43-3.137l-2.17-6.018c0.3331-0.1431 0.615-0.3162 0.834-0.5273 2.809-0.8556 5.089-1.981 6.836-3.375 1.737-1.413 3.555-3.249 5.451-5.506 4.882 3.439 11.94 2.782 15.97-2.201l0.01367 0.0078c1.432-1.119 4.13-7.011 1.977-8.027-2.635 1.87-5.275 3.294-7.17 0.668l-1.018-2.4c1.013-1.859 1.65-3.221 2.459-4.244l-1.592-2.07c-0.6495 0.9076-1.46 2.171-2.016 2.359l-8.387-23.74c-0.6753-1.625-3.05-2.419-5.623-2.418zm-33.53 20.77c-4.19e-4 -0.0012-0.0015-0.0027-2e-3 -0.0039v0.0039z"/>
   <path transform="matrix(1.598 .4213 -.408 1.879 -20 -25.16)" d="m76 30-2.994 4.754c-0.316 0.5154-0.4281 0.5093-0.5427 0.409-0.5127-0.4406-1.85-1.755-1.92-1.768-0.3388-0.06173-0.5332 0.1128-0.4219 0.6172 0.6181 0.9769 1.212 1.893 1.818 2.781-0.6208 0.8743-1.273 1.729-1.979 2.555-15.2 18.23-27.86 15.87-52.71 17.38 23.72 13.57 37.27 12.87 53.86-13.42 0.7937-1.43 1.631-2.833 2.48-4.229 0.6153 0.7987 1.268 1.593 1.998 2.404 0.3541 0.4243 0.9956-0.1453 0.6855-0.7598l-1.504-2.982c-0.008362-0.356 0.1336-0.5777 0.2305-0.7363l3.625-5.934c0.37-1.643-2.077-2.252-2.625-1.066z" fill="#fff"/>
  </g>
 </g>
</svg>
