<svg width="200" height="200" version="1.1" viewBox="1 0 33 42" xmlns="http://www.w3.org/2000/svg">
 <g transform="matrix(.21 0 0 .21 -2.954 .02439)">
  <g opacity=".7">
   <g opacity=".74">
    <radialGradient id="SVGID_1_" cx="106.5" cy="105.1" r="65.71" gradientTransform="matrix(1,0,0,-1,0,202)" gradientUnits="userSpaceOnUse">
     <stop stop-color="#EEF5E8" offset=".5475"/>
     <stop stop-color="#DBE5D3" offset=".8575"/>
     <stop stop-color="#C6D3BB" offset="1"/>
    </radialGradient>
    <path d="m120.3 159.1c-23.36 8.087-50.93-1.848-64.7-22.14-7.848-10.99-10.81-24.55-11.26-37.84-1.079-17.54 1.404-37.01 14.19-50.19 11.42-11.58 27.69-16.31 43.31-18.95 18.75-2.317 38.14 5.943 49.83 20.73 9.84 11.69 13.55 27.01 14.69 41.92 1.551 15.8 1.304 33.6-9.329 46.48-9.223 11.1-23.59 15.5-36.73 19.98zm-7.9-24.6c8.654-3.058 18.42-3.686 26.1-9.064 6.755-6.115 5.186-16.3 3.916-24.35-2.463-12.22-6.24-25.18-16.23-33.49-6.98-6.504-17.09-8.733-26.26-6.538-9.236 1.982-20.54 4.003-24.99 13.55-4.652 10.8-4.027 23.03-3.022 34.5 1.331 12.93 11.31 24.92 24.5 26.72 5.324 0.8975 10.84 0.1581 15.98-1.336z" fill="url(#SVGID_1_)"/>
    <radialGradient id="SVGID_00000178194277661625655050000003691911196469392011_" cx="106.1" cy="100.5" r="33.41" gradientTransform="matrix(1 0 0 -.9869 0 198.1)" gradientUnits="userSpaceOnUse">
     <stop stop-color="#EEF5E8" offset=".5475"/>
     <stop stop-color="#DBE5D3" offset=".8575"/>
     <stop stop-color="#C6D3BB" offset="1"/>
    </radialGradient>
    <path d="m116.9 132.7c-6.887 2.148-14.42 0.9617-20.76-2.316-11.37-5.866-20.51-17.22-21.73-30.2-1.38-13.3 5.464-27.59 17.78-33.41 11.24-5.465 25.32-2.552 34.4 5.742 7.174 6.282 11.15 15.73 11.26 25.21 0.462 12.41-4.83 25.65-15.5 32.56-1.663 1.117-3.604 1.675-5.45 2.416z" fill="url(#SVGID_00000178194277661625655050000003691911196469392011_)"/>
    <radialGradient id="SVGID_00000064348543864673272700000005630189553029594046_" cx="100" cy="102" r="96.87" gradientTransform="matrix(1,0,0,-1,0,202)" gradientUnits="userSpaceOnUse">
     <stop stop-color="#EEF5E8" offset=".5475"/>
     <stop stop-color="#DBE5D3" offset=".8575"/>
     <stop stop-color="#C6D3BB" offset="1"/>
    </radialGradient>
    <path d="m101.1 193.1c-23.68 4.745-48.9-3.921-65.56-21.18-24.33-23.65-34.87-60.16-27.7-93.24 6.057-31.06 28.84-58.87 59.4-68.36 22.07-7.571 45.97-3.465 67.83 2.667 14.98 4.572 29.26 13.7 36.37 28.11 14.34 28.59 21.18 61.68 15.72 93.45-3.105 18.91-16.48 34.87-33.56 43.03-16.36 8.304-34.59 12.18-52.49 15.53zm-4.2-24c20.12-3.974 42.05-7.646 57.8-21.85 12.06-12.6 11.94-31.29 13.05-47.62-0.3611-19.39-3.76-39.75-14.75-56.12-11.26-13.07-30.24-14.03-46.25-14-28.02-0.6468-53.45 19.62-62.65 45.5-9.9 26.18-8.98 58.78 10.45 80.42 10.82 11.29 26.96 16.51 42.35 13.68z" fill="url(#SVGID_00000064348543864673272700000005630189553029594046_)"/>
   </g>
  </g>
  <g transform="translate(8.748 -5.508)">
   <path d="m70.9 40.1c-1.5-0.5-2.5-1.4-2.9-2.5-0.3-1.1 0-2.5 0.9-3.8 1-1.2 2.5-2.2 4.3-2.8s3.6-0.6 5.1-0.1l0.4 0.1-0.2-0.3-5.7-18.7c0.7-0.3 3.7-1.3 6.7-0.3 0.6 0.2 1.2 0.4 1.7 0.8 2 1.2 3 4 3.4 5.8-0.7-1.3-2.1-3.2-4.4-4-0.3-0.1-0.5-0.2-0.9-0.2-1.2-0.2-2.5-0.3-3.9-0.1h-0.3l5.9 19.1c0.1 0.1 0.1 0.2 0.1 0.4 0.3 1.1 0 2.5-0.9 3.8-1 1.2-2.5 2.2-4.3 2.8-1.7 0.5-3.6 0.5-5 0z" fill="#cddbc2"/>
  </g>
  <g transform="translate(1.391 -3.278)">
   <path d="m72.1 87.9c-0.2-0.8-0.4-1.5-0.5-2.2-0.1-0.6 0.1-1 0.7-1.2 1.4-0.5 2.8-0.9 4.3-1 1.3-0.1 2.6-0.1 3.9 0.2 1.4 0.3 2.7 0.8 3.8 1.7 0.2-0.3 0.3-0.7 0.5-1 0.9-1.6 2.3-2.8 3.9-3.7s3.4-1.6 5.2-1.9c0.3 0 0.6-0.1 0.8-0.1 0.7 0.1 0.9 0.6 1 1.2 0.1 0.5 0.2 0.9 0.3 1.4 0.1 0.3 0.2 0.4 0.5 0.3 0.5-0.2 1.1-0.3 1.7-0.4 0.7-0.2 1.2 0.1 1.4 0.8 0.4 1.5 0.7 2.9 1.1 4.4 0.7 2.6 1.3 5.1 2 7.7l1.8 6.9c0.2 0.6-0.2 1.4-1 1.4-1.6 0-3.3 0-4.9 0.2-2.6 0.3-5.2 1-7.5 2.4-0.2 0.1-0.5 0.3-0.7 0.5-0.5 0.5-1.1 0.6-1.8 0.5-2.3-0.3-4.5 0-6.7 0.7-2 0.6-3.9 1.5-5.8 2.6-0.1 0.1-0.2 0.1-0.3 0.2-0.7 0.5-1.5 0.2-1.8-0.6-0.6-2.2-1.1-4.5-1.7-6.7-0.8-3.3-1.6-6.5-2.5-9.8-0.2-0.9-0.4-1.7-0.7-2.6-0.2-0.6 0.2-1.1 0.8-1.3 0.8-0.2 1.5-0.4 2.2-0.6zm5.7 14c3.3-0.9 6.5-1 9.7 0.5-0.5-1.8-0.9-3.5-1.3-5.3-0.8-3-1.5-6-2.3-9-0.1-0.2-0.2-0.4-0.4-0.6-1.1-1.1-2.5-1.6-4-1.9-1.7-0.3-3.3-0.1-4.9 0.2-0.8 0.2-0.8 0.2-0.6 1v0.2c1.1 4.2 2.2 8.5 3.2 12.7 0.2 0.8 0.4 1.5 0.6 2.2zm16-20.8c-0.1 0-0.2 0-0.3 0.1-1.3 0.3-2.6 0.8-3.8 1.5-1.7 1-3 2.3-3.7 4.2-0.1 0.2-0.1 0.5-0.1 0.7 0.2 0.9 0.4 1.7 0.6 2.5 0.8 3.1 1.6 6.3 2.4 9.4l0.6 2.4c2.1-2.9 5-4.3 8.3-5.1-1.3-5.2-2.7-10.4-4-15.7zm2.9 2.8 1.8 6.9c0.5 2.1 1 4.1 1.6 6.2 0.3 1.1 0 1.7-1.1 1.8-1.8 0.3-3.5 0.9-5.1 1.8-0.7 0.4-1.3 1-2 1.7 3.3-1.4 6.7-1.9 10.1-1.9-1.4-5.7-2.8-11.2-4.3-16.8-0.3 0.1-0.7 0.2-1 0.3zm-11.4 20c-0.2-0.2-0.5-0.2-0.7-0.3h-0.2c-2.3-0.4-4.6-0.1-6.8 0.7-0.7 0.3-1.3-0.1-1.5-0.8-0.1-0.6-0.3-1.1-0.4-1.7-0.7-2.6-1.3-5.3-2-7.9-0.3-1.2-0.6-2.3-0.9-3.5 0-0.1-0.2-0.3-0.3-0.3-0.3 0-0.6 0.2-0.9 0.3 1.4 5.6 2.8 11.2 4.3 16.8 2.9-1.8 6-2.9 9.4-3.3z" fill="#cddbc2"/>
  </g>
  <g transform="translate(-6.156 -1.296)">
   <path d="m101.7 41.6c0.5 0 1 0.2 1.5 0.5 1.5 0.9 3.1 1.8 4.6 2.7 1.1 0.6 2.2 1.2 3.2 1.9 1 0.6 2.1 1.2 3.1 1.8 1.2 0.7 2.3 1.3 3.5 2 1.1 0.7 2.3 1.3 3.4 2 0.6 0.3 1.1 0.7 1.7 1 0.6 0.4 1 0.9 1.2 1.6s0.1 1.3-0.3 1.8c-0.5 0.8-0.9 1.7-1.4 2.5l-1.2 2.1c-0.4 0.6-0.7 1.2-1.1 1.8-0.5 0.8-0.9 1.6-1.4 2.4-0.6 1-1.2 2-1.7 3-0.8 1.3-1.5 2.6-2.3 3.8-0.2 0.3-0.4 0.7-0.7 1-0.2 0.3-0.5 0.5-0.8 0.6-0.5 0.2-1 0.4-1.5 0.2-0.3-0.1-0.6-0.2-0.9-0.4-1.2-0.6-2.3-1.3-3.4-1.9-1-0.6-2.1-1.2-3.1-1.8s-2-1.2-3-1.7l-3.6-2.1c-1.3-0.8-2.6-1.5-3.9-2.3-0.9-0.5-1.8-1.1-2.7-1.6-0.6-0.4-1-1-1.1-1.7-0.1-0.4 0-0.7 0-1.1 0-0.2 0.2-0.4 0.3-0.5 0.4-0.8 0.9-1.5 1.4-2.3 0.6-1 1.2-2.1 1.8-3.1 0.5-0.8 0.9-1.6 1.4-2.4 0.4-0.8 0.9-1.5 1.3-2.3l1.2-2.1c0.5-0.8 1-1.7 1.5-2.5 0.3-0.6 0.7-1.1 1-1.7 0.3-0.5 0.7-0.8 1.3-1 0.2-0.1 0.5-0.1 0.7-0.2zm0.2 18.2c3 0.2 6 0.4 8.9 0.6v-0.1c-1.6-2.5-3.2-4.9-4.9-7.5-1.3 2.4-2.6 4.7-4 7zm-1.5 5.3c0.5-0.8 0.9-1.5 1.3-2.3 0.1-0.1 0-0.1-0.1-0.2-0.4-0.2-0.7-0.4-1.1-0.6s-0.8-0.5-1.2-0.7c-0.3 0.9-0.8 1.7-1.3 2.5 0.8 0.4 1.6 0.9 2.4 1.3zm5.7-15.2c0.1 0 0.1 0 0 0 0.8 0.5 1.5 0.9 2.2 1.3 0.1 0.1 0.2 0.1 0.2-0.1 0.4-0.7 0.8-1.3 1.1-2 0.1-0.2 0.1-0.2-0.1-0.3l-1.5-0.9-0.6-0.3c-0.4 0.8-0.8 1.6-1.3 2.3zm3.5 20.6c0.8 0.5 1.5 0.9 2.3 1.4 0.5-0.8 0.9-1.6 1.4-2.4-0.8-0.5-1.6-0.9-2.3-1.4-0.5 0.8-0.9 1.6-1.4 2.4zm-15.9-12.5c-0.5 0.8-0.9 1.6-1.4 2.4 0.8 0.5 1.5 0.9 2.3 1.4 0.5-0.8 0.9-1.6 1.4-2.4-0.8-0.5-1.5-0.9-2.3-1.4zm11.5 6.8c0 0.1-0.1 0.1-0.1 0.2-0.4 0.7-0.8 1.3-1.2 2-0.1 0.2-0.1 0.2 0.1 0.3 0.4 0.2 0.8 0.5 1.2 0.7 0.3 0.2 0.6 0.4 0.9 0.5 0.4-0.8 0.9-1.5 1.3-2.2 0.1-0.1 0.1-0.2-0.1-0.2-0.6-0.5-1.3-0.9-2.1-1.3zm8.1-13.9c-0.5 0.8-0.9 1.6-1.4 2.4 0.8 0.5 1.6 0.9 2.3 1.4 0.5-0.8 0.9-1.6 1.4-2.4-0.8-0.5-1.5-0.9-2.3-1.4zm-9.2-5.3c-0.8-0.5-1.5-0.9-2.3-1.4-0.5 0.8-0.9 1.6-1.4 2.4 0.8 0.5 1.5 0.9 2.3 1.4 0.5-0.8 0.9-1.6 1.4-2.4zm13.6 11.1c0.8 0.5 1.5 0.9 2.3 1.4 0.5-0.8 0.9-1.6 1.4-2.4-0.8-0.5-1.5-0.9-2.3-1.4-0.5 0.8-0.9 1.6-1.4 2.4z" fill="#cddbc2"/>
  </g>
  <g transform="translate(2.176 -2.405)">
   <path d="m68.6 137.9c-0.2-1.3-0.2-2.6-0.1-4 0.1-0.8 0.3-1.6 0.4-2.3 0.2-0.7 0.4-1.4 0.6-2.2 0.3-0.9 0.6-1.9 1-2.8 0.3-0.7 0.6-1.3 0.9-1.9 0.4-0.7 0.9-1.4 1.4-2 0.6-0.8 1.3-1.4 2.1-1.9 0.5-0.3 1-0.6 1.6-0.8 0.7-0.2 1.4-0.4 2.2-0.3s1.5 0.2 2.2 0.5c0.5 0.2 1.1 0.5 1.6 0.8 0.4 0.2 0.7 0.5 1.1 0.8 0.5 0.4 1 0.8 1.6 1 0.3 0.1 0.7 0.1 1.1 0.2s0.9 0.1 1.3 0.1 0.8-0.1 1.2-0.2c0.4-0.2 0.8-0.4 1.2-0.5 0.8-0.4 1.6-0.6 2.5-0.7 0.8-0.1 1.5 0 2.2 0.1s1.4 0.4 2.1 0.8 1.2 1 1.7 1.6c0.4 0.6 0.8 1.2 1.1 1.8 0.5 1 0.9 2.1 1.1 3.3 0.3 1.1 0.4 2.2 0.5 3.3 0.1 1.3 0.1 2.6 0.1 3.8 0 1.1-0.2 2.2-0.4 3.2-0.2 0.9-0.5 1.7-0.9 2.6-0.2 0.5-0.6 1-1 1.4-0.7 0.6-1.5 0.8-2.4 0.3-0.7-0.3-1.3-0.9-1.9-1.5-0.6-0.7-1.1-1.3-1.7-2-0.5-0.6-0.9-1.2-1.4-1.8-0.1-0.2-0.2-0.3-0.3-0.5s-0.3-0.3-0.5-0.4c-0.6-0.4-1.2-0.5-1.9-0.5-0.8-0.1-1.7-0.2-2.5-0.3-1.7-0.2-3.5-0.4-5.2-0.7-0.6-0.1-1.1-0.2-1.7-0.2-0.4 0-0.8 0.1-1.1 0.2-0.4 0.1-0.6 0.3-0.8 0.6-0.6 0.5-1.2 1-1.9 1.5l-2.4 1.8c-0.6 0.4-1.2 0.7-1.9 0.8-0.9 0.2-1.7-0.1-2.3-1-0.3-0.8-0.4-1.4-0.5-2zm10.8-8.4h0.2c0.6 0.1 1.1 0.1 1.7 0.2 0.1 0 0.2 0 0.2-0.1 0.1-0.2 0.2-0.3 0.3-0.4 0.3-0.5 0.3-1.1 0-1.6-0.1-0.1-0.2-0.2-0.3-0.2-0.3 0-0.5-0.1-0.8-0.1s-0.7-0.1-1-0.1c0.1-0.7 0.2-1.4 0.3-2 0-0.1 0-0.2-0.1-0.3-0.7-0.4-1.5-0.5-2.3-0.2 0 0.4-0.1 0.7-0.1 1.1s-0.1 0.7-0.1 1.1c-0.6-0.1-1.3-0.2-1.9-0.2-0.1 0-0.2 0-0.2 0.1-0.2 0.2-0.3 0.4-0.4 0.7-0.1 0.5 0 1 0.2 1.5 0 0 0.1 0.1 0.2 0.1 0.4 0.1 0.8 0.1 1.2 0.2 0.2 0 0.5 0.1 0.7 0.1-0.1 0.7-0.2 1.3-0.2 1.9v0.2c0.2 0.2 0.4 0.3 0.6 0.4 0.6 0.3 1.1 0.2 1.6-0.1 0 0 0.1-0.1 0.1-0.2-0.1-0.8 0-1.4 0.1-2.1zm17.4 2.3c1-0.2 1.7-1.1 1.5-2.1-0.1-1-1.1-1.7-2.1-1.6-1.1 0.1-1.8 1.1-1.6 2.2 0.2 0.9 1.1 1.7 2.2 1.5zm-6.3-4.7c0.2 1 1.2 1.7 2.2 1.5s1.6-1.1 1.4-2.2c-0.2-1-1.1-1.7-2.2-1.5-1 0.3-1.6 1.2-1.4 2.2zm3.1 4.2c-0.2-1-1.1-1.7-2.2-1.5-1 0.2-1.8 1.2-1.5 2.3 0.2 0.9 1.1 1.6 2.2 1.4 1-0.2 1.7-1.1 1.5-2.2z" fill="#cddbc2"/>
  </g>
  <g transform="translate(-3.436 -1.031)">
   <path d="m99.3 174c-1-1.2-1.4-2.5-1.1-3.7 0.3-1.1 1.3-2.1 2.8-2.7 1.5-0.5 3.3-0.6 5.1-0.1s3.3 1.4 4.4 2.6l0.3 0.3v-0.3l5.1-19c0.7 0.1 3.8 0.9 5.9 3.3 0.4 0.5 0.7 1 1 1.6 1.1 2.1 0.4 5-0.2 6.7 0.1-1.5-0.1-3.9-1.7-5.7-0.2-0.2-0.4-0.4-0.7-0.6-0.9-0.8-2-1.6-3.3-2.2l-0.2-0.1-5.2 19.4c0 0.1 0 0.2-0.1 0.4-0.3 1.1-1.3 2.1-2.8 2.7-1.5 0.5-3.3 0.6-5.1 0.1-1.6-0.6-3.1-1.5-4.2-2.7z" fill="#cddbc2"/>
  </g>
  <path d="m16.8 22.2v14.2c0 2.2 1.7 3.9 3.9 3.9h14.2c2.2 0 3.9-1.7 3.9-3.9v-14.2c0-2.2-1.7-3.9-3.9-3.9h-14.2c-2.2 0-3.9 1.8-3.9 3.9zm17.2 15.3h-12.4c-1.1 0-1.9-0.9-1.9-1.9v-12.5c0-1.1 0.9-1.9 1.9-1.9h12.4c1.1 0 1.9 0.9 1.9 1.9v12.5c0.1 1.1-0.8 1.9-1.9 1.9z" fill="#48563d" stroke="#48563d" stroke-linecap="round" stroke-linejoin="round" stroke-miterlimit="10" stroke-width=".5"/>
  <linearGradient id="SVGID_00000057121528494962827870000011059940401166138781_" x1="33.45" x2="33.45" y1="165.7" y2="190.7" gradientTransform="matrix(1,0,0,-1,0,202)" gradientUnits="userSpaceOnUse">
   <stop stop-color="#4F8328" offset="0"/>
   <stop stop-color="#69AE35" offset=".2179"/>
   <stop stop-color="#D4E8C5" offset=".3883"/>
   <stop stop-color="#A5CE86" offset=".5978"/>
   <stop stop-color="#609F31" offset="1"/>
  </linearGradient>
  <path d="m28.9 25.5v0c1.5-1.8 3-3.5 4.6-5.1 1.4-1.5 2.9-3 4.4-4.5 1-1 2.1-1.9 3.2-2.8 0.6-0.5 1.3-0.9 2-1.3 0.4-0.2 0.8-0.4 1.3-0.5 0.4-0.1 0.8-0.1 1.2 0.1 0.3 0.1 0.5 0.3 0.6 0.7 0.1 0.2 0 0.5-0.1 0.7s-0.2 0.4-0.4 0.6c-0.3 0.3-0.5 0.6-0.8 0.8-0.8 0.8-1.7 1.6-2.5 2.4-2 2-3.8 4.2-5.4 6.6-1.5 2.2-2.9 4.5-4.1 6.9-0.9 1.9-1.8 3.8-2.6 5.7v0.1c-0.1 0.3-0.3 0.5-0.6 0.5s-0.6-0.1-0.7-0.4c-0.4-0.6-0.7-1.3-1.1-1.9-0.8-1.4-1.7-2.8-2.6-4.1-1.2-1.7-2.7-3.3-4.2-4.7l-0.2-0.2c-0.2-0.2-0.3-0.3-0.2-0.6 0-0.7 0.5-1.3 1.2-1.4 0.4-0.1 0.8-0.1 1.2 0 0.7 0.1 1.4 0.4 2.1 0.6 1.2 0.5 2.3 1 3.4 1.6-0.1 0 0.1 0.1 0.3 0.2z" fill="url(#SVGID_00000057121528494962827870000011059940401166138781_)"/>
  <g transform="translate(44.78 39.6)" fill="#48563d" aria-label="1.">
   <path d="m14.35 0h-10.67v-2.012h4.104v-13.21h-4.104v-1.8q0.834 0 1.787-0.1324 0.9532-0.1456 1.443-0.4104 0.609-0.331 0.9532-0.834 0.3574-0.5163 0.4104-1.377h2.052v17.77h4.025z"/>
   <path d="m23.75 0h-3.164v-3.773h3.164z"/>
  </g>
  <line x1="73.1" x2="116.5" y1="38.1" y2="38.1" fill="none" stroke="#48563d" stroke-linecap="round" stroke-linejoin="round" stroke-miterlimit="10" stroke-width="2"/>
  <g stroke="#48563d" stroke-linecap="round" stroke-linejoin="round" stroke-miterlimit="10">
   <linearGradient id="SVGID_00000163067668259293260140000001068508254422002335_" x1="157" x2="157" y1="163.4" y2="184" gradientTransform="matrix(1,0,0,-1,0,202)" gradientUnits="userSpaceOnUse">
    <stop stop-color="#4F8328" offset="0"/>
    <stop stop-color="#69AE35" offset=".2179"/>
    <stop stop-color="#D4E8C5" offset=".3883"/>
    <stop stop-color="#A5CE86" offset=".5978"/>
    <stop stop-color="#609F31" offset="1"/>
   </linearGradient>
   <path d="m132.9 18h48.2c2.2 0 4 1.8 4 4v12.6c0 2.2-1.8 4-4 4h-48.2c-2.2 0-4-1.8-4-4v-12.6c0-2.2 1.8-4 4-4z" fill="url(#SVGID_00000163067668259293260140000001068508254422002335_)"/>
   <g fill="none" stroke-width=".5">
    <line x1="157.1" x2="157.1" y1="18.1" y2="38.4"/>
    <line x1="171.2" x2="171.2" y1="18.1" y2="38.4"/>
    <line x1="142.9" x2="142.9" y1="18.1" y2="38.4"/>
    <line x1="150" x2="150" y1="17.8" y2="38.1"/>
    <line x1="164.2" x2="164.2" y1="17.8" y2="38.1"/>
    <line x1="135.8" x2="135.8" y1="17.8" y2="38.1"/>
    <line x1="178.3" x2="178.3" y1="18" y2="38.3"/>
   </g>
  </g>
  <path d="m16.8 57.5v14.2c0 2.2 1.7 3.9 3.9 3.9h14.2c2.2 0 3.9-1.7 3.9-3.9v-14.2c0-2.2-1.7-3.9-3.9-3.9h-14.2c-2.2 0-3.9 1.7-3.9 3.9zm17.2 15.3h-12.4c-1.1 0-1.9-0.9-1.9-1.9v-12.6c0-1.1 0.9-1.9 1.9-1.9h12.4c1.1 0 1.9 0.9 1.9 1.9v12.5c0.1 1.1-0.8 2-1.9 2z" fill="#48563d" stroke="#48563d" stroke-linecap="round" stroke-linejoin="round" stroke-miterlimit="10" stroke-width=".5"/>
  <linearGradient id="SVGID_00000076601582126387152320000007743007202200334486_" x1="33.45" x2="33.45" y1="130.5" y2="155.5" gradientTransform="matrix(1,0,0,-1,0,202)" gradientUnits="userSpaceOnUse">
   <stop stop-color="#4F8328" offset="0"/>
   <stop stop-color="#69AE35" offset=".2179"/>
   <stop stop-color="#D4E8C5" offset=".3883"/>
   <stop stop-color="#A5CE86" offset=".5978"/>
   <stop stop-color="#609F31" offset="1"/>
  </linearGradient>
  <path d="m28.9 60.7c1.5-1.8 3-3.5 4.6-5.1 1.4-1.5 2.9-3 4.4-4.5 1-1 2.1-1.9 3.2-2.8 0.6-0.5 1.3-0.9 2-1.3 0.4-0.2 0.8-0.4 1.3-0.5 0.4-0.1 0.8-0.1 1.2 0.1 0.3 0.1 0.5 0.3 0.6 0.7 0.1 0.2 0 0.5-0.1 0.7s-0.2 0.4-0.4 0.6c-0.3 0.3-0.5 0.6-0.8 0.8-0.8 0.8-1.7 1.6-2.5 2.4-2 2-3.8 4.2-5.4 6.6-1.5 2.2-2.9 4.5-4.1 6.9-0.9 1.8-1.8 3.7-2.6 5.7v0.1c-0.1 0.3-0.3 0.5-0.6 0.5s-0.6-0.1-0.7-0.4c-0.4-0.6-0.7-1.3-1.1-1.9-0.8-1.4-1.7-2.8-2.6-4.1-1.2-1.7-2.7-3.3-4.2-4.7l-0.2-0.2c-0.2-0.2-0.3-0.3-0.2-0.6 0-0.7 0.5-1.3 1.2-1.4 0.4-0.1 0.8-0.1 1.2 0 0.7 0.1 1.4 0.4 2.1 0.6 1.2 0.5 2.3 1 3.4 1.6-0.1 0 0.1 0.1 0.3 0.2z" fill="url(#SVGID_00000076601582126387152320000007743007202200334486_)"/>
  <g transform="translate(44.78 74.82)" fill="#48563d" aria-label="2.">
   <path d="m15.48 0h-13.34v-2.767q1.39-1.191 2.78-2.383 1.403-1.191 2.608-2.37 2.542-2.462 3.482-3.905 0.94-1.456 0.94-3.138 0-1.536-1.019-2.396-1.006-0.8738-2.82-0.8738-1.205 0-2.608 0.4236-1.403 0.4236-2.74 1.297h-0.1324v-2.78q0.94-0.4634 2.502-0.8473 1.575-0.3839 3.045-0.3839 3.032 0 4.753 1.47 1.721 1.456 1.721 3.958 0 1.125-0.2913 2.105-0.278 0.9664-0.834 1.84-0.5163 0.8208-1.218 1.615-0.6884 0.7943-1.681 1.761-1.417 1.39-2.926 2.701-1.509 1.297-2.82 2.409h10.6z"/>
   <path d="m23.75 0h-3.164v-3.773h3.164z"/>
  </g>
  <line x1="73.1" x2="116.5" y1="73.3" y2="73.3" fill="none" stroke="#48563d" stroke-linecap="round" stroke-linejoin="round" stroke-miterlimit="10" stroke-width="2"/>
  <g stroke="#48563d" stroke-linecap="round" stroke-linejoin="round" stroke-miterlimit="10">
   <linearGradient id="SVGID_00000181785650376308124290000008248458050724018584_" x1="157" x2="157" y1="128.1" y2="148.7" gradientTransform="matrix(1,0,0,-1,0,202)" gradientUnits="userSpaceOnUse">
    <stop stop-color="#4F8328" offset="0"/>
    <stop stop-color="#69AE35" offset=".2179"/>
    <stop stop-color="#D4E8C5" offset=".3883"/>
    <stop stop-color="#A5CE86" offset=".5978"/>
    <stop stop-color="#609F31" offset="1"/>
   </linearGradient>
   <path d="m132.9 53.3h48.2c2.2 0 4 1.8 4 4v12.6c0 2.2-1.8 4-4 4h-48.2c-2.2 0-4-1.8-4-4v-12.6c0-2.3 1.8-4 4-4z" fill="url(#SVGID_00000181785650376308124290000008248458050724018584_)"/>
   <g fill="none" stroke-width=".5">
    <line x1="157.1" x2="157.1" y1="53.4" y2="73.6"/>
    <line x1="171.2" x2="171.2" y1="53.4" y2="73.6"/>
    <line x1="142.9" x2="142.9" y1="53.4" y2="73.6"/>
    <line x1="150" x2="150" y1="53" y2="73.3"/>
    <line x1="164.2" x2="164.2" y1="53" y2="73.3"/>
    <line x1="135.8" x2="135.8" y1="53" y2="73.3"/>
    <line x1="178.3" x2="178.3" y1="53.2" y2="73.5"/>
   </g>
  </g>
  <path d="m16.8 92.7v14.2c0 2.2 1.7 3.9 3.9 3.9h14.2c2.2 0 3.9-1.7 3.9-3.9v-14.2c0-2.2-1.7-3.9-3.9-3.9h-14.2c-2.2 0-3.9 1.7-3.9 3.9zm17.2 15.3h-12.4c-1.1 0-1.9-0.9-1.9-1.9v-12.6c0-1.1 0.9-1.9 1.9-1.9h12.4c1.1 0 1.9 0.9 1.9 1.9v12.5c0.1 1.1-0.8 2-1.9 2z" fill="#48563d" stroke="#48563d" stroke-linecap="round" stroke-linejoin="round" stroke-miterlimit="10" stroke-width=".5"/>
  <g display="none">
   <linearGradient id="SVGID_00000124874011907898047890000008786426693769886655_" x1="33.45" x2="33.45" y1="95.23" y2="120.3" gradientTransform="matrix(1,0,0,-1,0,202)" gradientUnits="userSpaceOnUse">
    <stop stop-color="#4F8328" offset="0"/>
    <stop stop-color="#69AE35" offset=".2179"/>
    <stop stop-color="#D4E8C5" offset=".3883"/>
    <stop stop-color="#A5CE86" offset=".5978"/>
    <stop stop-color="#609F31" offset="1"/>
   </linearGradient>
   <path d="m28.9 95.9c1.5-1.8 3-3.5 4.6-5.1 1.4-1.5 2.9-3 4.4-4.5 1-1 2.1-1.9 3.2-2.8 0.6-0.5 1.3-0.9 2-1.3 0.4-0.2 0.8-0.4 1.3-0.5 0.4-0.1 0.8-0.1 1.2 0.1 0.3 0.1 0.5 0.3 0.6 0.7 0.1 0.2 0 0.5-0.1 0.7s-0.2 0.4-0.4 0.6c-0.3 0.3-0.5 0.6-0.8 0.8-0.8 0.8-1.7 1.6-2.5 2.4-2 2-3.8 4.2-5.4 6.6-1.5 2.2-2.9 4.5-4.1 6.9-0.9 1.9-1.8 3.8-2.6 5.7v0.1c-0.1 0.3-0.3 0.5-0.6 0.5s-0.6-0.1-0.7-0.4c-0.4-0.6-0.7-1.3-1.1-1.9-0.8-1.4-1.7-2.8-2.6-4.1-1.2-1.7-2.7-3.3-4.2-4.7l-0.2-0.2c-0.2-0.2-0.3-0.3-0.2-0.6 0-0.7 0.5-1.3 1.2-1.4 0.4-0.1 0.8-0.1 1.2 0 0.7 0.1 1.4 0.4 2.1 0.6 1.2 0.5 2.3 1 3.4 1.6-0.1 0 0.1 0.1 0.3 0.2z" display="inline" fill="url(#SVGID_00000124874011907898047890000008786426693769886655_)" stroke="#48563d" stroke-miterlimit="10" stroke-width=".5"/>
  </g>
  <g transform="translate(44.78 110)" fill="#48563d" aria-label="3.">
   <path d="m13.74-9.492q0.6355 0.5693 1.046 1.43 0.4104 0.8605 0.4104 2.224 0 1.35-0.4898 2.476-0.4898 1.125-1.377 1.959-0.9929 0.9267-2.343 1.377-1.337 0.4369-2.939 0.4369-1.642 0-3.23-0.3972-1.589-0.3839-2.608-0.8473v-2.767h0.1986q1.125 0.7414 2.648 1.231 1.522 0.4898 2.939 0.4898 0.834 0 1.774-0.278 0.94-0.278 1.522-0.8208 0.609-0.5825 0.9002-1.284 0.3045-0.7017 0.3045-1.774 0-1.059-0.3442-1.748-0.331-0.7017-0.9267-1.099-0.5957-0.4104-1.443-0.556-0.8473-0.1589-1.827-0.1589h-1.191v-2.198h0.9267q2.012 0 3.204-0.834 1.205-0.8473 1.205-2.462 0-0.7149-0.3045-1.244-0.3045-0.5428-0.8473-0.887-0.5693-0.3442-1.218-0.4766-0.6487-0.1324-1.47-0.1324-1.258 0-2.674 0.4501t-2.674 1.271h-0.1324v-2.767q0.94-0.4634 2.502-0.8473 1.575-0.3972 3.045-0.3972 1.443 0 2.542 0.2648 1.099 0.2648 1.986 0.8473 0.9532 0.6355 1.443 1.536 0.4898 0.9002 0.4898 2.105 0 1.642-1.165 2.873-1.152 1.218-2.727 1.536v0.1853q0.6355 0.1059 1.456 0.4501 0.8208 0.331 1.39 0.834z"/>
   <path d="m23.75 0h-3.164v-3.773h3.164z"/>
  </g>
  <line x1="73.1" x2="116.5" y1="108.6" y2="108.6" fill="none" stroke="#48563d" stroke-linecap="round" stroke-linejoin="round" stroke-miterlimit="10" stroke-width="2"/>
  <linearGradient id="SVGID_00000096745507177644420870000013630473621588574098_" x1="157" x2="157" y1="92.92" y2="113.5" gradientTransform="matrix(1,0,0,-1,0,202)" gradientUnits="userSpaceOnUse">
   <stop stop-color="#4F8328" offset="0"/>
   <stop stop-color="#69AE35" offset=".2179"/>
   <stop stop-color="#D4E8C5" offset=".3883"/>
   <stop stop-color="#A5CE86" offset=".5978"/>
   <stop stop-color="#609F31" offset="1"/>
  </linearGradient>
  <path d="m132.9 88.5h48.2c2.2 0 4 1.8 4 4v12.6c0 2.2-1.8 4-4 4h-48.2c-2.2 0-4-1.8-4-4v-12.6c0-2.2 1.8-4 4-4z" fill="url(#SVGID_00000096745507177644420870000013630473621588574098_)" stroke="#48563d" stroke-linecap="round" stroke-linejoin="round" stroke-miterlimit="10"/>
  <path d="m150 88.2 31.2 0.2c2.2 0 4 1.8 4 4v12.6c0 2.2-1.8 4-4 4h-31.2z" fill="#d8e1d2"/>
  <g fill="none" stroke="#48563d" stroke-linecap="round" stroke-linejoin="round" stroke-miterlimit="10">
   <path d="m132.9 88.5h48.2c2.2 0 4 1.8 4 4v12.6c0 2.2-1.8 4-4 4h-48.2c-2.2 0-4-1.8-4-4v-12.6c0-2.2 1.8-4 4-4z"/>
   <g stroke-width=".5">
    <line x1="157.1" x2="157.1" y1="88.6" y2="108.8"/>
    <line x1="171.2" x2="171.2" y1="88.6" y2="108.8"/>
    <line x1="142.9" x2="142.9" y1="88.6" y2="108.8"/>
    <line x1="150" x2="150" y1="88.2" y2="108.5"/>
    <line x1="164.2" x2="164.2" y1="88.2" y2="108.5"/>
    <line x1="135.8" x2="135.8" y1="88.2" y2="108.5"/>
    <line x1="178.3" x2="178.3" y1="88.5" y2="108.7"/>
   </g>
  </g>
  <path d="m16.8 127.9v14.2c0 2.2 1.7 3.9 3.9 3.9h14.2c2.2 0 3.9-1.7 3.9-3.9v-14.2c0-2.2-1.7-3.9-3.9-3.9h-14.2c-2.2 0-3.9 1.8-3.9 3.9zm17.2 15.3h-12.4c-1.1 0-1.9-0.9-1.9-1.9v-12.5c0-1.1 0.9-1.9 1.9-1.9h12.4c1.1 0 1.9 0.9 1.9 1.9v12.5c0.1 1-0.8 1.9-1.9 1.9z" fill="#48563d" stroke="#48563d" stroke-linecap="round" stroke-linejoin="round" stroke-miterlimit="10" stroke-width=".5"/>
  <g display="none">
   <linearGradient id="SVGID_00000065055273212425423030000004323009879436197040_" x1="33.45" x2="33.45" y1="60" y2="85.06" gradientTransform="matrix(1,0,0,-1,0,202)" gradientUnits="userSpaceOnUse">
    <stop stop-color="#4F8328" offset="0"/>
    <stop stop-color="#69AE35" offset=".2179"/>
    <stop stop-color="#D4E8C5" offset=".3883"/>
    <stop stop-color="#A5CE86" offset=".5978"/>
    <stop stop-color="#609F31" offset="1"/>
   </linearGradient>
   <path d="m28.9 131.1c1.5-1.8 3-3.5 4.6-5.1 1.4-1.5 2.9-3 4.4-4.5 1-1 2.1-1.9 3.2-2.8 0.6-0.5 1.3-0.9 2-1.3 0.4-0.2 0.8-0.4 1.3-0.5 0.4-0.1 0.8-0.1 1.2 0.1 0.3 0.1 0.5 0.3 0.6 0.7 0.1 0.2 0 0.5-0.1 0.7s-0.2 0.4-0.4 0.6c-0.3 0.3-0.5 0.6-0.8 0.8-0.8 0.8-1.7 1.6-2.5 2.4-2 2-3.8 4.2-5.4 6.6-1.5 2.2-2.9 4.5-4.1 6.9-0.9 1.9-1.8 3.8-2.6 5.7v0.1c-0.1 0.3-0.3 0.5-0.6 0.5s-0.6-0.1-0.7-0.4c-0.4-0.6-0.7-1.3-1.1-1.9-0.8-1.4-1.7-2.8-2.6-4.1-1.2-1.7-2.7-3.3-4.2-4.7l-0.2-0.2c-0.2-0.2-0.3-0.3-0.2-0.6 0-0.7 0.5-1.3 1.2-1.4 0.4-0.1 0.8-0.1 1.2 0 0.7 0.1 1.4 0.4 2.1 0.6 1.2 0.5 2.3 1 3.4 1.6-0.1 0.1 0.1 0.2 0.3 0.2z" display="inline" fill="url(#SVGID_00000065055273212425423030000004323009879436197040_)" stroke="#48563d" stroke-miterlimit="10" stroke-width=".5"/>
  </g>
  <g transform="translate(44.78 145.3)" fill="#48563d" aria-label="4.">
   <path d="m15.93-5.547h-2.926v5.547h-2.542v-5.547h-9.439v-3.045l9.545-11.12h2.436v12.05h2.926zm-5.468-2.118v-8.896l-7.639 8.896z"/>
   <path d="m23.75 0h-3.164v-3.773h3.164z"/>
  </g>
  <line x1="73.1" x2="116.5" y1="143.8" y2="143.8" fill="none" stroke="#48563d" stroke-linecap="round" stroke-linejoin="round" stroke-miterlimit="10" stroke-width="2"/>
  <g stroke="#48563d" stroke-linecap="round" stroke-linejoin="round" stroke-miterlimit="10">
   <path d="m132.9 123.7h48.2c2.2 0 4 1.8 4 4v12.6c0 2.2-1.8 4-4 4h-48.2c-2.2 0-4-1.8-4-4v-12.6c0-2.2 1.8-4 4-4z" fill="#d8e1d2"/>
   <g fill="none" stroke-width=".5">
    <line x1="157.1" x2="157.1" y1="123.8" y2="144"/>
    <line x1="171.2" x2="171.2" y1="123.8" y2="144"/>
    <line x1="142.9" x2="142.9" y1="123.8" y2="144"/>
    <line x1="150" x2="150" y1="123.5" y2="143.7"/>
    <line x1="164.2" x2="164.2" y1="123.5" y2="143.7"/>
    <line x1="135.8" x2="135.8" y1="123.5" y2="143.7"/>
    <line x1="178.3" x2="178.3" y1="123.7" y2="143.9"/>
   </g>
  </g>
  <path d="m16.8 163.1v14.2c0 2.2 1.7 3.9 3.9 3.9h14.2c2.2 0 3.9-1.7 3.9-3.9v-14.2c0-2.2-1.7-3.9-3.9-3.9h-14.2c-2.2 0-3.9 1.8-3.9 3.9zm17.2 15.3h-12.4c-1.1 0-1.9-0.9-1.9-1.9v-12.5c0-1.1 0.9-1.9 1.9-1.9h12.4c1.1 0 1.9 0.9 1.9 1.9v12.5c0.1 1-0.8 1.9-1.9 1.9z" fill="#48563d" stroke="#48563d" stroke-linecap="round" stroke-linejoin="round" stroke-miterlimit="10" stroke-width=".5"/>
  <g display="none">
   <linearGradient id="SVGID_00000142886924280590307970000015375895017086072465_" x1="33.45" x2="33.45" y1="24.79" y2="49.85" gradientTransform="matrix(1,0,0,-1,0,202)" gradientUnits="userSpaceOnUse">
    <stop stop-color="#4F8328" offset="0"/>
    <stop stop-color="#69AE35" offset=".2179"/>
    <stop stop-color="#D4E8C5" offset=".3883"/>
    <stop stop-color="#A5CE86" offset=".5978"/>
    <stop stop-color="#609F31" offset="1"/>
   </linearGradient>
   <path d="m28.9 166.4v0c1.5-1.8 3-3.5 4.6-5.1 1.4-1.5 2.9-3 4.4-4.5 1-1 2.1-1.9 3.2-2.8 0.6-0.5 1.3-0.9 2-1.3 0.4-0.2 0.8-0.4 1.3-0.5 0.4-0.1 0.8-0.1 1.2 0.1 0.3 0.1 0.5 0.3 0.6 0.7 0.1 0.2 0 0.5-0.1 0.7s-0.2 0.4-0.4 0.6c-0.3 0.3-0.5 0.6-0.8 0.8-0.8 0.8-1.7 1.6-2.5 2.4-2 2-3.8 4.2-5.4 6.6-1.5 2.2-2.9 4.5-4.1 6.9-0.9 1.9-1.8 3.8-2.6 5.7v0.1c-0.1 0.3-0.3 0.5-0.6 0.5s-0.6-0.1-0.7-0.4c-0.4-0.6-0.7-1.3-1.1-1.9-0.8-1.4-1.7-2.8-2.6-4.1-1.2-1.7-2.7-3.3-4.2-4.7l-0.2-0.2c-0.2-0.2-0.3-0.3-0.2-0.6 0-0.7 0.5-1.3 1.2-1.4 0.4-0.1 0.8-0.1 1.2 0 0.7 0.1 1.4 0.4 2.1 0.6 1.2 0.5 2.3 1 3.4 1.6-0.1 0 0.1 0.1 0.3 0.2z" display="inline" fill="url(#SVGID_00000142886924280590307970000015375895017086072465_)" stroke="#48563d" stroke-miterlimit="10" stroke-width=".5"/>
  </g>
  <g transform="translate(44.78 180.5)" fill="#48563d" aria-label="5.">
   <path d="m15.32-6.262q0 1.377-0.5031 2.635-0.5031 1.258-1.377 2.118-0.9532 0.9267-2.277 1.43-1.311 0.4898-3.045 0.4898-1.615 0-3.111-0.3442-1.496-0.331-2.529-0.8076v-2.793h0.1853q1.086 0.6884 2.542 1.178 1.456 0.4766 2.86 0.4766 0.94 0 1.814-0.2648 0.887-0.2648 1.575-0.9267 0.5825-0.5693 0.8738-1.364 0.3045-0.7943 0.3045-1.84 0-1.019-0.3574-1.721-0.3442-0.7017-0.9664-1.125-0.6884-0.5031-1.681-0.7017-0.9797-0.2118-2.198-0.2118-1.165 0-2.251 0.1589-1.072 0.1589-1.853 0.3177v-10.15h11.86v2.317h-9.307v5.243q0.5693-0.05296 1.165-0.07943 0.5957-0.02648 1.033-0.02648 1.602 0 2.807 0.278 1.205 0.2648 2.211 0.9532 1.059 0.7281 1.642 1.88 0.5825 1.152 0.5825 2.886z"/>
   <path d="m23.75 0h-3.164v-3.773h3.164z"/>
  </g>
  <line x1="73.1" x2="116.5" y1="179" y2="179" fill="none" stroke="#48563d" stroke-linecap="round" stroke-linejoin="round" stroke-miterlimit="10" stroke-width="2"/>
  <g stroke="#48563d" stroke-linecap="round" stroke-linejoin="round" stroke-miterlimit="10">
   <path d="m132.9 158.9h48.2c2.2 0 4 1.8 4 4v12.6c0 2.2-1.8 4-4 4h-48.2c-2.2 0-4-1.8-4-4v-12.6c0-2.2 1.8-4 4-4z" fill="#d8e1d2"/>
   <g fill="none" stroke-width=".5">
    <line x1="157.1" x2="157.1" y1="159" y2="179.3"/>
    <line x1="171.2" x2="171.2" y1="159" y2="179.3"/>
    <line x1="142.9" x2="142.9" y1="159" y2="179.3"/>
    <line x1="150" x2="150" y1="158.7" y2="178.9"/>
    <line x1="164.2" x2="164.2" y1="158.7" y2="178.9"/>
    <line x1="135.8" x2="135.8" y1="158.7" y2="178.9"/>
    <line x1="178.3" x2="178.3" y1="158.9" y2="179.2"/>
   </g>
  </g>
 </g>
</svg>
