<svg width="200" height="200" version="1.1" viewBox="1 0 33 42" xmlns="http://www.w3.org/2000/svg">
 <g transform="matrix(.21 0 0 .21 -3.92 .5477)">
  <g opacity=".7">
   <g opacity=".74">
    <radialGradient id="SVGID_1_" cx="96.83" cy="102.2" r="64.72" gradientTransform="matrix(1,0,0,-1,0,202)" gradientUnits="userSpaceOnUse">
     <stop stop-color="#EEF5E8" offset=".5475"/>
     <stop stop-color="#DBE5D3" offset=".8575"/>
     <stop stop-color="#C6D3BB" offset="1"/>
    </radialGradient>
    <path d="m85.9 38.9c30.11-6.417 63.64 13.57 71.19 43.64 3.209 13.48 4.455 27.75 1.562 41.4-2.983 14.37-13.48 26.62-27.08 32.03-15.07 6.112-31.89 10.5-48.07 6.329-21.29-5.015-39.16-22.2-44.84-43.36-3.197-13.01-4.418-26.65-3.09-40.01 1.178-11.75 7.3-23.13 17.6-29.28 9.921-6.09 21.51-8.347 32.73-10.76zm4.9 25.4c-8.905 2.009-18.57 1.59-26.86 5.795-6.472 4.215-5.423 13.09-4.601 19.72 2.149 12.19 5.754 25.03 15.24 33.66 8.793 8.745 22.09 12.09 34.05 8.999 8.371-1.748 18.94-3.538 22.57-12.49 3.275-9.83 2.485-20.53 1.018-30.64-2.858-15.89-19.22-27.03-35.01-25.76-2.149 0.07828-4.293 0.317-6.406 0.7135z" fill="url(#SVGID_1_)"/>
    <radialGradient id="SVGID_00000024700158408481543740000008544683294541665425_" cx="98.79" cy="103.3" r="33.12" gradientTransform="matrix(1 0 0 -.9869 0 198.1)" gradientUnits="userSpaceOnUse">
     <stop stop-color="#EEF5E8" offset=".5475"/>
     <stop stop-color="#DBE5D3" offset=".8575"/>
     <stop stop-color="#C6D3BB" offset="1"/>
    </radialGradient>
    <path d="m89.3 62.9c1.5-0.3 3.2-0.5 4.7-0.6h2.1c0.7 0 1.4 0.1 2 0.2l1.8 0.3c0.6 0.1 1.2 0.2 1.7 0.4 1 0.3 2.2 0.6 3.1 1 3.9 1.5 7 3.3 9.8 5.4s5.3 4.4 7.6 7.1 4.4 5.7 6.2 9.7l0.6 1.5c0.2 0.5 0.4 1.1 0.6 1.7s0.3 1.2 0.5 1.7c0.2 0.6 0.2 1.1 0.3 1.6 0.2 1 0.4 2.1 0.4 3.1l0.1 1.6v1.6c0 4.3-0.9 8.6-2.6 12.7-1.8 4.1-4.5 8-8.1 11.1s-8.2 5.4-13 6.4-9.3 0.7-13.3-0.2-7.7-2.5-11.1-4.6-6.5-4.7-9.1-8.1c-1.3-1.7-2.5-3.5-3.5-5.5-0.5-1-0.9-2.1-1.4-3.1-0.2-0.6-0.4-1-0.5-1.5l-0.4-1.4c-2.1-7.7-1.7-15.7 1.1-23.2 1.4-3.7 3.5-7.4 6.7-10.9 0.7-0.9 1.7-1.7 2.6-2.5s2-1.6 3.1-2.3c0.5-0.4 1.1-0.7 1.8-1 0.6-0.3 1.3-0.6 1.9-0.9 1.4-0.5 2.9-0.9 4.3-1.3zm6.8 29.4c0.3 0 0.6-0.2 0.8-0.2 0.1 0 0.2-0.1 0.3-0.1 0.1-0.1 0.2-0.1 0.2-0.1 0.1 0 0.2-0.2 0.3-0.2s0.1-0.1 0.1-0.1l-0.1 0.1c0 0.1-0.1 0.1-0.1 0.2-0.1 0.1-0.1 0.2-0.2 0.3 0 0.1-0.2 0.2-0.2 0.4-0.2 0.6-0.4 1.4-0.5 2.2 0 0.8 0.1 1.5 0.2 2.2 0 0.1 0.1 0.2 0.1 0.2v0.2 0.1c0 0.1 0.1 0.2 0.3 0.4 0.3 0.3 0.8 0.8 1.4 1.2s1.3 0.7 1.8 0.8 0.8 0.1 0.6 0.1c-0.2 0.1-0.5 0.2-0.5 0.3-0.1 0.1 0 0 0.1-0.2s0.2-0.5 0.1-0.9v-0.1-0.2c0-0.1 0-0.2-0.1-0.3v-0.1 0.1l-0.1-0.1c-0.1-0.3-0.7-1.2-1.4-2.1-0.8-0.9-1.7-1.7-2.7-2.4-0.9-0.7-1.9-1.2-2.4-1.4-0.1 0-0.1 0-0.2-0.1-0.1 0 0 0 0 0h0.1 0.3 0.3 0.3 0.3c0.5-0.1 0.7-0.2 0.9-0.2z" fill="url(#SVGID_00000024700158408481543740000008544683294541665425_)"/>
    <radialGradient id="SVGID_00000060742673329814506020000016849225586494061195_" cx="100" cy="102" r="94.53" gradientTransform="matrix(1,0,0,-1,0,202)" gradientUnits="userSpaceOnUse">
     <stop stop-color="#EEF5E8" offset=".5475"/>
     <stop stop-color="#DBE5D3" offset=".8575"/>
     <stop stop-color="#C6D3BB" offset="1"/>
    </radialGradient>
    <path d="m104.5 11.6c25.3-1.525 49.89 11.01 65.96 30.15 24.28 27.1 32.58 68.97 15.98 102.1-12.87 27.2-42.07 45.05-72.03 45.17-17.14 0.0388-34.24-3.332-50.56-8.428-15.48-5.095-30.07-15.06-37.14-30.16-14-28.12-20.65-60.92-13.54-91.92 4.034-18.38 18.88-32.91 36.56-38.54 17.54-6.212 36.35-7.302 54.76-8.335zm1.1 24.3c-20.04 1.393-41.69 1.852-59.14 13.02-12.88 9.649-13.62 27.34-15.26 41.98-0.6369 20 2.727 41.25 14.3 58 10.44 13.33 29.19 15.19 44.95 15.31 20.94 0.98 43.14-5.666 56.93-22.16 21.53-25.3 21.18-67.58-3.08-90.98-10.37-9.733-24.33-15.86-38.7-15.16z" fill="url(#SVGID_00000060742673329814506020000016849225586494061195_)"/>
   </g>
  </g>
  <g transform="matrix(.1 0 0 -.1 0 1280)" fill="#a6cf86">
   <path d="m482.8 12341c-35.7-7.6-69.6-19.5-101.6-35.7-6.8-3.5-14-7.3-16-8.5l-3.6-2.2 0.2-4.7c0.1-2.5 1.6-18.1 3.4-34.5s3.5-32.2 3.7-35l0.5-5.2-9.8-7.3c-20.3-15.1-44.3-37.3-58.5-53.9-2.8-3.3-5.4-6-5.8-6s-17.9 3.4-38.9 7.6-38.4 7.4-38.8 7.1c-1.2-0.7-12.3-18.1-18.3-28.5-10.6-18.5-22.1-42.6-29.6-62.2-3.7-9.9-10.8-31.8-11.4-35.2l-0.4-2.8 30.7-24.7c16.9-13.5 30.7-24.9 30.7-25.3s-0.8-6.3-1.8-13.2c-0.9-6.9-2.2-16.7-2.6-22-0.9-9.9-1.3-40-0.7-55.6l0.4-9-65.6-43.8 0.2-2.9c0.3-4.3 4.9-24.3 8.2-36.2 6-21.1 13.5-41.4 23-62.1 5.1-11 15.1-29.9 16.6-31.6 0.8-0.8 2.6-0.8 11.8 0.2 41.2 4.6 64 7 65.7 7s3.1-1.5 10.4-11.1c15.6-20.6 35.2-41.9 52.1-56.3 3.6-3.1 6.7-6.1 6.7-6.5s-3.4-18-7.6-39c-4.1-21-7.4-38.5-7.1-38.9 0.7-1.2 18.3-12.5 29.3-18.7 14.4-8.3 38.7-19.9 54.1-26.1 13.2-5.3 38.2-13.7 42.8-14.4l2.6-0.4 24.6 30.7c13.6 16.9 25 30.7 25.3 30.7 0.4 0 6.3-0.8 13.2-1.8 6.9-0.9 16.8-2.2 22-2.7 10.6-1 47.4-1.2 57.7-0.4l6.7 0.6 21.8-32.8c12-18 22.1-32.9 22.6-33.1 0.9-0.6 22.9 4 34.9 7.3 28.8 7.8 59.3 19.9 85.3 33.8 14.5 7.7 13.4 6.7 12.8 12.3-0.3 2.6-1.9 17.9-3.6 33.9s-3.4 31.6-3.7 34.7l-0.4 5.5 8.2 6.2c23.5 17.5 43.5 36.1 62 57.3l3.4 4 37.3-7.4c20.5-4.1 38.2-7.5 39.1-7.6 1.5-0.1 2.5 0.8 5.8 5.7 13.2 19 30.7 52.5 40.6 77.5 6 15.3 13.7 37.9 14.5 42.8l0.4 2.8-29 23.4c-15.9 12.8-29.8 24-30.7 24.8l-1.7 1.4 1.9 13c1 7.2 2.3 17.4 2.7 22.6 0.9 9.9 1.3 40.2 0.7 55.6l-0.4 9 65.6 43.8-0.2 2.9c-0.3 4.3-4.9 24.3-8.2 36.2-6 21.4-13.5 41.6-23.4 62.8-5.2 11.4-14.6 29.1-16.2 30.9-0.8 0.8-6.8 0.3-38.7-3.1-20.7-2.3-38.4-4.1-39.3-4.1-1.2 0-3.5 2.5-9 9.9-15.4 20.6-37.2 44.2-53.7 58.2-3.3 2.8-6 5.5-6 5.8 0 0.4 3.4 18 7.6 39 4.1 21 7.4 38.4 7.1 38.8-0.7 1.1-17.8 12.1-27.9 18-17.5 10.2-43.2 22.4-62.9 29.9-10 3.7-31.8 10.8-35.2 11.4l-2.8 0.4-24.7-30.7c-13.8-17.3-25.1-30.7-25.8-30.7s-4.1 0.5-7.7 1.1c-21.4 3.6-45.6 5.1-68.1 4.4-9.4-0.3-18.6-0.6-20.3-0.7l-3.2-0.1-21.9 32.8c-12.1 18.1-22.4 32.8-23 32.9-0.8 0-5.7-0.9-11.1-2zm114.7-207.2c83.7-9.8 153.7-66.2 180.7-145.6 7.6-22.5 11.1-44.4 11.1-69.5 0-34.9-6.9-64.7-22.2-95.7-9.7-19.8-22.7-38.4-37.9-54.2-35-36.5-81.1-59.3-132.1-65.2-11.8-1.4-36.3-1.4-48.1 0-75 8.7-138.6 54-171.2 121.6-14.3 29.7-21 59.8-21 93.6 0 35.2 7.3 66.3 22.6 97 32.8 65.2 95.7 109.2 168.8 118.1 11.1 1.2 37.8 1.2 49.3-0.1z" fill="#a6cf86" stroke="#48563d" stroke-miterlimit="10" stroke-width=".2"/>
  </g>
  <g transform="matrix(.1 0 0 -.1 0 1280)">
   <path d="m744.8 12077c-43-9.1-83.7-23.5-122.1-43-8.1-4.2-16.8-8.8-19.3-10.2l-4.4-2.6 0.3-5.6c0.1-3.1 1.9-21.7 4.1-41.5 2.2-19.7 4.2-38.7 4.5-42.1l0.6-6.2-11.7-8.8c-24.4-18.2-53.3-44.8-70.4-64.9-3.3-3.9-6.5-7.2-7-7.2s-21.5 4.1-46.7 9.2c-25.2 5-46.2 8.9-46.6 8.6-1.5-0.9-14.8-21.7-22.1-34.3-12.8-22.2-26.5-51.2-35.5-74.8-4.5-11.9-13-38.2-13.7-42.4l-0.5-3.3 36.8-29.7c20.3-16.3 36.8-29.9 36.8-30.4s-1-7.6-2.2-15.8c-1.1-8.3-2.6-20.1-3.2-26.4-1.1-11.9-1.6-48.1-0.8-66.9l0.4-10.9-78.8-52.6 0.3-3.5c0.4-5.2 5.9-29.2 9.9-43.5 7.2-25.4 16.2-49.8 27.7-74.7 6.1-13.2 18.1-36 20-38 1-1 3.2-1 14.2 0.3 49.5 5.5 76.9 8.4 79 8.4s3.8-1.8 12.5-13.3c18.7-24.8 42.4-50.3 62.6-67.7 4.4-3.8 8.1-7.4 8.1-7.8 0-0.5-4.1-21.6-9.2-46.8-5-25.3-8.8-46.3-8.6-46.7 0.9-1.4 22.1-15 35.2-22.5 17.3-10 46.5-24 65-31.3 15.8-6.4 45.9-16.5 51.5-17.3l3.2-0.5 29.6 36.8c16.4 20.3 30 36.8 30.5 36.8 0.4 0 7.6-1 15.8-2.2 8.3-1.1 20.2-2.6 26.4-3.2 12.8-1.2 57-1.5 69.3-0.4l8.1 0.7 26.3-39.4c14.4-21.6 26.6-39.6 27.1-39.8 1.1-0.7 27.6 4.8 41.9 8.8 34.7 9.4 71.3 23.9 102.5 40.6 17.4 9.3 16.1 8.1 15.4 14.8-0.4 3.2-2.3 21.5-4.4 40.8s-4.1 38-4.5 41.7l-0.5 6.7 9.9 7.4c28.3 21.1 52.3 43.4 74.5 68.9l4.1 4.8 44.9-8.9c24.7-4.9 45.9-9 47-9.2 1.8-0.2 3 1 7 6.8 15.8 22.8 36.9 63.1 48.8 93.2 7.3 18.4 16.5 45.5 17.4 51.5l0.5 3.3-34.9 28.1c-19.2 15.4-35.8 28.8-36.9 29.8l-2 1.7 2.3 15.7c1.2 8.7 2.7 20.9 3.2 27.1 1.1 11.9 1.6 48.3 0.8 66.9l-0.4 10.9 78.8 52.6-0.3 3.5c-0.4 5.2-5.9 29.2-9.9 43.5-7.3 25.7-16.3 50-28.1 75.5-6.3 13.7-17.6 35-19.5 37.1-1 1-8.2 0.4-46.6-3.8-24.9-2.7-46.2-4.9-47.3-4.9-1.4 0-4.2 3.1-10.9 11.9-18.6 24.8-44.7 53.1-64.5 69.9-3.9 3.3-7.2 6.6-7.2 7 0 0.5 4.1 21.6 9.2 46.8 5 25.2 8.8 46.2 8.6 46.6-0.8 1.3-21.4 14.5-33.5 21.6-21.1 12.3-52 26.9-75.6 35.9-12 4.5-38.2 13-42.4 13.7l-3.3 0.5-29.7-36.8c-16.6-20.7-30.2-36.8-31-36.8s-4.9 0.6-9.3 1.3c-25.7 4.3-54.8 6.1-81.8 5.3-11.3-0.4-22.3-0.7-24.4-0.8l-3.9-0.1-26.3 39.4c-14.5 21.7-27 39.5-27.7 39.6-0.5-0.2-6.5-1.2-13-2.5zm137.9-249.1c100.7-11.8 184.8-79.6 217.2-175 9.2-27 13.4-53.4 13.4-83.6 0-41.9-8.3-77.7-26.7-115.1-11.6-23.8-27.3-46.1-45.5-65.1-42.1-43.8-97.5-71.2-158.9-78.4-14.2-1.7-43.6-1.7-57.8 0-90.1 10.5-166.6 64.9-205.8 146.2-17.2 35.7-25.3 71.9-25.3 112.5 0 42.4 8.8 79.7 27.2 116.7 39.4 78.4 115 131.3 203 142 13.3 1.4 45.3 1.4 59.2-0.2z" fill="#83bc56" stroke="#48563d" stroke-miterlimit="10" stroke-width=".1"/>
  </g>
  <path d="m120.4 18" fill="#aec0a1" stroke="#48563d" stroke-miterlimit="10" stroke-width=".5"/>
  <g fill="none" stroke="#aec0a1" stroke-dasharray="5" stroke-linecap="round" stroke-miterlimit="10" stroke-width="2">
   <line x1="136.2" x2="163.5" y1="97" y2="84.6"/>
   <line x1="116.6" x2="137.5" y1="73.9" y2="52.4"/>
   <line x1="99.8" x2="108" y1="66.7" y2="37.9"/>
   <line x1="133.8" x2="163.8" y1="120.5" y2="121.5"/>
   <line x1="117.6" x2="145.8" y1="160.7" y2="170.8"/>
  </g>
  <path d="m100.3 36.8c-1.995 0.08226-3.782-1.705-3.7-3.7 0.012-3.99-0.0242-7.981 0.01846-11.97 0.1534-1.988 2.112-3.508 4.065-3.33 5.338 0.0077 10.68-0.01543 16.01 0.01162 1.702 0.09055 3.192 1.56 3.33 3.242 0.1638 0.4992 0.0291 1.069 0.073 1.597-8e-3 3.7 0.0167 7.401-0.0125 11.1-0.3317 1.149-1.065 2.249-2.212 2.72-1.241 0.5294-2.612 0.2663-3.921 0.3302h-13.65zm8-12.7c-1.558-0.1108-2.677 1.974-1.659 3.197 0.5563 0.3992 0.8912 0.8642 0.7592 1.568 0.0341 0.7274-0.0751 1.473 0.0703 2.187 0.3465 0.942 1.841 0.5753 1.73-0.412 0.0118-0.829-0.0241-1.661 0.0187-2.488 0.7488-0.6549 1.554-1.679 0.9812-2.752-0.2729-0.7921-1.065-1.324-1.9-1.3z" fill="#86a072"/>
  <path d="m100.3 17.2c-0.5565-0.2158-0.2002-0.9975-0.2916-1.467 0.0161-2.121 0.3913-4.325 1.636-6.093 1.415-2.101 3.922-3.471 6.473-3.34 0.6482 0.01557 1.311-0.0664 1.933 0.1498 2.243 0.4286 4.266 1.866 5.353 3.883 0.8854 1.588 1.266 3.43 1.196 5.24-0.0219 0.4683 0.0475 0.9574-0.0422 1.41-0.3308 0.2133-0.7546 0.08029-1.132 0.1172-0.8378-0.01254-1.681 0.02506-2.515-0.01875-0.3461-0.1878-0.166-0.6345-0.2109-0.9564 6.6e-4 -0.9844 0.0533-1.984-0.25-2.937-0.3922-1.358-1.456-2.642-2.92-2.846-0.679-0.07648-1.364-0.2277-2.043-0.04845-1.453 0.1859-2.601 1.378-2.993 2.751-0.3117 0.9035-0.4367 1.857-0.3938 2.809-0.0193 0.3418 0.0444 0.7029-0.0422 1.03-0.3308 0.2133-0.7546 0.08029-1.132 0.1172h-2.626v0.2z" fill="#86a072"/>
  <path d="m141 47.5c-0.5839-0.3739-1.003-1.035-1.519-1.526-1.694-1.804-3.351-3.675-5.068-5.437 7e-3 -0.7231 0.9352-0.3426 1.408-0.4375h2.479c0.0249-5.683 3.567-11.15 8.732-13.52 2.486-1.28 5.343-1.645 8.102-1.438 2.985 0.4245 5.916 1.554 8.21 3.556 0.2972 0.3673 1.36 0.8643 0.6973 1.36-1.103 1.095-2.191 2.208-3.304 3.291-1.165-0.49-2.205-1.818-3.575-2.212-3.884-1.687-8.699-0.3983-11.36 2.85-1.426 1.697-2.286 3.889-2.3 6.112h3.7c0.5727 0.2766-0.1934 0.7677-0.4094 1.058-1.897 2.047-3.794 4.095-5.691 6.142 0.0925 0.06587 0.014 0.2218-0.1 0.2z" fill="#86a072"/>
  <path d="m153.4 55.6c-3.975-0.02405-7.987-1.624-10.76-4.491 4e-3 -0.5087 0.6206-0.7648 0.9012-1.154 0.8746-0.8661 1.733-1.75 2.618-2.605 1.134 0.463 2.149 1.75 3.475 2.138 3.133 1.387 6.989 0.991 9.695-1.143 2.521-1.729 3.986-4.716 4.068-7.744h-3.7c-0.5726-0.2764 0.1931-0.7674 0.409-1.057 1.913-2.078 3.866-4.146 5.753-6.23 0.5199 0.01274 0.7609 0.6616 1.15 0.964 1.829 1.974 3.659 3.949 5.488 5.923 0.1798 0.755-0.8565 0.4336-1.32 0.5h-2.48c-0.0237 6.028-3.985 11.86-9.659 13.96-1.787 0.7553-3.722 0.9168-5.641 0.9406z" fill="#86a072"/>
  <path d="m176.3 93.2c-5.752 0.08101-11.31-3.451-13.74-8.66-2.407-4.962-1.891-11.23 1.497-15.62 2.644-3.505 6.85-5.821 11.24-6.084 1.789-0.1417 3.596 0.1065 5.323 0.5753 5.908 1.692 10.4 7.295 10.83 13.42 0.6144 6.783-4.055 13.58-10.54 15.59-1.487 0.4717-3.054 0.7349-4.608 0.7882zm-2.8-13.2c-2.769-0.1274-5.265 2.73-4.6 5.45 0.8148 1.3 2.343 1.99 3.7 2.618 3.716 1.512 8.226 0.6322 11.15-2.093 1.035-1.372 0.213-3.277-0.7704-4.438-1.072-1.305-2.807-1.652-4.412-1.537h-5.068v0zm2.9-12.3c-2.872-0.1013-5.279 2.856-4.605 5.648 0.4807 2.822 3.839 4.581 6.436 3.383 2.725-1.039 3.796-4.834 1.932-7.104-0.8767-1.166-2.294-1.933-3.763-1.927v0z" fill="#86a072"/>
  <path d="m181.8 127.3c-1.979 0.0257-3.98-0.9-5.183-2.475-0.7162-1.143 0.4962-2.716 1.781-2.391 0.9041 0.2046 1.41 1.117 2.318 1.341 1.362 0.5458 3.022 0.099 3.946-1.038 1.21-1.179 2.458-2.316 3.632-3.532 0.9078-0.9437 1.895-1.816 2.742-2.814 1.147-1.467 1.002-3.744-0.3796-5.01-1.386-1.405-3.897-1.458-5.257 0.019-1.785 1.777-3.553 3.571-5.35 5.336-0.9208 0.8434-2.529 0.1135-2.678-1.061-0.1664-0.9073 0.5539-1.516 1.13-2.077 1.639-1.623 3.246-3.28 4.906-4.881 1.178-1.038 2.725-1.541 4.257-1.717 0.7324-8e-3 1.468-0.0343 2.165 0.2254 2.13 0.5034 3.971 2.072 4.718 4.142 0.9106 2.203 0.6591 4.874-0.8241 6.771-1.705 2.081-3.764 3.838-5.632 5.769-1.228 1.227-2.438 2.619-4.19 3.068-0.6836 0.2049-1.401 0.2265-2.103 0.3245z" fill="#86a072"/>
  <path d="m170.7 137.9c-3.399 0.075-6.579-2.803-6.812-6.2-0.1796-0.498-0.0475-1.069-0.0875-1.6 0.2573-1.72 1.067-3.393 2.373-4.573 2.087-2.07 4.139-4.175 6.249-6.221 2.426-2.199 6.437-2.28 8.944-0.1656 0.9241 0.5 1.469 1.772 0.6576 2.625-0.6492 0.8853-2.025 0.7866-2.648-0.0765-1.218-1.051-3.169-1.2-4.529-0.3404-1.256 1.056-2.353 2.295-3.549 3.421-1.26 1.274-2.584 2.496-3.747 3.86-1.212 1.655-0.482 4.193 1.174 5.26 0.8365 0.4739 1.856 0.6992 2.806 0.5363 1.464-0.2705 2.324-1.563 3.351-2.507 1.314-1.288 2.579-2.631 3.925-3.883 0.9295-0.6447 2.394 0.0388 2.526 1.17 0.1528 1.062-0.8596 1.701-1.504 2.367-1.544 1.52-3.039 3.09-4.617 4.574-1.261 1.046-2.87 1.688-4.51 1.754z" fill="#86a072"/>
  <g fill="#86a072">
   <path d="m152.6 179.2c-0.5 0-0.9-0.3-0.9-0.8-0.3-1.6-0.5-3.2-0.8-4.7-0.3-1.8-0.6-3.7-1-5.5-0.3-1.5-0.5-3.1-0.8-4.6v-0.1c0.3-0.5 0.5-1.1 0.8-1.6 0.2-0.4 0.6-0.6 1.1-0.7 1.8-0.3 3.7-0.6 5.5-0.9 0.5-0.1 0.8 0 1.2 0.4s0.8 0.8 1.2 1.1c0 0 0.1 0.1 0.2 0.1 1.4-0.2 2.7-0.4 4.1-0.7 1.2-0.2 2.4-0.4 3.5-0.6 1.2-0.2 2.5-0.4 3.7-0.6l1.8-0.3c0.5-0.1 1 0.2 1 0.7 0.3 1.8 0.6 3.5 0.9 5.3 0.3 1.9 0.6 3.7 1 5.6l0.6 3.3c0.1 0.5-0.2 0.9-0.7 1-1 0.2-2.1 0.3-3.1 0.5-1.5 0.2-2.9 0.5-4.4 0.7s-2.9 0.5-4.4 0.7c-1.4 0.2-2.7 0.4-4.1 0.7-1.5 0.2-2.9 0.5-4.4 0.7-0.7 0.1-1.3 0.2-2 0.3z"/>
   <path d="m150.8 158.6c0.1-0.5 0.1-0.9 0.2-1.4 0-0.2 0.1-0.5 0.1-0.7 0-0.1 0-0.2 0.1-0.3l1.2-1.2c0.3-0.3 0.8-0.4 1.2-0.3 1.3 0.2 2.5 0.3 3.8 0.5 0.6 0.1 1.2 0.1 1.9 0.2 0.4 0.1 0.7 0.3 0.9 0.6 0.3 0.5 0.6 1 0.9 1.5 0 0.1 0.1 0.1 0.2 0.1 1.7 0.2 3.4 0.3 5.1 0.5 1.6 0.2 3.1 0.3 4.7 0.5 1.3 0.1 2.7 0.3 4 0.4 0.3 0 0.6 0.2 0.8 0.4s0.2 0.4 0.2 0.6c-0.1 1.1-0.2 2.3-0.3 3.4-0.1 1-0.2 2-0.3 3.1l-0.3 2.4c0-0.2-0.1-0.4-0.1-0.5-0.2-0.9-0.3-1.7-0.5-2.6v-0.9-3.1-1.6c0-0.5-0.4-0.9-0.9-0.9h-2.8c-1.8 0-3.6 0.1-5.4 0.1-1.1 0-2.2 0-3.4 0.1h-1.9c-0.1 0-0.1 0-0.2-0.1-0.3-0.4-0.6-0.8-0.9-1.2-0.4-0.5-0.8-0.7-1.4-0.7h-1.5c-1.3 0-2.6 0-3.9 0.1-0.3 0-0.7 0.1-0.9 0.3l-0.4 0.4c-0.1 0.2-0.1 0.3-0.2 0.3z"/>
  </g>
 </g>
</svg>
