<svg width="200" height="200" version="1.1" viewBox="1 0 33 42" xmlns="http://www.w3.org/2000/svg">
 <g transform="matrix(.21 0 0 .21 -4.013 -.2213)">
  <g opacity=".7">
   <g opacity=".74">
    <radialGradient id="SVGID_1_" cx="99.89" cy="105.2" r="64.96" gradientTransform="matrix(1,0,0,-1,0,202)" gradientUnits="userSpaceOnUse">
     <stop stop-color="#EEF5E8" offset=".5475"/>
     <stop stop-color="#DBE5D3" offset=".8575"/>
     <stop stop-color="#C6D3BB" offset="1"/>
    </radialGradient>
    <path d="m160.1 83.4c7.454 29.34-10.18 63.04-39.11 72.64-11.2 3.466-23.05 5.04-34.77 4.573-14.4-0.3476-28.84-7.081-36.84-19.33-7.087-10.83-11.04-23.53-13.17-36.22-3.672-25.73 11.55-52.53 35.26-62.98 12.14-5.472 25.67-6.906 38.82-7.651 13.05-0.574 27.22 3.125 35.58 13.84 8.164 9.982 11.08 22.95 14.23 35.14zm-25.1 6c-2.291-8.821-2.462-18.44-6.955-26.54-4.484-6.334-13.35-4.891-19.96-3.805-12.37 2.646-25.28 7.071-33.49 17.28-7.667 8.846-10.37 21.42-7.195 32.67 2.244 8.337 3.915 19.03 12.93 22.75 9.919 3.484 20.73 1.726 30.86 0.0906 15.23-3.305 25.79-18.89 24.87-34.18-0.07631-2.778-0.4404-5.546-1.061-8.254z" fill="url(#SVGID_1_)"/>
    <radialGradient id="SVGID_00000070833627657121196390000009875256564203399583_" cx="103.5" cy="100.6" r="33.05" gradientTransform="matrix(1 0 0 -.9869 0 198.1)" gradientUnits="userSpaceOnUse">
     <stop stop-color="#EEF5E8" offset=".5475"/>
     <stop stop-color="#DBE5D3" offset=".8575"/>
     <stop stop-color="#C6D3BB" offset="1"/>
    </radialGradient>
    <path d="m136.3 87.8c2.779 10.15-1.366 20.9-7.84 28.74-5.969 7.612-14.67 13.49-24.47 14.4-12.94 1.587-26.72-5.719-31.77-17.92-5.206-12.31-1.187-27.21 8.064-36.48 7.29-7.573 18.22-10.93 28.57-9.838 10.72 1.004 21.28 7.064 26.15 16.9 0.4029 1.409 0.8971 2.791 1.3 4.2z" fill="url(#SVGID_00000070833627657121196390000009875256564203399583_)"/>
    <radialGradient id="SVGID_00000101783311973442215280000002395965846475856830_" cx="99.87" cy="102" r="94.73" gradientTransform="matrix(1,0,0,-1,0,202)" gradientUnits="userSpaceOnUse">
     <stop stop-color="#EEF5E8" offset=".5475"/>
     <stop stop-color="#DBE5D3" offset=".8575"/>
     <stop stop-color="#C6D3BB" offset="1"/>
    </radialGradient>
    <path d="m188.3 100.8c2.6 23.98-7.711 47.94-24.56 64.74-26.2 27.63-70.02 38.64-105.1 22.36-28.27-12.34-47.14-42.13-47.45-72.82-0.0277-17.8 2.375-35.8 7.968-52.73 4.955-14.87 15.42-27.86 29.55-34.86 27.24-14.12 59.07-21.58 89.58-15.66 18.08 3.471 32.62 17.56 38.9 34.57 6.753 17.31 9.323 36.03 11.15 54.4zm-24.3 2.2c-2.132-19.53-3.678-40.45-14.73-57.32-9.47-13.03-27.23-13.36-41.8-14.45-20.12-0.1617-41.21 4.119-57.87 15.87-13.71 10.9-15.29 30.3-14.58 46.56-0.127 21 7.646 42.84 24.71 55.92 26.19 20.31 68.24 18.26 90.73-6.738 9.48-10.84 14.86-25.4 13.55-39.85z" fill="url(#SVGID_00000101783311973442215280000002395965846475856830_)"/>
   </g>
  </g>
  <g fill="none" stroke="#aec0a1" stroke-linecap="round" stroke-miterlimit="10" stroke-width="2">
   <line x1="61" x2="61.9" y1="61.3" y2="63.7"/>
   <line x1="63.7" x2="81.4" y1="68.5" y2="114.3" stroke-dasharray="5.17, 5.17"/>
   <line x1="82.3" x2="83.2" y1="116.8" y2="119.1"/>
  </g>
  <g fill="none" stroke="#aec0a1" stroke-dasharray="5" stroke-linecap="round" stroke-miterlimit="10" stroke-width="2">
   <line x1="142.5" x2="112.7" y1="46.5" y2="119.3"/>
   <line x1="157.3" x2="133.2" y1="105.1" y2="131.6"/>
   <line x1="37.9" x2="68.6" y1="116" y2="138.1"/>
  </g>
  <linearGradient id="SVGID_108_" x1="98.95" x2="98.95" y1="706.5" y2="630.7" gradientTransform="matrix(1 0 0 .7942 0 -446.6)" gradientUnits="userSpaceOnUse">
   <stop stop-color="#4F8328" offset="0"/>
   <stop stop-color="#69AE35" offset=".2905"/>
   <stop stop-color="#A5CE86" offset="1"/>
  </linearGradient>
  <path d="m107.1 94-0.3-38.91c0-0.4765-0.4-0.7942-1-0.7942h-14.2c-0.6 0-1 0.3971-1 0.7942l0.3 38.91c0 0.4765-0.4 0.7942-1 0.7942h-5.1c-0.8 0-1.3 0.7148-0.9 1.191l14 18.11c0.4 0.4765 1.3 0.4765 1.7 0l14.4-18.11c0.4-0.5559-0.1-1.191-0.8-1.191h-5.1c-0.5 0-1-0.3971-1-0.7942z" fill="url(#SVGID_108_)"/>
  <path d="m126.7 162.7h-55.3c-0.6 0-1-0.4-1-1v-34.2c0-0.6 0.4-1 1-1h55.3c0.6 0 1 0.4 1 1v34.2c0 0.6-0.5 1-1 1z" fill="#aec0a1" stroke="#48563d" stroke-miterlimit="10"/>
  <linearGradient id="SVGID_00000132766190199708685750000009698442401463307711_" x1="90.8" x2="109.8" y1="750.7" y2="718.6" gradientTransform="translate(0,-592)" gradientUnits="userSpaceOnUse">
   <stop stop-color="#AEC0A1" offset="0"/>
   <stop stop-color="#D7E0D0" offset=".4377"/>
   <stop stop-color="#AEC0A1" offset=".8786"/>
  </linearGradient>
  <g stroke="#48563d" stroke-miterlimit="10">
   <path d="m123.8 160.2h-49.6c-0.6 0-1-0.4-1-1v-28.8c0-0.6 0.4-1 1-1h49.6c0.6 0 1 0.4 1 1v28.8c0 0.6-0.4 1-1 1z" fill="url(#SVGID_00000132766190199708685750000009698442401463307711_)" stroke-width=".5"/>
   <path d="m138 183.7h-77.9c-0.8 0-1.2-0.4-1-0.8l11.3-19.6c0-0.3 0.4-0.6 1-0.6h55.3c0.6 0 1 0.3 1 0.6l11.3 19.6c0.2 0.5-0.2 0.8-1 0.8z" fill="#aec0a1"/>
   <path d="m131.9 180.6h-65.8c-0.7 0-1.2-0.3-1-0.7l7.9-14.9c0.1-0.2 0.7-0.4 1.2-0.4h49.6c0.6 0 1.1 0.2 1.2 0.4l7.9 14.9c0.2 0.3-0.2 0.7-1 0.7z" fill="#76806e" stroke-width=".5"/>
   <g fill="none" stroke-width=".5">
    <line x1="98.9" x2="99.1" y1="164.6" y2="180.8"/>
    <line x1="106" x2="108.2" y1="164.6" y2="180.8"/>
    <line x1="113.1" x2="117.2" y1="164.6" y2="180.8"/>
    <line x1="120.3" x2="126.1" y1="164.6" y2="180.6"/>
    <line x1="91.9" x2="90" y1="164.6" y2="180.4"/>
    <line x1="84.8" x2="81" y1="164.6" y2="180.6"/>
    <line x1="77.7" x2="71.9" y1="164.6" y2="180.5"/>
    <line x1="70" x2="128.1" y1="170.7" y2="170.7"/>
    <line x1="68.2" x2="130" y1="174.2" y2="174.2"/>
    <line x1="66.4" x2="131.6" y1="177.6" y2="177.6"/>
    <line x1="71.8" x2="126.3" y1="167.3" y2="167.3"/>
   </g>
  </g>
  <g fill="#86a072">
   <path d="m54.6 57.6c-1.4 0-2.8-0.3-4.2-0.8-2.1-0.8-3.9-2.2-5-3.8s-1.4-3.3-0.9-4.8c0.6-1.4 2-2.5 3.9-3.1 0.7-0.2 1.4-0.3 2.2-0.3 1.4 0 2.8 0.3 4.2 0.8 2.2 0.8 3.9 2.1 5.1 3.7l8.4-22.2c0-0.1 0.1-0.2 0.2-0.2h0.1c1.5 0.4 4.8 1.9 6.8 4.8 0.5 0.7 0.8 1.3 1.1 2.1 1.1 2.6 0 5.9-1.1 8.3 0 0.1-0.1 0.1-0.2 0.1h-0.1c-0.1 0-0.2-0.2-0.2-0.3 0.3-1.5 0.5-4.4-1.3-6.9-0.2-0.3-0.4-0.5-0.7-0.8-1.1-1.2-2.3-2.2-3.7-3l-8.5 22.5c0 0.1 0 0.3-0.2 0.5-0.5 1.4-1.9 2.5-3.8 3.1-0.6 0.2-1.3 0.3-2.1 0.3z"/>
   <path d="m178.4 115.3c-0.3 0-0.6-0.2-0.8-0.4l-0.6-0.8c-1-1.3-1.9-2.6-3-3.8-2.2-2.5-4.8-4.4-7.6-5.6l-0.2-0.1c-0.3-0.1-0.5-0.2-0.8-0.3-0.8-0.1-1.2-0.6-1.5-1.3-1.1-2.2-2.8-4.1-5.4-6-1.8-1.4-3.9-2.7-6.5-3.8-0.1 0-0.2-0.1-0.3-0.1-0.4-0.2-0.7-0.4-0.8-0.8-0.1-0.3 0-0.7 0.3-1 0.9-1.1 4.4-5.2 5.3-6.3 2-2.4 4.1-4.9 6.1-7.3l1.6-1.9 2-2.4c0.2-0.2 0.5-0.4 0.7-0.4s0.5 0.1 0.7 0.3l1.9 1.6s0.1 0.1 0.2 0.1 0.1 0 0.2-0.1l0.5-0.6c0.4-0.5 0.8-1 1.2-1.4 0.2-0.3 0.5-0.4 0.7-0.4s0.4 0.1 0.6 0.2c1.4 0.9 2.7 2.1 3.9 3.4 1.1 1.3 1.9 2.6 2.4 3.8 0.7 1.7 1 3.2 0.9 4.8 0 0.1 0 0.1 0.1 0.2 0 0 0.1 0.1 0.2 0.1l0.5-0.1c0.3 0 0.6-0.1 0.9-0.1h0.9c1.7 0 3.4 0.4 5.1 1.2 2 0.9 3.8 2.1 5.3 3.7l0.1 0.1c0.2 0.2 0.4 0.4 0.5 0.6 0.3 0.5 0.1 0.9-0.4 1.5l-0.2 0.2c-0.3 0.4-0.6 0.7-0.9 1-0.1 0.1-0.3 0.3-0.2 0.6 0 0.2 0.1 0.3 0.3 0.5 0.5 0.4 1.1 0.9 1.6 1.3 0.5 0.5 0.6 1 0.2 1.6-0.6 0.7-1.1 1.3-1.7 2s-1.2 1.4-1.8 2.1c-1.1 1.3-2.2 2.7-3.4 4l-2.7 3.2-2 2.3c-1.2 1.4-2.3 2.8-3.5 4.2 0.1 0.2-0.3 0.4-0.6 0.4zm-8.7-11.7c-0.1 0-0.2 0.1-0.2 0.2s0 0.2 0.1 0.3c3.3 2 6.1 4.7 8.7 8.4 0 0.1 0.1 0.1 0.2 0.1s0.1 0 0.2-0.1l13.2-15.7c0-0.1 0.1-0.1 0.1-0.2s0-0.1-0.1-0.2l-1-0.9s-0.1-0.1-0.2-0.1-0.1 0-0.2 0.1l-6.8 8.1c-1.2 1.4-2.4 2.8-3.5 4.2-0.4 0.5-0.8 0.8-1.2 0.8-0.3 0-0.6-0.2-1-0.5-1.5-1.6-3.3-2.8-5.3-3.7-0.8-0.5-1.8-0.7-3-0.8 0.1 0 0.1 0 0 0zm-1.1-2.1c3.6 0 6.8 1.3 10.3 4.4 0 0 0.1 0.1 0.2 0.1s0.1 0 0.2-0.1l12.4-14.7c0.1-0.1 0.1-0.2 0-0.3l-0.3-0.3c-1.4-1.2-2.8-2.1-4.2-2.7s-2.9-1-4.2-1c-0.8 0-1.7 0.1-2.5 0.3-0.3 0.1-0.6 0.2-0.8 0.4-0.6 0.6-1.1 1.3-1.7 1.9 0 0-5.3 6.3-7.7 9.2-0.4 0.5-1.9 2.3-1.9 2.3-0.1 0.1-0.1 0.2 0 0.3 0 0.1 0.1 0.1 0.2 0.2-0.2 0 0 0 0 0zm4.2-26.3c-0.3 0-0.5 0.2-0.9 0.7l-0.1 0.1-11.6 13.9c0 0.1-0.1 0.1-0.1 0.2s0 0.1 0.1 0.2c3.6 2.9 5.5 5.9 6.1 9.5 0 0.1 0.1 0.2 0.2 0.2h0.1c0.1 0 0.1 0 0.2-0.1l5.9-7c1.8-2.1 3.5-4.2 5.3-6.3 0.2-0.2 0.3-0.5 0.4-0.9 0.2-1.8-0.1-3.5-1-5.3-0.8-1.6-1.9-3-3.7-4.6-0.4-0.5-0.6-0.6-0.9-0.6zm-5.6 0.5c-0.1 0-0.1 0-0.2 0.1l-13.2 15.7c0 0.1-0.1 0.1-0.1 0.2s0.1 0.1 0.1 0.2c3.9 1.9 7.1 4.2 9.6 6.9 0 0 0.1 0.1 0.2 0.1s0.1 0 0.2-0.1 0.2-0.3 0.2-0.4l-0.3-0.8c0-0.1-0.1-0.1-0.1-0.2-1.2-2.5-3-4.5-5.5-6.3-0.3-0.2-0.5-0.5-0.5-0.8s0.1-0.6 0.3-0.8l1.4-1.6 6.2-7.4 1-1.2c0.6-0.7 1.2-1.4 1.8-2.1 0.1-0.1 0.3-0.6 0.1-0.8s-0.4-0.4-0.7-0.5l-0.3-0.2h-0.2z"/>
   <path d="m129.6 43.1c-0.6 0-1.2-0.2-1.8-0.7-0.3-0.2-0.6-0.5-0.9-0.9-0.1-0.1-0.1-0.3-0.1-0.4v-0.2c-0.2-0.8-2.3-11.1-2.3-11.1l-0.7-3.2-0.6-3c-0.3-1.2-0.5-2.4-0.7-3.6-0.2-0.8-0.3-1.6-0.5-2.4-0.1-0.6 0-1.3 0.4-1.8 0.1-0.2 0.3-0.4 0.4-0.6l0.2-0.3c0.4-0.3 0.9-0.5 1.6-0.7 1.4-0.3 2.8-0.6 4.3-0.9l2.4-0.5c1.5-0.3 2.9-0.6 4.4-0.9 0.8-0.2 4.4-0.9 4.4-0.9l2.1-0.4c0.9-0.2 1.9-0.4 2.8-0.6l3-0.6 2.7-0.6 1.5-0.3c0.2 0 0.4-0.1 0.6-0.1 0.6 0 1.1 0.2 1.7 0.5 0.6 0.4 1 1 1.2 1.8 0.1 0.6 0.3 1.1 0.4 1.7s0.3 1.2 0.4 1.8 0.3 1.3 0.4 1.9l0.8 3.6 0.7 3.4 0.4 1.8c0.2 0.8 0.4 1.6 0.5 2.5 0.4 1.8 0.7 3.6 1.1 5.5 0.1 0.3 0.1 0.6 0.2 1l0.1 0.5c0.1 0.4 0 0.7-0.2 1.1-0.2 0.5-0.6 1.1-1.1 1.4-0.3 0.2-0.7 0.3-1.1 0.4-1.6 0.4-3.2 0.7-4.8 1.1l-2.7 0.6c-0.6 0.1-1.2 0.2-1.8 0.4-0.7 0.1-3.5 0.8-4.3 0.9-1 0.2-11.3 2.3-11.3 2.3-1.1 0.2-2.1 0.4-3.2 0.6-0.3-0.1-0.5-0.1-0.6-0.1zm2.6-7.3-3.3 0.7c-0.1 0-0.2 0.2-0.2 0.3l0.7 3.4c0 0.1 0.1 0.1 0.1 0.2h0.2l3.3-0.7c0.1 0 0.2-0.2 0.2-0.3l-0.7-3.4c0-0.1-0.1-0.1-0.1-0.2h-0.2c0.1 0 0 0 0 0zm8-1.6c-0.4 0.1-0.7 0.2-1.1 0.2l-2.1 0.4c-0.1 0-0.2 0.2-0.2 0.3l0.7 3.4c0 0.1 0.1 0.2 0.2 0.2h0.1l3.4-0.7c0.1 0 0.2-0.2 0.2-0.3l-0.7-3.2c-0.1-0.3-0.3-0.3-0.5-0.3 0.1-0.1 0-0.1 0 0zm8.1-1.7c-0.8 0.2-1.5 0.3-2.3 0.5l-0.8 0.2c-0.1 0-0.2 0.2-0.2 0.3v0.3l0.6 2.8c0 0.2 0.1 0.4 0.4 0.4h0.2l1.2-0.3 1.8-0.4c0.1 0 0.2-0.2 0.2-0.3l-0.7-3.2c-0.1-0.3-0.3-0.4-0.4-0.4 0.1 0 0 0.1 0 0.1zm8.4-1.8-3.3 0.7c-0.1 0-0.2 0.2-0.2 0.3l0.7 3.4c0 0.1 0.1 0.2 0.2 0.2h0.1l3.3-0.7c0.1 0 0.1-0.1 0.2-0.1v-0.2l-0.7-3.4c0-0.1-0.1-0.1-0.1-0.2h-0.2zm-20.7-9.3c-0.1 0-0.1 0-0.2 0.1s-0.1 0.1-0.1 0.2l2.1 9.8c0 0.1 0.1 0.2 0.2 0.2h0.1c0.1 0 0.1 0 0.2-0.1l8.7-6.9c0.1-0.1 0.1-0.2 0.1-0.2 0-0.1-0.1-0.2-0.2-0.3l-10.9-2.8c0.1 0.1 0.1 0 0 0zm-7.9-5.1-3.3 0.7c-0.1 0-0.1 0.1-0.2 0.1s0 0.1 0 0.2l0.7 3.4c0 0.1 0.1 0.1 0.1 0.2h0.2l3.3-0.7c0.1 0 0.2-0.2 0.2-0.3l-0.7-3.4c0-0.1-0.1-0.1-0.1-0.2h-0.2c0.1 0 0 0 0 0zm8.1-1.7h-0.2l-2.2 0.4c-0.2 0-0.4 0.1-0.6 0.1l-0.3 0.1c-0.1 0-0.2 0.2-0.2 0.3l0.7 3.4c0 0.1 0.1 0.1 0.1 0.2h0.4s2.2-0.4 3-0.6c0.1 0 0.2 0 0.3-0.2 0.1-0.1 0.1-0.3 0-0.4-0.2-0.7-0.3-1.5-0.5-2.2l-0.1-0.6c0-0.2-0.1-0.5-0.4-0.5zm8.2-1.7-3.3 0.7c-0.1 0-0.2 0.2-0.2 0.3l0.7 3.4c0 0.1 0.1 0.1 0.1 0.2h0.2l3.3-0.7c0.1 0 0.2-0.2 0.2-0.3l-0.7-3.4c0-0.1-0.1-0.1-0.1-0.2h-0.2zm8.2-1.7-3.3 0.7c-0.1 0-0.1 0.1-0.2 0.1s0 0.1 0 0.2l0.7 3.4c0 0.1 0.1 0.1 0.1 0.2h0.2l3.3-0.7c0.1 0 0.2-0.2 0.2-0.3l-0.7-3.4c-0.1-0.2-0.2-0.3-0.3-0.2z"/>
   <path d="m18.1 126.3c-1.2-1.1-2.2-2.4-3.1-3.7-0.5-0.8-0.9-1.7-1.3-2.5s-0.7-1.6-1-2.5c-0.4-1.1-0.8-2.3-1.1-3.4-0.2-0.8-0.4-1.7-0.5-2.5-0.2-1-0.2-2-0.2-3 0-1.2 0.2-2.3 0.6-3.4 0.2-0.7 0.5-1.3 0.9-1.9 0.5-0.7 1.1-1.4 1.8-1.9 0.8-0.5 1.6-1 2.5-1.2 0.7-0.2 1.4-0.3 2.1-0.4 0.5-0.1 1.1 0 1.6 0 0.8 0 1.5 0 2.2-0.3l1.2-0.6c0.4-0.3 0.9-0.5 1.3-0.8s0.7-0.7 0.9-1.1c0.3-0.5 0.5-1 0.8-1.5 0.5-0.9 1.1-1.7 1.9-2.5 0.7-0.6 1.4-1.2 2.2-1.6s1.7-0.7 2.6-0.7c0.9-0.1 1.9 0 2.8 0.2 0.8 0.2 1.6 0.5 2.4 0.9 1.3 0.6 2.4 1.4 3.5 2.3 1 0.8 2 1.8 2.9 2.7 1.1 1.1 2 2.4 3 3.6 0.8 1.1 1.4 2.2 2 3.4 0.5 1 0.8 2 1.1 3.1 0.1 0.7 0.2 1.4 0.1 2.1-0.2 1.1-0.8 1.8-2 2.1-1 0.2-1.9 0.2-2.9 0s-2.1-0.4-3.1-0.7c-0.9-0.2-1.8-0.5-2.7-0.7-0.2-0.1-0.4-0.2-0.7-0.3-0.2-0.1-0.5-0.1-0.7 0-0.8 0-1.5 0.5-2.2 0.9-0.9 0.5-1.7 1.1-2.6 1.6l-5.4 3.3c-0.6 0.4-1.2 0.7-1.8 1.1-0.4 0.2-0.7 0.6-1 1-0.3 0.3-0.3 0.7-0.4 1.1-0.2 0.9-0.4 1.9-0.6 2.8-0.3 1.2-0.6 2.3-1 3.5-0.2 0.8-0.6 1.6-1.2 2.2-0.8 0.9-1.7 1.2-2.9 0.8-0.8-0.5-1.5-1-2-1.5zm4.1-16c0.1 0 0.1-0.1 0.2-0.1 0.6-0.4 1.2-0.7 1.8-1.1 0.1-0.1 0.2-0.1 0.1-0.3 0-0.2 0-0.4-0.1-0.6-0.1-0.7-0.5-1.2-1.2-1.5-0.2-0.1-0.3-0.1-0.4 0-0.3 0.2-0.6 0.3-0.8 0.5-0.3 0.2-0.7 0.4-1 0.6-0.4-0.7-0.9-1.4-1.3-2.1-0.1-0.1-0.2-0.2-0.3-0.2-1 0.1-1.8 0.6-2.3 1.5 0.2 0.4 0.5 0.8 0.7 1.2s0.5 0.8 0.7 1.1c-0.7 0.4-1.3 0.8-2 1.2-0.1 0-0.1 0.1-0.1 0.2 0 0.3 0 0.6 0.1 0.9 0.3 0.6 0.7 1 1.3 1.3h0.2c0.4-0.2 0.8-0.5 1.2-0.7 0.2-0.1 0.5-0.3 0.7-0.4 0.4 0.7 0.8 1.3 1.2 2 0 0.1 0.1 0.1 0.2 0.1h0.9c0.7-0.2 1.2-0.7 1.4-1.3v-0.2l-1.2-2.1zm18.2-10.8c0.8-0.9 0.8-2.3-0.1-3.1-0.9-0.9-2.3-0.8-3.1 0-1 0.9-0.9 2.4 0.1 3.3 0.8 0.8 2.2 0.8 3.1-0.2zm-9.4 0.3c0.9 0.8 2.4 0.8 3.2-0.2 0.8-0.9 0.7-2.3-0.3-3.1-0.9-0.8-2.3-0.8-3.2 0.3-0.8 0.8-0.6 2.2 0.3 3zm6 1.7c-0.9-0.8-2.3-0.7-3.2 0.2-0.8 0.9-0.8 2.4 0.3 3.3 0.9 0.7 2.3 0.7 3.1-0.3s0.8-2.4-0.2-3.2z"/>
  </g>
 </g>
</svg>
