<svg version="1.1" viewBox="0 0 300.6 165" xmlns="http://www.w3.org/2000/svg">
 <style type="text/css">.custom-controls {
height: 64px;
fill: #fff;
}

.control-icon {
opacity: 0;
animation: icon-fade-in-out 4s ease-in-out infinite;
animation-fill-mode: forwards;
}

.stop {
animation-delay: .3s;
}

.play {
animation-delay: .5s;
}

.gamepad {
animation-delay: .7s;
padding: 0 0 0 20px;
}

@keyframes icon-fade-in-out {
0% {
opacity: 0;
}

10% {
opacity: 1;
}

80% {
opacity: 1;
}

90% {
opacity: 0;
}

100% {
opacity: 0;
}
}</style>
 <g transform="matrix(.03782 0 0 .03786 -.1798 -.1598)" clip-rule="evenodd" fill-rule="evenodd" image-rendering="optimizeQuality" shape-rendering="geometricPrecision">
  <polygon class="fil0" transform="matrix(.9989 0 0 .9917 21.47 6.601)" points="-6.29 -0.28 -13.51 4382 7930 4391 7937 8.68" fill="#314c37"/>
  <path d="m3901 1960c1286-653.5 2680 168.9 3115 149.9 837.8 156.3-1537 391.2-160.6 632.5 537.5 94.83 906.3 274.2 994.3 492.5 172.3 426.8-443.5 864-1514 1043-667.6 111.7-1437-20.78-2120 7.283-4273 175.6-1234-358.3-1485-293.3-5540 170.3-456.8-3358 1170-2032z" opacity=".094" stroke-width="12.89"/>
  <g transform="matrix(10.23 0 0 10.18 1526 -387.3)">
   <polygon transform="matrix(1 0 0 -1 -77.54 753)" points="72.18 392.4 72.18 373.8 80.94 373.8 66.43 360.6 51.93 373.8 60.69 373.8 60.69 392.4 66.1 392.4 66.76 392.4" fill="#ebebeb"/>
   <g fill="#d9d9d9">
    <polygon transform="matrix(1 0 0 -1 121.4 360.1)" points="433.2 144.9 439.8 144.9 440.6 144.9 447.2 144.9 447.2 122.2 457.9 122.2 440.2 106.1 422.4 122.2 433.2 122.2"/>
    <polygon transform="matrix(.6855 0 0 -.7115 114 431.3)" points="433.2 122.2 433.2 144.9 439.8 144.9 440.6 144.9 447.2 144.9 447.2 122.2 457.9 122.2 440.2 106.1 422.4 122.2"/>
    <polygon transform="matrix(.4557 0 0 -.4453 378.3 474.5)" points="422.4 122.2 433.2 122.2 433.2 144.9 439.8 144.9 440.6 144.9 447.2 144.9 447.2 122.2 457.9 122.2 440.2 106.1"/>
   </g>
   <path d="m483.8 464.9c0 0.15-104.7 0.26-233.8 0.26s-233.8-0.11-233.8-0.26 104.7-0.26 233.8-0.26 233.8 0.12 233.8 0.26z" fill="#263238"/>
   <g transform="translate(55.76 1.291)">
    <path d="m415.8 428.1c-1.71 2.44-5 1.63-6.57 0.14s-2.2-3.65-2.79-5.71c-1.35-4.7-2.72-9.64-1.71-14.43a8.05 8.05 0 0 1 1.84-3.92 4.17 4.17 0 0 1 4-1.32c1.68 0.44 2.72 2.08 3.47 3.64a34.46 34.46 0 0 1 3.4 14.76 11.93 11.93 0 0 1-1.61 6.84" fill="#66983c"/>
    <g opacity=".2">
     <path d="m415.8 428.1c-1.71 2.44-5 1.63-6.57 0.14s-2.2-3.65-2.79-5.71c-1.35-4.7-2.72-9.64-1.71-14.43a8.05 8.05 0 0 1 1.84-3.92 4.17 4.17 0 0 1 4-1.32c1.68 0.44 2.72 2.08 3.47 3.64a34.46 34.46 0 0 1 3.4 14.76 11.93 11.93 0 0 1-1.61 6.84"/>
    </g>
    <path d="m409.4 440.5a14.77 14.77 0 0 0-9.19-1.11 7.64 7.64 0 0 0-4.54 2c-1.13 1.25-1.35 3.46 0 4.53a4.34 4.34 0 0 0 2.86 0.73c2.43 0 5.12-0.46 7.06 1 1.11 0.83 1.85 2.22 3.17 2.63a3.14 3.14 0 0 0 3.45-1.54 5.36 5.36 0 0 0 0.39-3.94 6.05 6.05 0 0 0-3.2-4.3z" fill="#66983c"/>
    <path d="m420.5 431.6a8.85 8.85 0 0 1-1.38-8.17 15.66 15.66 0 0 1 4.84-7 26 26 0 0 1 8.67-5.12 9.17 9.17 0 0 1 3.9-0.66 4.1 4.1 0 0 1 3.27 2c0.91 1.74 0 3.85-0.91 5.57a66.39 66.39 0 0 1-5.69 8.67c-1.71 2.2-3.67 4.37-6.27 5.37s-5.3 0.87-6.68-0.93" fill="#66983c"/>
    <g fill="#5b7886">
     <path d="m415.9 464.9a5.5 5.5 0 0 1-0.15-1.11l-0.3-3a41.5 41.5 0 0 0-0.68-4.44 33.72 33.72 0 0 0-1.61-5.24 19.48 19.48 0 0 0-2.68-4.75 10.1 10.1 0 0 0-3.38-2.81 9.73 9.73 0 0 0-2.85-0.89 5.64 5.64 0 0 1-1.1-0.15 4.39 4.39 0 0 1 1.12 0 8.7 8.7 0 0 1 3 0.77 10 10 0 0 1 3.57 2.84 18.41 18.41 0 0 1 2.77 4.84 32.47 32.47 0 0 1 1.61 5.32 40.85 40.85 0 0 1 0.59 4.5c0.09 1.28 0.13 2.32 0.15 3a5.44 5.44 0 0 1-0.06 1.12z"/>
     <path d="m415.7 462.6a3.28 3.28 0 0 1 0-0.51v-1.47c0-1.28 0-3.13-0.07-5.41-0.11-4.57-0.5-10.87-1.26-17.79s-1.78-13.16-2.71-17.64c-0.21-1.12-0.43-2.13-0.64-3s-0.37-1.65-0.53-2.26l-0.34-1.44a1.58 1.58 0 0 1-0.09-0.5 3 3 0 0 1 0.18 0.48l0.42 1.41c0.19 0.61 0.39 1.37 0.61 2.25s0.47 1.89 0.71 3a164.2 164.2 0 0 1 2.84 17.65c0.76 6.94 1.11 13.26 1.14 17.83 0 2.29 0 4.14-0.08 5.42q-0.06 0.9-0.09 1.47a1.75 1.75 0 0 1-0.09 0.51z"/>
     <path d="m415.7 450.4a11.4 11.4 0 0 1 0-1.54c0.06-1 0.2-2.42 0.47-4.17a55.85 55.85 0 0 1 1.36-6.07 53.66 53.66 0 0 1 2.54-7.18 38.15 38.15 0 0 1 7.45-11.6 18 18 0 0 1 1.75-1.63c0.27-0.23 0.51-0.46 0.75-0.64s0.47-0.32 0.68-0.47a8.37 8.37 0 0 1 1.3-0.82 44.81 44.81 0 0 0-4.25 3.78 40.59 40.59 0 0 0-7.26 11.56 56.06 56.06 0 0 0-2.55 7.12c-0.67 2.23-1.11 4.28-1.45 6s-0.5 3.14-0.61 4.12a10 10 0 0 1-0.18 1.54z"/>
    </g>
   </g>
   <rect transform="rotate(-79.98)" x="-160.8" y="13.26" width="63.96" height="80" fill="#ebebeb"/>
   <path d="m75.06 111.6-0.39-0.06-1.14-0.16-20.42-3.53-56.9-10 0.24-0.16c-3.31 18.74-7.1 40.24-11.11 63l-0.19-0.26 78.78 14-0.23 0.16c3.4-19 6.21-34.68 8.18-45.67 1-5.49 1.77-9.8 2.3-12.75l0.62-3.37c0.14-0.76 0.23-1.16 0.23-1.16l-0.18 1.13c-0.13 0.76-0.32 1.88-0.57 3.33-0.51 2.95-1.25 7.25-2.2 12.74-1.92 11-4.68 26.79-8 45.81v0.19h-0.19l-78.83-13.96h-0.23v-0.23c4-22.74 7.84-44.23 11.16-63v-0.2h0.2l57 10.18 16.07 2.89 4.24 0.78 1.08 0.2z" fill="#263238"/>
   <g fill="#66983c">
    <rect transform="rotate(-79.98)" x="-156.8" y="16.03" width="55.91" height="74.38"/>
    <polygon transform="translate(-289.9 53.38)" points="310.1 74.09 322.2 98.3 334.9 88.76 351.7 116.7 278.5 103.8"/>
    <path d="m43.48 127.3a5.86 5.86 0 1 1-4.75-6.79 5.87 5.87 0 0 1 4.75 6.79z"/>
   </g>
   <g transform="translate(-289.9 53.38)" opacity=".2">
    <polygon points="310.1 74.09 322.2 98.3 334.9 88.76 351.7 116.7 278.5 103.8"/>
    <path d="m333.4 73.89a5.86 5.86 0 1 1-4.75-6.79 5.87 5.87 0 0 1 4.75 6.79z"/>
   </g>
   <path d="m540.7 382-45.54-13.37a5.94 5.94 0 0 1-4-7.37l18.5-63a6 6 0 0 1 7.38-4l28.88 8.48 15.59 29.6-13.41 45.69a5.94 5.94 0 0 1-7.4 3.97z" fill="#66983c"/>
   <g transform="translate(110.3 109.9)" opacity=".2">
    <path transform="rotate(16.36 410.9 254.1)" d="m381.4 242.4h59.34v17.18a6.36 6.36 0 0 1-6.36 6.36h-46.63a6.36 6.36 0 0 1-6.36-6.36v-17.18z"/>
   </g>
   <path d="m545.9 302.7-5.21 17.74a5.52 5.52 0 0 0 3.75 6.85l17.05 5z" fill="#66983c"/>
   <g transform="translate(110.3 109.9)" opacity=".2">
    <path d="m430.2 212.2s-1.49 4.24 3 7.09a5.45 5.45 0 0 0 0.53 0.29c2.11 1.05 16 8 16.1 7.63l1.4-4.77-17.06-5s-4.2-1.42-3.97-5.24z"/>
   </g>
   <path d="m63.62 267.8-41.21 9.46a5.28 5.28 0 0 1-6.34-4l-13.09-57a5.28 5.28 0 0 1 4-6.34l26.14-6 25 16.21 9.49 41.34a5.28 5.28 0 0 1-3.99 6.33z" fill="#66983c"/>
   <g transform="translate(-69.27 7.319)" opacity=".2">
    <path d="m106.6 214a5.49 5.49 0 0 0 5.42 4.21 4.87 4.87 0 0 0 0.54 0c2.09-0.1 15.9-0.78 15.83-1.09l-1-4.31-15.43 3.54s-3.88 0.7-5.36-2.35z"/>
   </g>
   <g transform="translate(-69.27 7.319)" opacity=".3">
    <path d="m102.4 196.6 3.68 16a4.92 4.92 0 0 0 5.9 3.7l15.43-3.54z" fill="#fff"/>
   </g>
   <g fill="#fafafa">
    <path d="m33.16 220.1c0 0.21-4.18 1.36-9.44 2.56s-9.57 2-9.62 1.82 4.18-1.35 9.45-2.56 9.57-2.02 9.61-1.82z"/>
    <path d="m47.56 226.3c0 0.21-6.94 2-15.6 4s-15.73 3.4-15.78 3.2 6.94-2 15.61-4 15.72-3.41 15.77-3.2z"/>
    <path d="m52.13 233.2c0 0.21-7.57 2.13-17 4.3s-17.16 3.78-17.21 3.55 7.57-2.13 17-4.29 17.16-3.76 17.21-3.56z"/>
    <path d="m53.73 240.4c0 0.21-7.57 2.14-17 4.3s-17.14 3.76-17.19 3.56 7.57-2.14 17-4.3 17.19-3.76 17.19-3.56z"/>
    <path d="m55.41 247.5c0 0.21-7.57 2.14-17 4.3s-17.14 3.76-17.18 3.56 7.57-2.13 17-4.3 17.13-3.78 17.18-3.56z"/>
    <path d="m57.05 254.7c0.05 0.2-7.57 2.13-17 4.29s-17.15 3.76-17.19 3.56 7.57-2.13 17-4.3 17.14-3.76 17.19-3.55z"/>
   </g>
   <g transform="matrix(1.148 0 0 1.176 -10.57 15.28)">
    <g transform="translate(-71.21 -56.87)">
     <rect x="131.3" y="86.19" width="272.6" height="256.1" fill="#f5f5f5" stroke-width="1.033"/>
     <path d="m174.9 193.2h-15.46a1.93 1.93 0 0 1-1.94-1.93v-21.41a1.94 1.94 0 0 1 1.94-1.94h9.8l7.6 7.83v15.52a1.93 1.93 0 0 1-1.94 1.93z" fill="#66983c"/>
     <path d="m169.2 167.9v6a1.81 1.81 0 0 0 1.8 1.8h5.8z" fill="#66983c"/>
     <g opacity=".2">
      <path d="m169.3 174.5a2 2 0 0 0 1.59 1.94h0.19c0.76 0.14 5.74 1 5.74 0.91v-1.62h-5.8s-1.44-0.01-1.72-1.23z"/>
     </g>
     <g opacity=".3">
      <path d="m169.2 167.9v6a1.81 1.81 0 0 0 1.8 1.8h5.8z" fill="#fff"/>
     </g>
     <path d="m188.1 182.5a1.439 1.371 0 1 1 2.855 0 1.439 1.371 0 1 1-2.855 0z" fill="#263238" stroke-width="2.23"/>
     <rect x="186.2" y="188" width="181.2" height="3.32" rx="1.66" fill="#66983c"/>
     <path d="m376.7 186.7a13.43 13.43 0 0 1-2.42 2.78 13.26 13.26 0 0 1-2.78 2.41 13.55 13.55 0 0 1 2.41-2.78 13.17 13.17 0 0 1 2.79-2.41z" fill="#263238"/>
     <path d="m376.6 191.9a13.26 13.26 0 0 1-2.78-2.41 13.43 13.43 0 0 1-2.42-2.78 13.26 13.26 0 0 1 2.78 2.41 13.43 13.43 0 0 1 2.42 2.78z" fill="#263238"/>
     <path d="m174.9 233.6h-15.46a1.94 1.94 0 0 1-1.94-1.94v-21.41a1.93 1.93 0 0 1 1.94-1.93h9.8l7.6 7.82v15.52a1.94 1.94 0 0 1-1.94 1.94z" fill="#66983c"/>
     <path d="m169.2 208.3v6a1.8 1.8 0 0 0 1.8 1.8h5.8z" fill="#66983c"/>
     <g opacity=".2">
      <path d="m169.3 214.8a2 2 0 0 0 1.59 1.94h0.19c0.76 0.14 5.74 1 5.74 0.91v-1.58h-5.8s-1.44-0.05-1.72-1.27z"/>
     </g>
     <g opacity=".3">
      <path d="m169.2 208.3v6a1.8 1.8 0 0 0 1.8 1.8h5.8z" fill="#fff"/>
     </g>
     <path d="m187.8 222.7a1.438 1.316 0 1 1 2.853 0 1.438 1.316 0 1 1-2.853 0z" fill="#263238" stroke-width="2.184"/>
     <path d="m365.8 231.7h-177.9a1.66 1.66 0 0 1-1.66-1.66 1.66 1.66 0 0 1 1.66-1.67h177.9a1.66 1.66 0 0 1 1.66 1.67 1.66 1.66 0 0 1-1.66 1.66z" fill="#e0e0e0"/>
     <path d="m291.8 231.7h-103.9a1.66 1.66 0 0 1-1.66-1.66 1.66 1.66 0 0 1 1.66-1.67h103.9a1.66 1.66 0 0 1 1.66 1.67 1.66 1.66 0 0 1-1.66 1.66z" fill="#66983c"/>
     <path d="m376.7 227a13.14 13.14 0 0 1-2.42 2.78 12.57 12.57 0 0 1-2.78 2.41 13.55 13.55 0 0 1 2.41-2.78 13.17 13.17 0 0 1 2.79-2.41z" fill="#263238"/>
     <path d="m376.6 232.2a12.57 12.57 0 0 1-2.78-2.41 13.14 13.14 0 0 1-2.42-2.78 13.26 13.26 0 0 1 2.78 2.41 13.43 13.43 0 0 1 2.42 2.78z" fill="#263238"/>
     <path d="m174.9 274.4h-15.46a1.94 1.94 0 0 1-1.94-1.94v-21.41a1.94 1.94 0 0 1 1.94-1.93h9.8l7.6 7.83v15.51a1.94 1.94 0 0 1-1.94 1.94z" fill="#66983c"/>
     <path d="m169.2 249.2v6a1.8 1.8 0 0 0 1.8 1.83h5.8z" fill="#66983c"/>
     <g opacity=".2">
      <path d="m169.3 255.7a2 2 0 0 0 1.59 1.94h0.19c0.76 0.13 5.74 1 5.74 0.9v-1.56h-5.8s-1.44 0-1.72-1.28z"/>
     </g>
     <g opacity=".3">
      <path d="m169.2 249.2v6a1.8 1.8 0 0 0 1.8 1.83h5.8z" fill="#fff"/>
     </g>
     <path d="m188.3 262.3a1.386 1.442 0 1 1 1.364 1.442 1.364 1.419 0 0 1-1.364-1.442z" fill="#263238" stroke-width="2.244"/>
     <path d="m365.8 272.6h-177.9a1.66 1.66 0 0 1-1.66-1.66 1.66 1.66 0 0 1 1.66-1.66h177.9a1.66 1.66 0 0 1 1.66 1.66 1.66 1.66 0 0 1-1.66 1.66z" fill="#e0e0e0"/>
     <path d="m227.4 272.6h-39.45a1.66 1.66 0 0 1-1.66-1.66 1.66 1.66 0 0 1 1.66-1.66h39.45a1.66 1.66 0 0 1 1.66 1.66 1.66 1.66 0 0 1-1.66 1.66z" fill="#66983c"/>
     <path d="m376.7 267.9a26.68 26.68 0 0 1-5.2 5.2 13.26 13.26 0 0 1 2.41-2.78 13 13 0 0 1 2.79-2.42z" fill="#263238"/>
     <path d="m376.6 273.1a26.68 26.68 0 0 1-5.2-5.2 26.68 26.68 0 0 1 5.2 5.2z" fill="#263238"/>
     <path d="m174.9 315.3h-15.46a1.94 1.94 0 0 1-1.94-1.93v-21.41a1.94 1.94 0 0 1 1.94-1.94h9.8l7.6 7.83v15.52a1.94 1.94 0 0 1-1.94 1.93z" fill="#66983c"/>
     <path d="m169.2 290.1v6a1.81 1.81 0 0 0 1.8 1.8h5.8z" fill="#66983c"/>
     <g opacity=".2">
      <path d="m169.3 296.6a2 2 0 0 0 1.59 1.94h0.19c0.76 0.14 5.74 1 5.74 0.91v-1.62h-5.8s-1.44-0.01-1.72-1.23z"/>
     </g>
     <g opacity=".3">
      <path d="m169.2 290.1v6a1.81 1.81 0 0 0 1.8 1.8h5.8z" fill="#fff"/>
     </g>
     <path d="m187.2 303.2a1.21 1.138 0 1 1 2.4 0 1.21 1.138 0 1 1-2.4 0z" fill="#263238" stroke-width="1.862"/>
     <path d="m365.8 313.4h-177.9a1.66 1.66 0 0 1-1.66-1.66 1.66 1.66 0 0 1 1.66-1.66h177.9a1.66 1.66 0 0 1 1.66 1.66 1.66 1.66 0 0 1-1.66 1.66z" fill="#e0e0e0"/>
     <path d="m340.5 313.4h-152.6a1.66 1.66 0 0 1-1.66-1.66 1.66 1.66 0 0 1 1.66-1.66h152.6a1.66 1.66 0 0 1 1.66 1.66 1.66 1.66 0 0 1-1.66 1.66z" fill="#66983c"/>
     <g fill="#263238">
      <path d="m376.7 308.8a13 13 0 0 1-2.42 2.79 13.26 13.26 0 0 1-2.78 2.41 13.26 13.26 0 0 1 2.41-2.78 13 13 0 0 1 2.79-2.42z"/>
      <path d="m376.6 314a13.26 13.26 0 0 1-2.78-2.41 13 13 0 0 1-2.42-2.79 26.68 26.68 0 0 1 5.2 5.2z"/>
      <path d="m403.9 158c0 0.15-61.08 0.27-136.4 0.27s-136.4-0.12-136.4-0.27 61.06-0.26 136.4-0.26 136.4 0.12 136.4 0.26z"/>
      <g transform="matrix(2.122 0 0 1.867 -283.8 -176.9)" stroke-width=".2279" aria-label="mkv">
       <path d="m232 193.3h-0.8184v-2.895q0-0.3277-0.0305-0.6327-0.0261-0.305-0.1175-0.487-0.1002-0.1957-0.2873-0.2959-0.1872-0.1001-0.5398-0.1001-0.3439 0-0.6878 0.1821-0.3439 0.1775-0.6878 0.4552 0.013 0.1047 0.0218 0.2458 9e-3 0.1366 9e-3 0.2731v3.255h-0.8184v-2.895q0-0.3368-0.0305-0.6372-0.0261-0.305-0.1175-0.487-0.1002-0.1957-0.2873-0.2913-0.1872-0.1001-0.5398-0.1001-0.3352 0-0.6748 0.173-0.3352 0.173-0.6704 0.4415v3.796h-0.8184v-5.084h0.8184v0.5644q0.3831-0.3323 0.7618-0.5189 0.3831-0.1866 0.814-0.1866 0.4963 0 0.8402 0.2185 0.3482 0.2185 0.518 0.6054 0.4963-0.437 0.9055-0.6281 0.4092-0.1957 0.875-0.1957 0.801 0 1.18 0.5098 0.3831 0.5052 0.3831 1.416z"/>
       <path d="m238 193.3h-1.08l-1.95-2.226-0.5311 0.528v1.698h-0.8184v-7.083h0.8184v4.543l2.364-2.544h1.032l-2.259 2.349z"/>
       <path d="m243.1 188.2-1.968 5.084h-0.8228l-1.955-5.084h0.888l1.506 4.047 1.493-4.047z"/>
      </g>
      <g transform="matrix(2.3 0 0 2.112 -337.2 -223.6)" stroke-width=".2157" aria-label="iso">
       <path d="m231.8 206.6h-0.8932v-0.8216h0.8932zm-0.0505 5.494h-0.7921v-4.706h0.7921z"/>
       <path d="m236.6 210.7q0 0.6446-0.5351 1.058-0.5309 0.4129-1.454 0.4129-0.5224 0-0.9606-0.1222-0.434-0.1264-0.7289-0.2738v-0.889h0.0421q0.375 0.2823 0.8342 0.4508 0.4592 0.1643 0.8806 0.1643 0.5224 0 0.8174-0.1685 0.2949-0.1685 0.2949-0.5309 0-0.2781-0.1601-0.4213t-0.6151-0.2444q-0.1685-0.0379-0.4424-0.0885-0.2696-0.0506-0.4929-0.1095-0.6193-0.1643-0.8806-0.4803-0.257-0.3202-0.257-0.7836 0-0.2907 0.118-0.5477 0.1222-0.257 0.3665-0.4592 0.2359-0.198 0.5983-0.3118 0.3665-0.118 0.8174-0.118 0.4213 0 0.8511 0.1053 0.434 0.1011 0.7204 0.2486v0.8468h-0.0421q-0.3034-0.2233-0.7373-0.375-0.434-0.1559-0.851-0.1559-0.434 0-0.7331 0.1685-0.2991 0.1643-0.2991 0.4929 0 0.2907 0.1812 0.4382 0.177 0.1475 0.573 0.2402 0.2191 0.0505 0.4887 0.1011 0.2739 0.0506 0.455 0.0927 0.5519 0.1264 0.8511 0.434 0.2991 0.3118 0.2991 0.8258z"/>
       <path d="m241.8 209.7q0 1.15-0.5898 1.816-0.5898 0.6657-1.58 0.6657-0.9985 0-1.588-0.6657-0.5856-0.6657-0.5856-1.816t0.5856-1.816q0.5898-0.6699 1.588-0.6699 0.9901 0 1.58 0.6699 0.5898 0.6657 0.5898 1.816zm-0.8174 0q0-0.9143-0.3581-1.357-0.3581-0.4466-0.9943-0.4466-0.6446 0-1.003 0.4466-0.3539 0.4424-0.3539 1.357 0 0.8848 0.3581 1.344 0.3581 0.455 0.9985 0.455 0.632 0 0.9901-0.4508 0.3623-0.455 0.3623-1.348z"/>
      </g>
      <g transform="matrix(2.172 0 0 2.319 -303 -326.1)" stroke-width=".2095" aria-label="avi">
       <path d="m232.5 254.5h-0.765v-0.4868q-0.1023 0.0695-0.2782 0.1964-0.1718 0.1227-0.3354 0.1964-0.1923 0.0941-0.4418 0.1554-0.2495 0.0655-0.585 0.0655-0.6177 0-1.047-0.4091-0.4295-0.4091-0.4295-1.043 0-0.5196 0.2209-0.8386 0.225-0.3232 0.6382-0.5073 0.4173-0.1841 1.002-0.2495 0.585-0.0655 1.256-0.0982v-0.1186q0-0.2618-0.0941-0.4336-0.09-0.1718-0.2618-0.27-0.1636-0.0941-0.3927-0.1268t-0.4786-0.0327q-0.3027 0-0.675 0.0818-0.3723 0.0777-0.7691 0.2291h-0.0409v-0.7814q0.225-0.0614 0.6504-0.135 0.4255-0.0736 0.8386-0.0736 0.4827 0 0.8386 0.0818 0.36 0.0777 0.6218 0.27 0.2577 0.1882 0.3927 0.4868t0.135 0.7405zm-0.765-1.125v-1.272q-0.3518 0.0205-0.8305 0.0614-0.4745 0.0409-0.7527 0.1186-0.3314 0.0941-0.5359 0.2946-0.2046 0.1964-0.2046 0.5441 0 0.3927 0.2373 0.5932 0.2373 0.1964 0.7241 0.1964 0.405 0 0.7404-0.1555 0.3354-0.1595 0.6218-0.3804z"/>
       <path d="m237.9 250-1.849 4.57h-0.7732l-1.837-4.57h0.8346l1.415 3.637 1.403-3.637z"/>
       <path d="m239.7 249.2h-0.8673v-0.7977h0.8673zm-0.0491 5.335h-0.7691v-4.57h0.7691z"/>
      </g>
      <g transform="matrix(1.895 0 0 1.831 -241.6 -235)" stroke-width="1.711" aria-label="mp4">
       <path d="m236.2 294.5h-0.8374v-2.833q0-0.3207-0.0312-0.6192-0.0267-0.2984-0.1203-0.4766-0.1024-0.1915-0.294-0.2895t-0.5524-0.098q-0.3519 0-0.7038 0.1782-0.3519 0.1737-0.7038 0.4454 0.0134 0.1024 0.0223 0.2405 9e-3 0.1336 9e-3 0.2673v3.185h-0.8374v-2.833q0-0.3296-0.0312-0.6236-0.0267-0.2984-0.1203-0.4766-0.1024-0.1915-0.294-0.2851-0.1915-0.098-0.5524-0.098-0.343 0-0.6904 0.1693-0.343 0.1693-0.686 0.4321v3.715h-0.8374v-4.976h0.8374v0.5524q0.392-0.3252 0.7795-0.5078 0.392-0.1826 0.833-0.1826 0.5078 0 0.8597 0.2138 0.3564 0.2138 0.5301 0.5924 0.5078-0.4276 0.9265-0.6147 0.4187-0.1916 0.8954-0.1916 0.8196 0 1.207 0.4989 0.392 0.4944 0.392 1.385z"/>
       <path d="m242.2 292q0 0.6058-0.1737 1.109-0.1737 0.4989-0.49 0.8464-0.294 0.3296-0.6949 0.5123-0.3964 0.1782-0.8419 0.1782-0.3875 0-0.7038-0.0846-0.3118-0.0846-0.637-0.2628v2.085h-0.8374v-6.811h0.8374v0.5212q0.3341-0.2806 0.7484-0.4677 0.4187-0.1916 0.8909-0.1916 0.8998 0 1.399 0.6815 0.5034 0.6771 0.5034 1.884zm-0.8642 0.0223q0-0.8998-0.3074-1.345-0.3074-0.4454-0.9444-0.4454-0.3608 0-0.7261 0.1559t-0.6994 0.4098v2.82q0.3564 0.1604 0.6103 0.2183 0.2584 0.0579 0.5835 0.0579 0.6994 0 1.091-0.4722 0.392-0.4722 0.392-1.399z"/>
       <path d="m248 292.7h-0.9844v1.866h-0.8553v-1.866h-3.176v-1.025l3.212-3.742h0.8196v4.054h0.9844zm-1.84-0.7127v-2.993l-2.57 2.993z"/>
      </g>
     </g>
     <g transform="matrix(1.878 .5754 -.5967 1.759 208.1 -89.47)" fill="#b5b5b5" stroke-width=".2034" aria-label="mkv">
      <path d="m228.2 179.6h-0.7469v-2.527q0-0.2861-0.0278-0.5522-0.0238-0.2662-0.1073-0.4251-0.0914-0.1708-0.2622-0.2582t-0.4926-0.0874q-0.3139 0-0.6277 0.1589-0.3139 0.1549-0.6277 0.3973 0.0119 0.0914 0.0199 0.2145 8e-3 0.1192 8e-3 0.2384v2.841h-0.7469v-2.527q0-0.294-0.0278-0.5562-0.0238-0.2662-0.1073-0.4251-0.0914-0.1708-0.2622-0.2543-0.1708-0.0874-0.4926-0.0874-0.3059 0-0.6158 0.151-0.3059 0.151-0.6118 0.3854v3.313h-0.7469v-4.438h0.7469v0.4926q0.3496-0.29 0.6953-0.4529 0.3496-0.1629 0.743-0.1629 0.4529 0 0.7668 0.1907 0.3178 0.1907 0.4728 0.5284 0.4529-0.3814 0.8264-0.5483 0.3735-0.1708 0.7986-0.1708 0.731 0 1.077 0.445 0.3496 0.441 0.3496 1.236z"/>
      <path d="m233.6 179.6h-0.9853l-1.78-1.943-0.4847 0.4609v1.482h-0.7469v-6.182h0.7469v3.965l2.157-2.221h0.9416l-2.062 2.05z"/>
      <path d="m238.2 175.1-1.796 4.438h-0.7509l-1.784-4.438h0.8105l1.375 3.532 1.363-3.532z"/>
     </g>
    </g>
   </g>
   <path d="m224.8 464.8h-238.7s-2.81-56.16 46.8-59.9c0 0 8.22-47.49 63.64-47.74 66.46-0.29 67.28 57.55 67.28 57.55s54.41-5.13 61 50.09" fill="#f5f5f5"/>
   <polygon transform="matrix(.8463 0 0 -.8062 -25.24 700)" points="122.5 400.8 139.2 400.8 141.2 400.8 157.9 400.8 157.9 343.6 184.8 343.6 140.2 303.1 95.53 343.6 122.5 343.6" fill="#66983c"/>
   <g transform="matrix(1.163 0 0 1.145 -31.57 -67.31)">
    <path d="m226.2 292c-2.06-6.61-1.2-17.7 3.35-23.17s12.44-8.63 19.5-9.5a5.91 5.91 0 0 1 3.49 0.36 2.35 2.35 0 0 1 1.18 3 15 15 0 0 1 4.61-1.72 5.07 5.07 0 0 1 4.52 1.43 3.1 3.1 0 0 1-0.28 4.38 5.33 5.33 0 0 1 6.06 7.68 16.84 16.84 0 0 1-4.33 4.81c-1.57 1.2-1.94 2.56-1.87 4.54" fill="#263238"/>
    <path d="m228.9 280.5-5.34 38.85a11.67 11.67 0 0 0 10.54 13.22 11.67 11.67 0 0 0 12.57-10.05c0.4-2.93 0.74-5.37 0.8-5.67 0 0 10 0.44 12.08-9.26 1-4.68 2.27-14.49 3.31-23.38a18.47 18.47 0 0 0-14.72-20.19l-0.94-0.19c-10.2-1.47-17.15 6.41-18.3 16.67z" fill="#ffbe9d"/>
    <path d="m247.5 316.7a23.08 23.08 0 0 1-12-6.13s1.6 7.59 11.47 8.65z" fill="#eb996e"/>
    <g fill="#263238">
     <path d="m258.7 290.1a1.42 1.42 0 0 1-1.62 1.13 1.35 1.35 0 0 1-1.18-1.53 1.42 1.42 0 0 1 1.62-1.14 1.36 1.36 0 0 1 1.18 1.54z"/>
     <path d="m259.8 288.5c-0.21 0.15-1.11-0.84-2.6-1.14s-2.74 0.24-2.86 0 0.18-0.39 0.72-0.64a3.91 3.91 0 0 1 2.34-0.24 3.71 3.71 0 0 1 2 1.13c0.41 0.47 0.5 0.82 0.4 0.89z"/>
     <path d="m244 287.7a1.41 1.41 0 0 1-1.61 1.13 1.35 1.35 0 0 1-1.18-1.53 1.41 1.41 0 0 1 1.61-1.14 1.35 1.35 0 0 1 1.18 1.54z"/>
     <path d="m245.1 285.9c-0.21 0.14-1.11-0.85-2.6-1.14s-2.74 0.23-2.86 0 0.17-0.39 0.72-0.64a3.91 3.91 0 0 1 2.34-0.24 3.71 3.71 0 0 1 2 1.13c0.41 0.46 0.5 0.82 0.4 0.89z"/>
     <path d="m248.3 298a9.91 9.91 0 0 1 2.52 0c0.38 0 0.76 0 0.88-0.22a2.07 2.07 0 0 0 0-1.18c-0.18-1-0.36-2-0.55-3.13-0.74-4.44-1.19-8.07-1-8.1s0.92 3.56 1.66 8c0.17 1.1 0.34 2.14 0.5 3.14a2.33 2.33 0 0 1-0.1 1.53 1 1 0 0 1-0.74 0.44 3.39 3.39 0 0 1-0.67 0 9.6 9.6 0 0 1-2.5-0.48z"/>
     <path d="m243.7 298.2c0.25 0-0.07 1.66 1.09 3.09s2.91 1.59 2.88 1.82-0.45 0.24-1.18 0.11a4.15 4.15 0 0 1-2.43-1.43 3.58 3.58 0 0 1-0.8-2.56c0.07-0.69 0.33-1.06 0.44-1.03z"/>
     <path d="m246.6 280.1c-0.23 0.38-1.68-0.11-3.47-0.25s-3.31 0.05-3.47-0.36c-0.07-0.19 0.26-0.52 0.91-0.8a5.79 5.79 0 0 1 2.69-0.38 5.64 5.64 0 0 1 2.59 0.84c0.59 0.39 0.85 0.77 0.75 0.95z"/>
     <path d="m260.1 284.1c-0.33 0.29-1.29-0.27-2.52-0.54s-2.33-0.22-2.5-0.63c-0.07-0.19 0.16-0.5 0.68-0.73a3.76 3.76 0 0 1 4 0.94c0.42 0.44 0.49 0.85 0.34 0.96z"/>
    </g>
    <path d="m228.3 287.8c-0.15-0.1-6.28-3.3-7.4 3.38s5.83 6.42 5.87 6.23 1.53-9.61 1.53-9.61z" fill="#ffbe9d"/>
    <path d="m225.1 294.6s-0.13 0.06-0.34 0.12a1.15 1.15 0 0 1-0.87-0.13 2.9 2.9 0 0 1-0.9-2.8 4 4 0 0 1 0.6-1.62 1.36 1.36 0 0 1 1-0.74 0.59 0.59 0 0 1 0.63 0.43c0.06 0.2 0 0.33 0 0.35s0.16-0.09 0.15-0.38a0.75 0.75 0 0 0-0.19-0.46 0.92 0.92 0 0 0-0.62-0.28 1.67 1.67 0 0 0-1.39 0.84 4 4 0 0 0-0.71 1.79 3.06 3.06 0 0 0 1.22 3.17 1.24 1.24 0 0 0 1.09 0c0.29-0.13 0.35-0.27 0.33-0.29z" fill="#eb996e"/>
    <path d="m269.2 272.3c-0.67 8.8-11.94 10.62-15.82 5-1.79-2.6-3.21-5.72-6-7.22a8.05 8.05 0 0 0-6.19-0.38h-0.07c-3 1-5.15 3.88-6.09 6.89-1.31 4.18-1.26 8.07-3 11.82a2.77 2.77 0 0 1-1.08 1.38c-0.91 0.45-2-0.26-2.53-1.12a8.34 8.34 0 0 1-0.94-4.69 27.77 27.77 0 0 1 2.22-10.76 18.83 18.83 0 0 1 7-8.36 17.92 17.92 0 0 1 13.29-2.2 22.06 22.06 0 0 1 11.65 7 12.91 12.91 0 0 1 3.14 5.51" fill="#263238"/>
    <path d="m263 266.3a1.93 1.93 0 0 1 0.92 0.19 4.66 4.66 0 0 1 2 1.6 5.8 5.8 0 0 1 1.09 3.64 6.5 6.5 0 0 1-2 4.19 8.54 8.54 0 0 1-4.09 2.22 11.92 11.92 0 0 1-3.78 0.2 14.12 14.12 0 0 1-2.49-0.5 2.84 2.84 0 0 1-0.87-0.33c0-0.1 1.29 0.31 3.39 0.46a11.82 11.82 0 0 0 3.63-0.3 8.32 8.32 0 0 0 3.84-2.12 6.13 6.13 0 0 0 1.9-3.85 5.59 5.59 0 0 0-0.91-3.4 4.79 4.79 0 0 0-1.79-1.62c-0.57-0.27-0.84-0.33-0.84-0.38z" fill="#455a64"/>
    <path d="m259 262.5s0.26 0 0.62 0.22a2.16 2.16 0 0 1 0.8 1.6 3.89 3.89 0 0 1-0.94 2.47 11 11 0 0 1-2.26 2.25 11.78 11.78 0 0 1-5.28 2.23 5.55 5.55 0 0 1-2.38 0c0-0.09 0.91-0.06 2.31-0.36a12.84 12.84 0 0 0 5-2.29 12 12 0 0 0 2.19-2.12 3.75 3.75 0 0 0 0.95-2.17 2.06 2.06 0 0 0-0.56-1.46c-0.24-0.27-0.45-0.33-0.45-0.37z" fill="#455a64"/>
    <path d="m304.1 385a15.35 15.35 0 0 1-22.87 0l-17.68-19.8-0.21 28.21 6.24 18.09-62 10.75-2.59-48.93-4.46-37.56a10.2 10.2 0 0 1 6.39-10.7l17.07-6.71 24 4.4 9.66 3.68a26.36 26.36 0 0 1 10.53 7.32l27.11 31" fill="#66983c"/>
    <path d="m263.9 392.2c0.15 0 0.18-9.78 0.08-21.82s-0.29-21.82-0.44-21.82-0.18 9.77-0.08 21.82 0.3 21.82 0.44 21.82z" fill="#263238"/>
    <path d="m261.6 399.4-37.46-15.08a8.54 8.54 0 0 1-5.33-7.29l-2.74-35.91s0.32-15.27-9.22-16l-5.43 2.14c-7 3.73-8.75 13.94-7.79 21.82 1.35 11.2 1.92 27.06 3.44 36.78 1.24 7.95 5.8 14.95 13.58 17l46.13 10z" fill="#66983c"/>
    <g fill="#263238">
     <path d="m216.6 346.6a4.52 4.52 0 0 1 0.12 0.82q0.09 0.87 0.24 2.37l0.79 8.7c0.32 3.7 0.7 8.07 1.11 12.92 0.11 1.22 0.21 2.47 0.32 3.74a27.79 27.79 0 0 0 0.48 3.84 6.36 6.36 0 0 0 1.86 3.37 12.79 12.79 0 0 0 3.45 2.15c10.33 4.47 19.85 8.16 26.76 10.74l8.2 3 2.23 0.82a4.15 4.15 0 0 1 0.77 0.32 6 6 0 0 1-0.8-0.23l-2.26-0.73c-2-0.65-4.79-1.62-8.26-2.87-6.95-2.51-16.49-6.14-26.84-10.63a12.83 12.83 0 0 1-3.59-2.24 6.88 6.88 0 0 1-2-3.62 28.56 28.56 0 0 1-0.48-3.91c-0.1-1.27-0.2-2.52-0.3-3.74-0.37-4.85-0.71-9.23-1-12.93s-0.48-6.61-0.63-8.72c-0.06-1-0.11-1.79-0.15-2.37a6.47 6.47 0 0 1-0.02-0.8z"/>
     <path d="m195.2 366.1a1.83 1.83 0 0 1 0.08 0.48c0 0.38 0.07 0.83 0.12 1.39 0.11 1.28 0.26 3 0.45 5.09s0.46 4.71 0.84 7.54a71.24 71.24 0 0 0 1.69 9.09 13.7 13.7 0 0 0 1.82 4.34 25.53 25.53 0 0 0 2.8 3.44 23.89 23.89 0 0 0 6 4.49 22.25 22.25 0 0 0 6.57 2.16 1.74 1.74 0 0 1-0.48 0 12 12 0 0 1-1.39-0.18 18.2 18.2 0 0 1-4.86-1.65 23.31 23.31 0 0 1-6.17-4.49 24.4 24.4 0 0 1-2.87-3.48 14 14 0 0 1-1.91-4.48 68.21 68.21 0 0 1-1.66-9.17c-0.35-2.84-0.58-5.41-0.74-7.57s-0.24-3.9-0.28-5.11v-1.39a2.66 2.66 0 0 1-0.01-0.5z"/>
     <path d="m211.2 391.2a5.55 5.55 0 0 1 0.68-2 12.94 12.94 0 0 1 7.6-6.49 5.6 5.6 0 0 1 2.08-0.36c0 0.08-0.77 0.24-2 0.7a14.78 14.78 0 0 0-4.25 2.52 15 15 0 0 0-3.16 3.8c-0.59 1.1-0.87 1.86-0.95 1.83z"/>
    </g>
    <g opacity=".3">
     <path d="m250.9 395.1c-4-2.26-7.93-4-12.12-5.9s-8.28-4.34-11-8c-5.16-7-4.58-17-9.87-23.9q0.52 6.94 1 13.87c0.32 4.24-0.33 8.43 2.4 11.31 2.3 2.42 6.78 4.28 9.95 5.33 6.38 2.11 13.25 5.23 19.63 7.33"/>
    </g>
    <path d="m222.5 320 1.83-6.87 23.28 5.47a2.34 2.34 0 0 1 1.7 2.94l-1.78 6.06-8.4 10.78-9.53-1.7-7.1-5.45z" fill="#66983c"/>
    <path d="m248 323.2a2.75 2.75 0 0 1-0.82 0.19 20.89 20.89 0 0 1-2.28 0.22 27.28 27.28 0 0 1-14.57-3.5 18.26 18.26 0 0 1-1.93-1.23c-0.44-0.32-0.67-0.51-0.65-0.54s1.05 0.58 2.76 1.45a31.49 31.49 0 0 0 14.38 3.45c1.95 0 3.11-0.13 3.11-0.04z" fill="#263238"/>
    <g fill="#f5f5f5">
     <path d="m230.7 320.1s-0.32-0.19-0.56-0.71a3.51 3.51 0 0 1-0.18-2.17 3.47 3.47 0 0 1 1.12-1.87c0.45-0.36 0.8-0.44 0.82-0.39s-0.23 0.27-0.56 0.65a4.18 4.18 0 0 0-0.87 1.73 4.12 4.12 0 0 0 0 1.93c0.14 0.49 0.3 0.76 0.23 0.83z"/>
     <path d="m240.7 323.5a9.09 9.09 0 0 0-0.72-6.58s0.35 0.22 0.7 0.78a5.82 5.82 0 0 1 0.8 2.39 5.94 5.94 0 0 1-0.26 2.51c-0.23 0.61-0.46 0.93-0.52 0.9z"/>
     <path d="m241.5 391.1a3.08 3.08 0 0 1 0-0.7c0-0.46 0.14-1.13 0.17-2a54.47 54.47 0 0 0 0-7.37 100.4 100.4 0 0 0-1.38-10.84c-0.7-4.06-1.62-8.51-2.36-13.22a142.9 142.9 0 0 1-1.67-24.35c0.06-3.12 0.2-5.65 0.34-7.39 0.06-0.87 0.14-1.54 0.19-2a3.6 3.6 0 0 1 0.1-0.7 3.22 3.22 0 0 1 0 0.71c0 0.51 0 1.17-0.09 2-0.07 1.75-0.16 4.27-0.17 7.39a154.2 154.2 0 0 0 1.82 24.26c0.74 4.69 1.64 9.14 2.31 13.22a96 96 0 0 1 1.28 10.9 47.56 47.56 0 0 1-0.15 7.41c-0.06 0.87-0.2 1.54-0.26 2a3.57 3.57 0 0 1-0.13 0.68z"/>
     <path d="m253 324.5a0.62 0.62 0 0 1 0.07 0.18q0.06 0.18 0.15 0.54a13 13 0 0 1 0.27 2.13c0.12 1.87-0.14 4.55-0.29 7.86s-0.33 7.26-0.2 11.64a67 67 0 0 0 1.76 14.13c1.16 4.91 2.51 9.58 3 14a68.33 68.33 0 0 1 0.39 11.68c-0.17 3.32-0.47 6-0.71 7.83-0.12 0.92-0.23 1.64-0.31 2.12a6.48 6.48 0 0 1-0.14 0.73 3.27 3.27 0 0 1 0-0.75c0-0.53 0.12-1.24 0.21-2.12 0.18-1.85 0.42-4.52 0.54-7.83a71.68 71.68 0 0 0-0.5-11.6c-0.51-4.34-1.87-9-3-13.91a66 66 0 0 1-1.76-14.19c-0.1-4.4 0.1-8.36 0.32-11.67s0.5-6 0.45-7.83a15.06 15.06 0 0 0-0.18-2.12 7.22 7.22 0 0 1-0.07-0.82z"/>
     <path d="m274.3 364.5a8.5 8.5 0 0 1-1.82-1.45 41.14 41.14 0 0 1-3.88-4.05 42.86 42.86 0 0 1-3.34-4.51 8.46 8.46 0 0 1-1.12-2c0.13-0.08 2 2.89 4.85 6.21s5.41 5.69 5.31 5.8z"/>
     <path d="m287.1 361.5a8.62 8.62 0 0 1-1.12-1.09c-0.68-0.72-1.64-1.78-2.8-3.11-2.34-2.66-5.47-6.41-8.77-10.68s-6.13-8.27-8.11-11.2c-1-1.47-1.77-2.66-2.29-3.5a8.94 8.94 0 0 1-0.78-1.33 8.25 8.25 0 0 1 1 1.21l2.43 3.41c2 2.87 4.92 6.82 8.21 11.09s6.38 8 8.64 10.76l2.67 3.22a8.55 8.55 0 0 1 0.92 1.22z"/>
     <path d="m223.8 384.5a3.57 3.57 0 0 1-0.39-0.55 12.08 12.08 0 0 1-0.84-1.77 17.46 17.46 0 0 1-0.88-7.08c0.14-3 1-6.55 1.51-10.48a71.33 71.33 0 0 0 0.14-12.89c-0.3-4.58-0.75-8.94-0.92-12.93a63.48 63.48 0 0 1 0.31-10.6 36 36 0 0 1 1.52-7 17.47 17.47 0 0 1 0.69-1.82 3.2 3.2 0 0 1 0.29-0.62s-0.32 0.88-0.78 2.5a38.5 38.5 0 0 0-1.35 7 67.32 67.32 0 0 0-0.2 10.54c0.19 4 0.66 8.32 1 12.92a68.67 68.67 0 0 1-0.19 13c-0.52 4-1.43 7.45-1.61 10.44a18 18 0 0 0 0.7 7 20.6 20.6 0 0 0 1 2.34z"/>
     <path d="m212.8 387.9a8.36 8.36 0 0 1-2.46-1.42 14.12 14.12 0 0 1-4.27-6.4 19.58 19.58 0 0 1-1-5.27 34.24 34.24 0 0 1 0.31-6.14c0.57-4.29 1.72-8.89 2.09-13.83a74.05 74.05 0 0 0-0.12-13.94c-0.21-2.14-0.43-4.19-0.43-6.12a17.85 17.85 0 0 1 0.69-5.32 10.76 10.76 0 0 1 4.55-6.14 7.49 7.49 0 0 1 2-0.8 5.68 5.68 0 0 1 0.73-0.1 9.39 9.39 0 0 0-2.58 1.07 10.77 10.77 0 0 0-4.31 6.08 17.75 17.75 0 0 0-0.61 5.21c0 1.9 0.25 3.93 0.48 6.07a73.28 73.28 0 0 1 0.16 14c-0.38 5-1.54 9.61-2.13 13.85a32.54 32.54 0 0 0-0.35 6.05 18.9 18.9 0 0 0 0.91 5.17 14.26 14.26 0 0 0 4.05 6.36 18 18 0 0 0 2.29 1.62z"/>
     <path d="m255.7 403a12 12 0 0 1-1.66-0.67l-4.45-1.94c-3.76-1.61-9-3.76-14.88-5.87s-11.29-3.78-15.23-4.92l-4.66-1.33a10 10 0 0 1-1.7-0.54 13.24 13.24 0 0 1 1.75 0.34c1.12 0.25 2.73 0.65 4.71 1.18 4 1.05 9.41 2.67 15.31 4.78s11.12 4.32 14.85 6c1.87 0.85 3.37 1.57 4.39 2.09a10 10 0 0 1 1.57 0.88z"/>
     <path d="m207.3 401s-0.07 0-0.17-0.08a3.52 3.52 0 0 1-0.47-0.28 11.83 11.83 0 0 1-1.62-1.33 19.7 19.7 0 0 1-4.33-6.34 8.34 8.34 0 0 1-0.56-2.52c-0.1-0.88-0.2-1.79-0.31-2.74-0.2-1.89-0.43-3.91-0.66-6a129.6 129.6 0 0 0-2.19-13.79 75.31 75.31 0 0 1-1.5-13.88c-0.11-4.29 0.07-8.15 0.27-11.38s0.43-5.85 0.6-7.65c0.09-0.86 0.16-1.55 0.22-2.07a3.14 3.14 0 0 1 0.11-0.72 5.75 5.75 0 0 1 0 0.73c0 0.52-0.07 1.21-0.11 2.08-0.11 1.8-0.29 4.42-0.44 7.65s-0.29 7.08-0.16 11.35a77.84 77.84 0 0 0 1.53 13.78 125.6 125.6 0 0 1 2.13 13.78c0.21 2.13 0.42 4.15 0.61 6.05 0.1 0.94 0.19 1.86 0.28 2.74a7.9 7.9 0 0 0 0.51 2.43 20.23 20.23 0 0 0 4.13 6.33 14.27 14.27 0 0 0 1.53 1.39 4.76 4.76 0 0 1 0.6 0.47z"/>
    </g>
    <path d="m316 447.8s31.34 8.68 32.6 9.12c1.88 0.66 1.57 7.58-1.37 7.47-1.39-0.05-24.07 0.85-26.94 0.67s-11.51-3.59-11.51-3.59z" fill="#66983c"/>
    <g fill="#263238">
     <path d="m329 459.8a13.75 13.75 0 0 1 3.6-6.25 7 7 0 0 0-3.6 6.25z"/>
     <path d="m325.8 458.3c0.15 0 0.47-1.45 1.3-3.09s1.82-2.78 1.71-2.89a7.79 7.79 0 0 0-3 6z"/>
     <path d="m322.7 457.5a22 22 0 0 1 0.73-3.31 21.1 21.1 0 0 1 1.71-2.93 5.91 5.91 0 0 0-2.44 6.24z"/>
     <path d="m323.2 453.5a5.65 5.65 0 0 0 0.33-2.33 11 11 0 0 0-0.31-2.56 11.08 11.08 0 0 0-0.47-1.45 1.76 1.76 0 0 0-0.5-0.77 0.85 0.85 0 0 0-1.08 0 1.39 1.39 0 0 0-0.42 0.89 7.94 7.94 0 0 0 0 0.83 6.81 6.81 0 0 0 0.2 1.53 9.29 9.29 0 0 0 1 2.4 6 6 0 0 0 1.41 1.88c0.07-0.05-0.45-0.78-1.08-2.05a10.19 10.19 0 0 1-0.82-2.33 6.69 6.69 0 0 1-0.15-1.44c0-0.48 0-1.08 0.29-1.31a0.3 0.3 0 0 1 0.41 0 1.29 1.29 0 0 1 0.34 0.54 10.44 10.44 0 0 1 0.48 1.39 12.29 12.29 0 0 1 0.41 2.44c0.01 1.44-0.13 2.33-0.04 2.34z"/>
     <path d="m323.2 453.1a4.6 4.6 0 0 0-2-0.32 9 9 0 0 0-2.23 0.27 4.89 4.89 0 0 0-1.28 0.47 1.32 1.32 0 0 0-0.7 1.44 1.58 1.58 0 0 0 1.13 1.12 2.92 2.92 0 0 0 1.41 0 5.48 5.48 0 0 0 2-1 5.33 5.33 0 0 0 1.45-1.44 15.57 15.57 0 0 0-1.67 1.13 5.29 5.29 0 0 1-1.92 0.83 2.4 2.4 0 0 1-1.16 0 1 1 0 0 1-0.76-0.75 0.8 0.8 0 0 1 0.52-0.89 4.49 4.49 0 0 1 1.14-0.44 9.58 9.58 0 0 1 2.11-0.37c1.18-0.09 1.95 0.04 1.96-0.05z"/>
     <path d="m333.8 460.2a15.94 15.94 0 0 1 0.62-2.83 16.41 16.41 0 0 1 1.53-2.45 4.49 4.49 0 0 0-2.15 5.28z"/>
     <path d="m312 461.6a5.9 5.9 0 0 0 1.21 0.57 27.7 27.7 0 0 0 3.49 1.09 50.06 50.06 0 0 0 12 1.13c4.69-0.05 8.92-0.27 12-0.39l3.64-0.19a7.81 7.81 0 0 0 1.33-0.14 6.29 6.29 0 0 0-1.34-0.07h-3.64l-12 0.23a55.67 55.67 0 0 1-11.88-1c-3.05-0.55-4.81-1.32-4.81-1.23z"/>
     <path d="m311 462.3c0 0.07 0.9-0.43 2.34-1.07a10.9 10.9 0 0 1 5.93-1 9.37 9.37 0 0 1 5.13 3.05 16.38 16.38 0 0 0 1.81 1.84 10 10 0 0 0-1.54-2.09 12.43 12.43 0 0 0-2.08-1.95 7.46 7.46 0 0 0-3.23-1.37 10.33 10.33 0 0 0-6.17 1.17 7.93 7.93 0 0 0-2.19 1.42z"/>
    </g>
    <path d="m282.7 439.2s-29.65 19.42-30.7 20.22c-1.59 1.21 0.24 6.95 3 6 1.3-0.47 26.19-7.39 28.87-8.43s9.87-6.92 9.87-6.92z" fill="#66983c"/>
    <g fill="#263238">
     <path d="m273.9 454.6a7 7 0 0 0-5.33-4.86 28.6 28.6 0 0 1 3 2.07 30.82 30.82 0 0 1 2.33 2.79z"/>
     <path d="m276.6 452.2a5.89 5.89 0 0 0-1.81-2.92 6 6 0 0 0-2.88-1.87c-0.07 0.14 1.23 0.92 2.51 2.24s2.04 2.62 2.18 2.55z"/>
     <path d="m279.2 450.4a5.89 5.89 0 0 0-4.22-5.2 21.41 21.41 0 0 1 2.52 2.27 20.55 20.55 0 0 1 1.7 2.93z"/>
     <path d="m277.5 446.8c0.08 0-0.33-0.84-0.67-2.21a12.64 12.64 0 0 1-0.35-2.46 12 12 0 0 1 0-1.46 1.35 1.35 0 0 1 0.17-0.63 0.29 0.29 0 0 1 0.4-0.09c0.34 0.13 0.52 0.71 0.68 1.16a7.37 7.37 0 0 1 0.29 1.41 10.33 10.33 0 0 1-0.08 2.47c-0.21 1.41-0.49 2.26-0.4 2.29a6.36 6.36 0 0 0 0.77-2.22 9.35 9.35 0 0 0 0.19-2.58 7.76 7.76 0 0 0-0.28-1.52c-0.08-0.26-0.18-0.51-0.29-0.78a1.43 1.43 0 0 0-0.67-0.71 0.82 0.82 0 0 0-1 0.27 1.78 1.78 0 0 0-0.25 0.89 11.16 11.16 0 0 0 0.47 4.05 5.45 5.45 0 0 0 1.02 2.12z"/>
     <path d="m277.4 446.4c0 0.07 0.73-0.28 1.93-0.57a11.19 11.19 0 0 1 2.12-0.29 4.48 4.48 0 0 1 1.22 0.08 0.81 0.81 0 0 1 0.71 0.69 1.06 1.06 0 0 1-0.5 0.94 2.52 2.52 0 0 1-1.1 0.37 5.52 5.52 0 0 1-2.09-0.21 13.91 13.91 0 0 0-1.93-0.57 5.69 5.69 0 0 0 1.82 0.93 5.62 5.62 0 0 0 2.25 0.33 3 3 0 0 0 1.34-0.42 1.57 1.57 0 0 0 0.73-1.41 1.32 1.32 0 0 0-1.11-1.15 4.89 4.89 0 0 0-1.36-0.06 9.09 9.09 0 0 0-2.2 0.41 4.4 4.4 0 0 0-1.83 0.93z"/>
     <path d="m258.8 464.3s0.5-0.3 0.73-1.15a4.36 4.36 0 0 0-0.56-3.22 10.87 10.87 0 0 0-1-1.48 5.29 5.29 0 0 0-1-1.08 1.74 1.74 0 0 0-0.94-0.4c-0.25 0-0.38 0-0.37 0.08a2.68 2.68 0 0 1 1.07 0.6 7 7 0 0 1 0.86 1.08 15.1 15.1 0 0 1 0.92 1.45 4.59 4.59 0 0 1 0.66 2.89 12.77 12.77 0 0 1-0.37 1.23z"/>
     <path d="m269.4 456.3a3.6 3.6 0 0 0-1-2.84 3.7 3.7 0 0 0-2.61-1.54c-0.06 0.15 1.19 0.64 2.2 1.88a16 16 0 0 1 1.41 2.5z"/>
     <path d="m290.7 451.1a10.68 10.68 0 0 0-1.3 0.89 35.09 35.09 0 0 1-3.66 2.24 47.3 47.3 0 0 1-5.8 2.59c-2.25 0.84-4.77 1.63-7.43 2.4-5.34 1.53-10.17 2.94-13.65 4l-4.12 1.26a9.92 9.92 0 0 0-1.49 0.53 7.94 7.94 0 0 0 1.54-0.33l4.17-1.11c3.51-1 8.36-2.3 13.7-3.84 2.66-0.77 5.19-1.58 7.45-2.45a42.74 42.74 0 0 0 5.81-2.71 29.84 29.84 0 0 0 3.6-2.4 7.43 7.43 0 0 0 1.18-1.07z"/>
     <path d="m291.8 451.5a8 8 0 0 0-2.51-0.67 10.38 10.38 0 0 0-6.23 0.76 7.37 7.37 0 0 0-2.67 2.29 12.76 12.76 0 0 0-1.39 2.48 9.64 9.64 0 0 0-0.82 2.47 20.09 20.09 0 0 0 1.16-2.31 9.34 9.34 0 0 1 3.95-4.46 10.94 10.94 0 0 1 6-0.86c1.53 0.16 2.5 0.38 2.51 0.3z"/>
     <path d="m344.3 391.8s8.9 3.17 8.94 13.15c0.07 19.11-38.61 40.17-38.61 40.17l-51.48-34.11-3.22-1.3s69.48-26.1 84.37-17.91z"/>
    </g>
    <g fill="#455a64">
     <path d="m289.3 428.3a9.8 9.8 0 0 0 1.34-0.91c0.84-0.61 2-1.52 3.52-2.66 2.95-2.27 7-5.5 11.27-9.21s8.11-7.18 10.81-9.75c1.35-1.28 2.43-2.33 3.16-3.07a9.85 9.85 0 0 0 1.1-1.19 8 8 0 0 0-1.24 1l-3.22 2.99c-2.76 2.5-6.6 5.93-10.9 9.63s-8.28 7-11.16 9.31l-3.42 2.79a9.43 9.43 0 0 0-1.26 1.07z"/>
     <path d="m329.8 399a12.78 12.78 0 0 0-9.37 2.76c0.09 0.14 2-1.05 4.56-1.81s4.81-0.8 4.81-0.95z"/>
     <path d="m325.4 396a6.1 6.1 0 0 0-3.05 2.29 6.17 6.17 0 0 0-1.61 3.47c0.15 0.05 0.72-1.55 2-3.14s2.74-2.51 2.66-2.62z"/>
    </g>
    <path d="m347.2 456.5c0-0.06-0.61-0.18-1.32 0.4a4.76 4.76 0 0 0-1.49 3 5.83 5.83 0 0 0 0.47 3.3c0.36 0.78 0.76 1.14 0.81 1.11s-0.21-0.49-0.47-1.25a6.71 6.71 0 0 1-0.29-3.09 5.17 5.17 0 0 1 1.21-2.78 3.83 3.83 0 0 1 1.08-0.69z" fill="#263238"/>
    <polygon points="332.5 360.6 314.2 407.1 235.2 408.4 233.8 404.1 261.4 403.1 274.7 361.9" fill="#455a64"/>
    <path d="m295.6 380.8a3.5 3.5 0 0 1 3.79 0.4 3.07 3.07 0 0 1 0.75 3.37 3.35 3.35 0 0 1-2.85 2 3 3 0 0 1-3-2 3.37 3.37 0 0 1 1.33-3.77" fill="#ebebeb"/>
    <path d="m319.5 447.5s-72.73-47.7-75.7-48.69-10.18-5.71-17.37-3.73-13.65 8.44-16.88 17.87c-1.84 5.39-2.71 14.58-3.12 21.47a31.86 31.86 0 0 0 7.45 22.72 20.44 20.44 0 0 0 9.07 6.44c0.76 0.23 1.54 0.43 2.35 0.61a34.21 34.21 0 0 0 35.61-14.95l1.69-2.58s47.58 17.47 48.32 17.23z" fill="#263238"/>
    <path d="m229.6 434.4s0.13 0.07 0.4 0.18l1.19 0.47 4.61 1.77 17.13 6.46c7.28 2.72 16 5.94 25.78 9.5s20.62 7.46 32.2 11.38l0.21 0.07 0.11-0.19c1.81-3.47 3.73-7.14 5.68-10.85l2.89-5.54 0.11-0.21-0.2-0.13-55.47-35.21-16.67-10.52-4.53-2.82-1.18-0.72-0.41-0.23a4.53 4.53 0 0 0 0.38 0.27l1.15 0.77 4.48 2.9 16.58 10.65 55.38 35.35-0.09-0.34-2.9 5.53c-1.94 3.72-3.86 7.38-5.68 10.86l0.32-0.13c-11.57-3.91-22.42-7.79-32.21-11.32l-25.82-9.4-17.19-6.3-4.64-1.69-1.21-0.43z" fill="#455a64"/>
   </g>
   <path d="m526 316.5-5.79 21.95 20.59-5.811z" fill="#b5b5b5"/>
   <path d="m481.9 261.1-35.98 12.25a4.72 4.758 77.25 0 1-6.014-2.943l-16.9-49.36a4.767 4.806 77.25 0 1 2.991-5.985l22.82-7.769 23.84 12.04 12.26 35.8a4.72 4.758 77.25 0 1-3.018 5.975z" fill="#66983c" stroke-width=".7978"/>
   <path d="m448.8 207.3 4.758 13.9a4.386 4.421 77.25 0 0 5.611 2.72l13.47-4.591z" fill="#66983c" stroke-width=".7978"/>
   <path d="m442.1 225.4 6.319 16.9 10.81-13.23z" fill="#b5b5b5"/>
   <path d="m454.1 222.4s0.9769 3.435 5.23 3.22a4.33 4.365 77.25 0 0 0.4807-0.0554c1.865-0.2884 14.16-2.163 14.06-2.448l-1.28-3.737-13.48 4.595s-3.405 1.009-5.013-1.575z" opacity=".2" stroke-width=".7978"/>
   <g fill="#cecece" stroke-width="2.45">
    <path d="m458.2 262.7-1.142 0.3801-1.181-3.871q-0.1337-0.4382-0.3007-0.8318-0.1608-0.3956-0.3627-0.5966-0.2195-0.2152-0.5215-0.2622-0.302-0.0469-0.7939 0.1168-0.4797 0.1597-0.8852 0.5629-0.4073 0.3971-0.7738 0.9281 0.0609 0.1339 0.1307 0.3185 0.068 0.1785 0.1237 0.3611l1.328 4.352-1.142 0.3801-1.181-3.871q-0.1374-0.4504-0.3025-0.8379-0.1608-0.3957-0.3627-0.5966-0.2195-0.2152-0.5197-0.2561-0.302-0.047-0.7938 0.1168-0.4676 0.1557-0.8707 0.5447-0.397 0.387-0.755 0.9017l1.549 5.076-1.142 0.3801-2.074-6.798 1.142-0.3801 0.2303 0.7547q0.3988-0.6222 0.851-1.048 0.4582-0.4275 1.059-0.6276 0.6923-0.2305 1.261-0.0981 0.575 0.1304 0.9696 0.5689 0.514-0.8148 1.007-1.26 0.491-0.4518 1.141-0.6681 1.117-0.372 1.854 0.1338 0.7405 0.4977 1.112 1.715z"/>
    <path d="m465.3 256.5q0.2526 0.8277 0.2256 1.594-0.0289 0.7605-0.3151 1.379-0.2634 0.5838-0.7338 1.015-0.4662 0.4234-1.073 0.6256-0.5283 0.1759-0.9947 0.2039-0.4604 0.026-0.978-0.0699l0.8692 2.848-1.142 0.3801-2.84-9.306 1.142-0.3801 0.2173 0.7121q0.3384-0.5351 0.8252-0.9787 0.491-0.4518 1.135-0.6661 1.227-0.4084 2.191 0.2964 0.9685 0.6967 1.472 2.346zm-1.169 0.4227q-0.3752-1.229-0.9799-1.699-0.6047-0.4691-1.473-0.18-0.4919 0.1638-0.9248 0.5426-0.433 0.3788-0.7826 0.8774l1.176 3.853q0.5527 0.0573 0.923 0.0213 0.3764-0.0382 0.8197-0.1857 0.9534-0.3174 1.291-1.14 0.3375-0.8231-0.0487-2.089z"/>
    <path d="m473.5 254.8-1.342 0.4468 0.7782 2.55-1.166 0.3882-0.7782-2.55-4.33 1.442-0.4272-1.4 2.818-6.57 1.117-0.372 1.69 5.539 1.342-0.4468zm-2.805-0.1388-1.248-4.09-2.256 5.257z"/>
   </g>
   <g transform="matrix(.6517 -.5193 .4612 .7284 75.61 284.7)" opacity=".2">
    <path transform="rotate(16.36 410.9 254.1)" d="m380.7 242.7 58.7 0.1731 0.4493 20.01c0.079 3.517-2.626 5.046-6.145 4.906l-46.01-1.821c-4.164-0.1648-6.217-2.548-6.36-6.36z"/>
   </g>
  </g>
  <g transform="matrix(10.62 0 0 10.42 3404 -246.3)">
   <g transform="matrix(.157 0 0 .1721 -69.45 -377.3)">
    <path d="m2935 3061h-1067c-54.52 0-98.73-43.65-98.73-97.5v-246.6c0-53.84 44.2-97.5 98.73-97.5h1067c54.52 0 98.73 43.65 98.73 97.5v246.6c0.011 53.85-44.19 97.5-98.72 97.5z" fill="#406448" stroke-width="1.078"/>
    <rect x="1818" y="2840" width="1167" height="117.4" fill="#e2e2e2" stroke-width="1.078"/>
    <g transform="matrix(1.085 0 0 1.072 879.6 2165)" fill="#32c95c">
     <rect x="865.3" y="629.6" width="804.9" height="109.6"/>
     <rect class="control-icon stop" x="1683" y="629.6" width="37.38" height="109.6" opacity="0"/>
     <rect class="control-icon stop" x="1736" y="629.6" width="37.38" height="109.6" opacity="0"/>
     <rect class="control-icon play" x="1791" y="629.6" width="37.38" height="109.6" opacity="0"/>
    </g>
    <g transform="matrix(2.471 0 0 2.496 478.6 2036)" fill="#fff" aria-label="ЗАГРУЗКА">
     <path d="m673.4 289.6c0.1004 3.633-2.007 7.176-5.278 8.78-4.611 2.486-10.04 2.504-15.13 2.127-3.111-0.3121-6.19-1.001-9.121-2.095v-7.875c1.326-0.1843 2.284 1.022 3.48 1.406 2.999 1.37 6.25 2.488 9.598 2.173 2.526-0.1317 5.562-0.7813 6.762-3.272 0.7113-1.965 0.3618-4.816-1.833-5.667-2.746-0.9557-5.7-0.5506-8.555-0.6401h-2.632v-6.234c2.849-0.0511 5.708 0.1264 8.547-0.145 1.741-0.1186 3.73-1.164 3.812-3.115 0.3252-1.438-0.5199-2.947-1.94-3.375-4.291-1.493-9.019-0.4568-13.04 1.361-0.9925 0.3986-1.903 1.198-3.027 1.032v-7.336c6.476-2.22 13.59-3.079 20.31-1.504 3.121 0.7566 6.418 2.835 6.988 6.235 0.6902 3.303-1.093 6.777-4.027 8.364-0.7009 0.774-2.515 0.5483-2.783 1.436 3.144 0.4832 6.366 2.284 7.453 5.43 0.3195 0.9347 0.4203 1.93 0.4219 2.914z"/>
     <path d="m712.7 300h-9.305l-2.414-7.055h-12.94l-2.414 7.055h-9.07l12.89-34.9h10.36zm-13.9-13.45-4.289-12.52-4.289 12.52z"/>
     <path d="m742.9 271.8h-16.17v28.15h-9v-34.9h25.17z"/>
     <path d="m777.1 276.1c0.0234 3.756-1.621 7.609-4.798 9.749-2.913 2.298-6.713 2.888-10.32 2.767h-4.685v11.37h-9v-34.9c5.534 0.0259 11.07-0.0548 16.6 0.0464 4.071 0.1648 8.593 1.559 10.79 5.263 1.039 1.707 1.423 3.728 1.416 5.707zm-9.305 0.2109c0.0991-2.289-1.869-4.147-4.037-4.465-2.133-0.3512-4.308-0.2145-6.463-0.2461v10.45c2.688-0.0691 5.522 0.2965 8.034-0.8525 1.83-0.8844 2.529-2.978 2.466-4.89z"/>
     <path d="m814.2 265.1c-4.383 9.592-8.707 19.21-13.13 28.79-1.626 3.404-4.999 5.99-8.821 6.228-3.021 0.2579-6.06 0.0211-9.082-0.1157v-7.617c1.573 0.1049 3.135 0.5359 4.734 0.4453 1.844-0.0761 4.05-0.0261 5.432-1.44 0.1136-0.5805-0.5478-1.167-0.7543-1.75-4.442-8.179-8.884-16.36-13.33-24.54h9.773c2.891 5.516 5.781 11.03 8.672 16.55 2.383-5.516 4.766-11.03 7.148-16.55 3.117-2e-5 6.234-3e-5 9.352-5e-5z"/>
     <path d="m845.7 289.6c0.1004 3.633-2.007 7.176-5.278 8.78-4.611 2.486-10.04 2.504-15.13 2.127-3.111-0.3121-6.19-1.001-9.121-2.095v-7.875c1.326-0.1843 2.284 1.022 3.48 1.406 2.999 1.37 6.25 2.488 9.598 2.173 2.526-0.1317 5.562-0.7813 6.762-3.272 0.7113-1.965 0.3618-4.816-1.833-5.667-2.746-0.9557-5.7-0.5506-8.555-0.6401h-2.632v-6.234c2.849-0.0511 5.708 0.1264 8.547-0.145 1.741-0.1186 3.73-1.164 3.812-3.115 0.3252-1.438-0.5199-2.947-1.94-3.375-4.291-1.493-9.019-0.4568-13.04 1.361-0.9925 0.3986-1.903 1.198-3.027 1.032v-7.336c6.476-2.22 13.59-3.079 20.31-1.504 3.121 0.7566 6.418 2.835 6.988 6.235 0.6902 3.303-1.093 6.777-4.027 8.364-0.7009 0.774-2.515 0.5483-2.783 1.436 3.144 0.4832 6.366 2.284 7.453 5.43 0.3195 0.9347 0.4203 1.93 0.4219 2.914z"/>
     <path d="m885.3 300h-11.04c-3.438-4.695-6.875-9.391-10.31-14.09h-2.203v14.09h-9v-34.9h9v14.23c1.676 0.0577 3.362-0.6005 4.343-2.005 2.896-3.514 3.935-8.498 7.914-11.1 2.832-1.58 6.177-1.144 9.282-1.124v7.57c-1.998 0.0886-4.367-0.4347-5.869 1.254-2.25 2.455-2.866 6.207-5.78 8.074 4.555 6 9.109 12 13.66 18z"/>
     <path d="m922.1 300h-9.305l-2.414-7.055h-12.94l-2.414 7.055h-9.07l12.89-34.9h10.36zm-13.9-13.45-4.289-12.52-4.289 12.52z"/>
    </g>
   </g>
  </g>
 </g>
 <style type="text/css">.custom-controls {
height: 64px;
fill: #fff;
}

.control-icon {
opacity: 0;
animation: icon-fade-in-out 4s ease-in-out infinite;
animation-fill-mode: forwards;
}

.stop {
animation-delay: .3s;
}

.play {
animation-delay: .5s;
}

.gamepad {
animation-delay: .7s;
padding: 0 0 0 20px;
}

@keyframes icon-fade-in-out {
0% {
opacity: 0;
}

10% {
opacity: 1;
}

80% {
opacity: 1;
}

90% {
opacity: 0;
}

100% {
opacity: 0;
}
}</style>
 <g id="Group" transform="matrix(.527 0 0 .5146 100.1 8.829)" fill="#76b83f" fill-rule="evenodd">
  <path d="m128.7 15.01v2.969h-3.175v7.937c0 0.7381 0.1406 1.234 0.3785 1.484 0.243 0.2489 0.7299 0.3704 1.445 0.3704 0.2405 0 0.497-0.0132 0.713-0.03343 0.2185-0.02111 1.38-0.05103 1.591-0.08798v3.397c-0.4234 0.06598-1.715 0.1038-2.151 0.1257-0.4369 0.02199-0.8756 0.03431-1.29 0.03431-0.6528 0-1.283-0.04839-1.865-0.1425-0.5869-0.09149-1.105-0.2745-1.554-0.5394-0.4446-0.2692-0.774-0.652-1.031-1.145-0.2565-0.4936-0.3641-1.145-0.3641-1.947v-9.452h-2.646v-2.969h2.646v-4.728h4.128v4.728z" stroke-width="1.151"/>
  <polygon transform="matrix(1.129 0 0 1.173 -46.89 -11.71)" points="80.72 21.09 80.72 36.47 76.5 36.47 76.5 21.09 71.16 21.09 71.16 17.62 86.06 17.62 86.06 21.09"/>
  <g stroke-width="1.151">
   <path d="m47.11 19.6c0.3785-1.043 0.9102-1.927 1.608-2.658 0.6968-0.7345 1.531-1.302 2.502-1.706 0.9721-0.4002 2.064-0.6027 3.276-0.6027 1.208 0 2.305 0.2023 3.288 0.6027 0.9823 0.4029 1.819 0.9703 2.518 1.706 0.6935 0.731 1.23 1.615 1.608 2.658 0.3769 1.042 0.5647 2.201 0.5647 3.478 0 1.283-0.188 2.433-0.5647 3.465-0.3777 1.03-0.9136 1.912-1.608 2.645-0.6986 0.732-1.535 1.293-2.518 1.683-0.9823 0.3916-2.081 0.5894-3.288 0.5894-1.211 0-2.304-0.198-3.276-0.5894-0.9704-0.3897-1.804-0.9511-2.502-1.683-0.6968-0.7329-1.228-1.615-1.608-2.645-0.3743-1.032-0.5656-2.181-0.5656-3.465 0-1.276 0.1914-2.436 0.5656-3.478m3.842 5.348c0.1195 0.6114 0.3227 1.158 0.6106 1.641 0.2845 0.4866 0.6682 0.8727 1.147 1.158 0.4759 0.2903 1.07 0.4319 1.785 0.4319 0.713 0 1.314-0.1417 1.8-0.4319 0.4877-0.285 0.8739-0.6712 1.161-1.158 0.2888-0.483 0.4928-1.029 0.6114-1.641 0.1195-0.6062 0.1795-1.227 0.1795-1.87 0-0.6379-0.06012-1.269-0.1795-1.885-0.1185-0.6176-0.3227-1.163-0.6114-1.639-0.287-0.4751-0.6731-0.8612-1.161-1.16-0.4853-0.3026-1.086-0.4469-1.8-0.4469-0.7147 0-1.31 0.1443-1.785 0.4469-0.4793 0.2982-0.8628 0.6845-1.147 1.16-0.2879 0.476-0.4911 1.021-0.6106 1.639-0.1195 0.6168-0.1795 1.248-0.1795 1.885 0 0.643 0.06012 1.265 0.1795 1.87"/>
   <path d="m90.63 27.22c0.6368 0.6422 1.547 0.9519 2.739 0.9519 0.8526 0 1.586-0.2156 2.204-0.6563 0.6148-0.4416 0.9933-0.9598 1.132-1.399h3.719c-0.5918 1.87-1.51 3.277-2.736 4.109-1.234 0.8199-2.721 1.228-4.466 1.228-1.211 0-2.303-0.205-3.278-0.6053-0.9721-0.4021-1.795-0.9765-2.468-1.717-0.6748-0.7435-1.197-1.628-1.564-2.658-0.3683-1.031-0.5521-2.168-0.5521-3.406 0-1.195 0.1888-2.304 0.5673-3.34 0.3751-1.031 0.912-1.925 1.607-2.676 0.6977-0.754 1.525-1.345 2.485-1.779 0.9628-0.4319 2.031-0.6484 3.202-0.6484 1.31 0 2.448 0.2622 3.423 0.7883 0.9721 0.5269 1.775 1.234 2.396 2.121 0.6249 0.8877 1.078 1.906 1.353 3.04 0.282 1.133 0.3803 2.355 0.3014 3.565h-11.11c0.05837 1.43 0.4107 2.443 1.042 3.084m4.781-8.395c-0.5107-0.5771-1.28-0.8762-2.31-0.8762-0.6765 0-1.235 0.1082-1.68 0.3466-0.4488 0.2393-0.8086 0.5269-1.073 0.8772-0.2701 0.3528-0.4565 0.7505-0.5673 1.139-0.1076 0.3932-0.1727 0.746-0.1931 1.076h6.878c-0.1989-1.209-0.5512-1.982-1.054-2.563"/>
   <path d="m106.7 15.01v2.31h0.1423c0.5343-0.9898 1.231-1.622 2.082-2.045 0.8536-0.4213 1.726-0.6422 2.624-0.6422 1.129 0 2.054 0.1548 2.779 0.4741 0.7239 0.3193 1.295 0.7636 1.713 1.329 0.4141 0.5656 0.7138 1.256 0.8806 2.069 0.1718 0.8164 0.2591 1.715 0.2591 2.707v9.852h-4.234v-9.05c0-1.317-0.1982-2.301-0.5952-2.952-0.3997-0.651-1.102-0.9765-2.116-0.9765-1.153 0-2.007 0.3572-2.525 1.07-0.5157 0.7091-0.7984 1.882-0.7984 3.512v8.398h-4.128v-16.06z"/>
   <path d="m73.58 14.63s-0.07192-0.0045-0.1008-0.0045c-0.5376 0-1.055 0.0827-1.549 0.2446-0.4962 0.168-0.9644 0.3994-1.401 0.6968-0.4369 0.3026-0.8222 0.6379-1.16 1.061-0.3387 0.4205-0.6054 0.9132-0.8027 1.354h-0.06684v-2.969h-4.022v16.06h4.234v-7.226c0-0.7188 0.06943-1.387 0.21-2.009 0.1406-0.6176 0.3726-1.16 0.7011-1.623 0.3295-0.4645 0.7612-0.8287 1.294-1.097 0.5369-0.2692 1.19-0.4038 1.966-0.4038 0.2252 0 0.4868 0.0132 0.6986 0.03695z"/>
   <path d="m84.64 14.63c-0.1058 0-0.08129-0.0045-0.1176-0.0045-0.5343 0-1.058 0.0827-1.554 0.2446-0.497 0.168-0.9662 0.3994-1.4 0.6968-0.4378 0.3026-0.8281 0.6379-1.164 1.061-0.337 0.4205-0.6088 0.9132-0.8052 1.354h-0.03974v-2.969h-4.022v16.06h4.234v-7.226c0-0.7188 0.06006-1.387 0.1974-2.009 0.138-0.6176 0.3649-1.16 0.6953-1.623 0.3252-0.4645 0.7544-0.8287 1.289-1.097 0.5361-0.2692 1.204-0.4038 1.976-0.4038 0.2252 0 0.4996 0.0132 0.7113 0.03695z"/>
   <path d="m31.01 31.17v-2.31h-0.08468c-0.2794 0.4399-0.5918 0.8666-0.9441 1.195-0.3514 0.3326-0.7062 0.6158-1.069 0.835-0.359 0.2199-0.707 0.3826-1.035 0.4866-0.3328 0.1029-0.6181 0.1574-0.856 0.1574-0.6012 0-1.084-0.06686-1.443-0.2023-0.359-0.139-0.602-0.3087-0.8138-0.5155v5.961h-4.234v-21.77h4.234v9.099c0 1.333 0.2007 2.33 0.6004 2.986 0.4031 0.652 1.113 0.9818 2.136 0.9818 1.161 0 2.002-0.3615 2.519-1.079 0.5207-0.7179 0.7781-1.9 0.7781-3.543v-8.446h4.234v16.16z"/>
  </g>
 </g>
</svg>
