<svg width="200" height="200" version="1.1" viewBox="1 0 33 42" xmlns="http://www.w3.org/2000/svg">
 <g transform="matrix(.21 0 0 .21 -3.913 -.3629)">
  <g opacity=".7">
   <g opacity=".74">
    <radialGradient id="SVGID_1_" cx="96.91" cy="98.31" r="67" gradientTransform="matrix(1,0,0,-1,0,202)" gradientUnits="userSpaceOnUse">
     <stop stop-color="#EEF5E8" offset=".5475"/>
     <stop stop-color="#DBE5D3" offset=".8575"/>
     <stop stop-color="#C6D3BB" offset="1"/>
    </radialGradient>
    <path d="m41.3 130c-10.83-21.34-8.941-49.53 7.643-67.45 11.4-12.63 27.97-18.63 43.76-23.56 13.23-3.902 28.8-4.964 40.48 3.651 11.71 8.485 16.16 22.93 22.64 35.2 8.583 17.9 7.936 40.15-3.074 56.89-10.84 17.26-30.45 26.23-49.34 31.59-13.29 3.97-29 4.352-40.42-4.632-10.45-7.939-15.9-20.3-21.69-31.68zm23.2-11.3c4.481 8.502 6.399 18.85 13.68 25.58 6.976 4.065 15.28 0.1836 21.94-2.761 12.89-6.129 26.04-15.33 30.21-29.71 3.188-10.67-1.351-21.44-5.794-31-2.857-5.617-4.05-13.32-10.14-16.4-9.88-1.637-19.61 2.482-28.88 5.39-10.77 3.015-21.26 10.1-24.59 21.29-2.75 9.216-0.3766 19.14 3.577 27.62z" fill="url(#SVGID_1_)"/>
    <radialGradient id="SVGID_00000044880961554201623970000002343288006731788190_" cx="96.06" cy="97.24" r="32.88" gradientTransform="matrix(1 0 0 -.9869 0 198.1)" gradientUnits="userSpaceOnUse">
     <stop stop-color="#EEF5E8" offset=".5475"/>
     <stop stop-color="#DBE5D3" offset=".8575"/>
     <stop stop-color="#C6D3BB" offset="1"/>
    </radialGradient>
    <path d="m66 120c-0.7-1.4-1.3-3-1.8-4.4-0.2-0.7-0.3-1.4-0.5-2-0.1-0.7-0.3-1.4-0.4-2s-0.1-1.2-0.2-1.8c0-0.6-0.1-1.3-0.1-1.8 0-1.1 0-2.2 0.1-3.3 0.4-4.2 1.4-7.6 2.7-10.9s2.9-6.3 4.9-9.2 4.4-5.7 7.8-8.4l1.3-1c0.4-0.3 1-0.7 1.5-1s1-0.6 1.6-0.9c0.5-0.3 1-0.5 1.4-0.7 0.9-0.5 1.9-0.9 2.9-1.2l1.5-0.5 1.6-0.4c4.2-1.1 8.6-1.4 13-0.7s8.8 2.3 12.8 5c3.9 2.7 7.3 6.6 9.5 10.9 2.2 4.4 3 8.8 3.2 12.9 0.1 4.1-0.4 8.1-1.6 11.9s-3 7.5-5.5 10.9c-1.3 1.7-2.8 3.3-4.4 4.8-0.8 0.8-1.8 1.4-2.7 2.1-0.5 0.4-0.9 0.6-1.3 0.9l-1.3 0.8c-7 4-14.8 5.7-22.7 4.8-4-0.4-8.1-1.5-12.2-3.7-1-0.5-2.1-1.2-3.1-1.9-1-0.6-2-1.6-3-2.4-0.5-0.4-1-0.9-1.4-1.5-0.5-0.5-0.9-1.1-1.4-1.6-0.7-1.2-1.5-2.5-2.2-3.7zm26.7-14.1c-0.1-0.3-0.3-0.5-0.4-0.7-0.1-0.1-0.1-0.2-0.2-0.3s-0.2-0.1-0.2-0.2c-0.1-0.1-0.3-0.2-0.3-0.2s-0.1 0-0.1-0.1h0.1c0.1 0 0.1 0.1 0.2 0.1s0.2 0.1 0.4 0.1 0.3 0.1 0.5 0.1c0.7 0.1 1.5 0.1 2.3-0.1s1.5-0.4 2.1-0.8c0.1 0 0.1-0.1 0.2-0.1s0.2-0.1 0.2-0.1 0.1 0 0.1-0.1l0.3-0.3c0.3-0.3 0.6-0.9 0.8-1.6s0.3-1.4 0.3-2c0-0.5-0.1-0.8 0-0.6s0.3 0.4 0.4 0.4c0.1 0.1 0 0-0.2-0.1-0.2 0-0.6 0-0.9 0.1h-0.1l-0.1 0.1c-0.1 0-0.2 0.1-0.3 0.1 0 0-0.1 0-0.1 0.1h0.1v0l-0.1 0.1c-0.3 0.2-1 1-1.6 1.9-0.7 0.9-1.2 2.1-1.7 3.2-0.4 1.1-0.7 2.2-0.7 2.7v0.2 0-0.1-0.3c0-0.1-0.1-0.2-0.1-0.3 0 0 0-0.1-0.1-0.2 0-0.1-0.1-0.2-0.1-0.3-0.5-0.3-0.6-0.5-0.7-0.7z" fill="url(#SVGID_00000044880961554201623970000002343288006731788190_)"/>
    <radialGradient id="SVGID_00000041276445218702278420000001351939547935073211_" cx="100" cy="102" r="95.83" gradientTransform="matrix(1,0,0,-1,0,202)" gradientUnits="userSpaceOnUse">
     <stop stop-color="#EEF5E8" offset=".5475"/>
     <stop stop-color="#DBE5D3" offset=".8575"/>
     <stop stop-color="#C6D3BB" offset="1"/>
    </radialGradient>
    <path d="m13.4 117.6c-7.787-23.46-2.392-49.73 11.27-69.92 19.15-30.31 56.16-49.32 92.05-43.7 29.6 4.102 55.46 26.2 64.53 54.63 5.553 17.56 6.896 36.28 6.154 54.61-0.6919 16.7-7.261 33.2-19.57 44.73-15.02 14.52-32.73 27.85-53.54 32.29-11.77 1.287-23.68-0.2432-35.5-0.2297-15.73-0.6748-34.15-2.16-44.25-16.04-10.91-15.6-13.8-34.99-19.99-52.64l-0.5782-1.86zm23.3-7.3c5.563 16.1 8.672 33.31 17 48.3 6.46 7.974 18.18 6.441 27.31 8.156 10.22 0.8612 20.37 2.714 30.59 3.291 18.71-2.448 35.28-13.97 47.76-27.65 12.25-13.93 9.558-34.28 5.138-50.79-4.609-20.02-16.43-39.22-35.35-48.45-30.93-15.2-73.71-3.157-89.35 28.31-6.031 11.91-6.963 26.12-3.108 38.84z" fill="url(#SVGID_00000041276445218702278420000001351939547935073211_)"/>
   </g>
  </g>
  <g fill="none" stroke="#aec0a1" stroke-linecap="round" stroke-miterlimit="10" stroke-width="2">
   <line x1="41.2" x2="43.2" y1="56.8" y2="58.2"/>
   <line x1="47.4" x2="53.6" y1="61" y2="65.3" stroke-dasharray="5.0029, 5.0029"/>
   <line x1="55.7" x2="57.7" y1="66.7" y2="68.1"/>
  </g>
  <g fill="none" stroke="#aec0a1" stroke-dasharray="5" stroke-linecap="round" stroke-miterlimit="10" stroke-width="2">
   <line x1="159.6" x2="142" y1="56.4" y2="67.5"/>
   <line x1="161.5" x2="143" y1="110.1" y2="99.1"/>
   <line x1="42.5" x2="59.3" y1="122.8" y2="109.4"/>
  </g>
  <path d="m26.6 57c-1.9 0-3.5-0.7-4.5-2-0.8-1.3-1-3.1-0.3-4.9 0.7-1.9 2.2-3.6 4.1-4.9 2-1.3 4-2 6-2l-13.5-19.8c-0.1-0.1-0.1-0.2 0-0.3 1.2-1 4.3-2.9 7.9-2.9 0.8 0 1.5 0.1 2.4 0.3 2.7 0.6 4.9 3.4 6.2 5.6 0.1 0.1 0 0.2-0.1 0.3 0 0-0.1 0.1-0.2 0.1s-0.1 0-0.2-0.1c-1.1-1.1-3.4-2.9-6.4-2.9-0.4 0-0.7 0-1 0.1-1.6 0.2-3.1 0.6-4.6 1.3l13.6 19.9c0.1 0.1 0.2 0.2 0.3 0.4 0.8 1.2 0.9 3 0.3 4.9-0.7 1.9-2.2 3.6-4.1 4.9-1.8 1.2-4 2-5.9 2z" fill="#86a072"/>
  <path d="m70.7 201.2s0.6-11.1 5.7-16.9c0.7-0.8 1.3-1.4 1.8-1.8 3.7-3.4 7.6-5 10.7-6.1 8.6-2.9 11-1 19.8-3.6 1.1-0.3 5.6-1.2 10.3-4.3 5.7-3.7 9.4-6.6 16.8-13.7 0 0 3.9-3.8 12.1-16 0.5-0.7 1.4-2.1 0.9-3-0.8-1.3-4.5-1-7.3 0.4-4.7 2.3-3.7 6.5-9 9.9-2.9 1.8-5 3.3-8.1 5.8-3.8 3-8.7 3.3-10.9 3.9-4.5 1.3-15 2-23 7.3-21.2 13.8-25.5 16.3-32.8 20-2.2 1.1-13.2 17.8-13.2 17.8z" fill="#c8cdc5" stroke="#48563d" stroke-miterlimit="10"/>
  <path d="m43.1 201.8c11-23.4 15.8-38.5 27-45.9 1.9-1.3 6.2-2 10.1-2 8-0.1 10.4 0.8 15.1 0.3 5.1-0.6 11.6-4.9 15.5-6.1 3.7-1.1 8.5 0 8.9 1.7 0.3 1-6.4 6.2-11.6 9.2-5.8 3.3-14.5 4.5-15.3 5.3" fill="#c8cdc5" stroke="#48563d" stroke-miterlimit="10"/>
  <polygon points="137 54.8 137 132.3 63 132.3 63 36.1 117.3 36.1" fill="#f9fcf7"/>
  <path d="m116.9 37.1 19.1 18.2v76.1h-72v-94.3h52.9m0.4-2h-54.3c-0.6 0-1 0.4-1 1v96.3c0 0.6 0.4 1 1 1h74c0.6 0 1-0.4 1-1v-77.6c0-0.3-0.1-0.5-0.3-0.7l-19.7-18.8c-0.2-0.1-0.4-0.2-0.7-0.2z" fill="#48563d"/>
  <polygon points="137 54.8 137 55.4 116.7 55.4 116.7 36.1 117.3 36.1" fill="#f9fcf7"/>
  <path d="m117.7 37.8 17.4 16.6h-17.4v-16.6m-0.4-2.7h-0.6c-0.6 0-1 0.4-1 1v19.4c0 0.6 0.4 1 1 1h20.3c0.6 0 1-0.4 1-1v-0.6c0-0.3-0.1-0.5-0.3-0.7l-19.7-18.9c-0.2-0.1-0.4-0.2-0.7-0.2z" fill="#48563d"/>
  <g stroke="#48563d" stroke-miterlimit="10">
   <linearGradient id="SVGID_00000039813770321445391980000013986257447701223552_" x1="69.1" x2="131.2" y1="113.8" y2="113.8" gradientTransform="matrix(1,0,0,-1,0,202)" gradientUnits="userSpaceOnUse">
    <stop stop-color="#4F8328" offset="0"/>
    <stop stop-color="#69AE35" offset=".2905"/>
    <stop stop-color="#A5CE86" offset="1"/>
   </linearGradient>
   <path d="m130.2 81.5c-2.643-11.34-12.47-20.54-23.85-22.74-6.748-1.019-13.93-0.7213-20.05 2.585-10.96 5.339-18.51 17.76-16.99 30.01 0.795 11.99 9.459 22.9 20.79 26.74-5.309-13.66-10.6-27.33-15.9-41 2.394-2.155 7.4-1.765 10.74-2.968 2.496-0.2304 2.458 3.94 3.702 5.596 2.515 5.936 5.056 12.11 9.491 16.9 2.625 3.149 7.457 3.866 10.87 1.605 3.12-1.624 4.456-5.141 3.683-8.49-0.5313-4.678-3.19-8.72-4.962-12.99-0.4483-1.847-3.083-4.668-2.029-6.05 3.214-0.2779 6.591-1.661 9.714-1.261 2.841 5.179 5.128 10.66 7.971 15.85 1.764 3.297 4.035 6.665 7.515 8.313 0.4896-4.024 0.3602-8.171-0.7-12.1z" fill="url(#SVGID_00000039813770321445391980000013986257447701223552_)"/>
   <linearGradient id="SVGID_00000101079608708816215080000002023039855637586816_" x1="98" x2="128" y1="93.41" y2="93.41" gradientTransform="matrix(1,0,0,-1,0,202)" gradientUnits="userSpaceOnUse">
    <stop stop-color="#4F8328" offset="0"/>
    <stop stop-color="#69AE35" offset=".2905"/>
    <stop stop-color="#A5CE86" offset="1"/>
   </linearGradient>
   <path d="m127.7 102.3c-3.493-0.4248-6.976-1.759-9.45-4.334-0.8853-0.8809-0.7683 1.337-1.029 2.008-1.455 4.339-5.881 7.058-10.3 7.425-2.72 0.228-5.457 0.1404-8.181 0.2516-1.42 0.2072 0.1203 1.646 0.5584 2.455 1.397 2.497 2.662 5.114 4.151 7.516 0.6088 0.7952 1.053 2.141 2.295 1.935 3.658-0.79 7.198-2.188 10.43-4.073 3.473-2.107 6.417-5.013 8.922-8.19 1.102-1.48 2.126-3.045 2.858-4.74 0.0575-0.1489-0.1119-0.2884-0.2531-0.2531z" fill="url(#SVGID_00000101079608708816215080000002023039855637586816_)"/>
  </g>
  <path d="m160.1 146.8c-0.4 0-0.8-0.3-1-0.8-0.5-1.3-2.3-6.4-2.8-7.7-1.1-3.1-2.3-6.2-3.4-9.4l-1.8-4.8c-0.2-0.6 0.1-1.1 0.6-1.3l2.4-0.9c0.1 0 0.2-0.2 0.1-0.3l-0.3-0.8-0.6-1.8c-0.2-0.6 0-0.9 0.5-1.2 1.5-0.8 3.2-1.3 4.9-1.7 1.1-0.2 2.1-0.3 3-0.3 0.5 0 1 0 1.5 0.1 1.8 0.2 3.3 0.7 4.6 1.5h0.2c0.1 0 0.1-0.1 0.2-0.1l0.2-0.4c0.1-0.3 0.2-0.5 0.3-0.8 0.9-1.8 2.2-3.4 4-4.7s3.7-2.2 5.9-2.8h0.2c0.3-0.1 0.5-0.1 0.7-0.1 0.6 0 0.9 0.4 1.1 1.1l0.1 0.2c0.2 0.5 0.3 0.9 0.5 1.4 0 0.1 0.2 0.5 0.6 0.5 0.1 0 0.2 0 0.4-0.1 0.6-0.3 1.2-0.5 1.9-0.7 0.2-0.1 0.3-0.1 0.5-0.1 0.4 0 0.8 0.2 0.9 0.7 0.3 0.8 0.6 1.6 0.9 2.5s0.6 1.7 0.9 2.6c0.6 1.6 3.3 8.9 3.3 8.9l1.1 2.9c0.6 1.7 1.2 3.4 1.9 5.1 0.1 0.3 0.1 0.7-0.1 0.9-0.1 0.2-0.3 0.4-0.8 0.5l-0.9 0.1c-1.6 0.2-3.2 0.4-4.8 0.7-3.3 0.7-6.2 2-8.6 3.8l-0.2 0.1c-0.2 0.2-0.5 0.3-0.6 0.6-0.4 0.5-0.9 0.7-1.7 0.7h-0.2-0.5c-2.3 0-4.6 0.5-7.3 1.7-2.1 0.9-4.3 2.1-6.6 3.7-0.1 0.1-0.2 0.1-0.3 0.2-0.4 0.2-0.7 0.3-0.9 0.3zm-5.5-22.9c-0.3 0.1-0.5 0.2-0.8 0.3l-0.3 0.1c-0.1 0.1-0.2 0.2-0.1 0.3l7.1 19.2c0 0.1 0.1 0.1 0.2 0.2h0.2c3.6-2.5 7.2-4 10.8-4.8 0.1 0 0.1-0.1 0.2-0.1v-0.2c0-0.1-0.1-0.3-0.2-0.3l-0.8-0.2h-0.2-1.2c-2.3 0-4.6 0.6-7 1.7-0.2 0.1-0.4 0.1-0.6 0.1-0.4 0-0.8-0.3-1-0.7l-0.7-2-3.3-9.1-0.5-1.5c-0.3-0.8-0.6-1.7-0.9-2.5-0.3-0.2-0.6-0.5-0.9-0.5 0.1 0 0 0 0 0zm7.2-6c-1.5 0-3.1 0.3-5.1 0.9-0.5 0.2-0.8 0.3-0.9 0.5-0.1 0.3 0 0.5 0.2 1.1l0.1 0.2 6.2 17c0 0.1 0.1 0.1 0.1 0.1h0.2c2.5-0.9 4.6-1.4 6.7-1.4 1.6 0 3.1 0.3 4.6 0.8h0.1c0.1 0 0.1 0 0.2-0.1s0.1-0.2 0.1-0.3l-3.2-8.6c-0.9-2.6-1.9-5.1-2.8-7.7-0.1-0.3-0.3-0.5-0.6-0.7-1.4-1.1-3.1-1.7-5.1-1.8h-0.8zm22-4.7c-0.1 0-0.1 0 0 0l-1.4 0.5c-0.1 0-0.2 0.2-0.1 0.3l3.6 9.7c0.7 1.8 1.3 3.6 2 5.4 0.2 0.6 0.3 1 0.1 1.4-0.1 0.3-0.5 0.5-1 0.6-2.1 0.5-4.1 1.5-5.8 2.8-0.8 0.6-1.5 1.3-2.2 2.2-0.1 0.1-0.1 0.2 0 0.3 0 0.1 0.1 0.1 0.2 0.1h0.1c3.3-1.8 7.1-2.9 11.6-3.4 0.1 0 0.1-0.1 0.2-0.1v-0.2l-7.1-19.3c0-0.1-0.1-0.1-0.1-0.1l-0.1-0.2zm-5.1-2.4h-0.1c-0.1 0-0.2 0-0.3 0.1-1.8 0.7-3.2 1.4-4.4 2.3-2 1.5-3.3 3.3-3.9 5.5-0.1 0.3-0.1 0.6 0 0.9 0.3 0.8 0.6 1.6 0.8 2.4l4.2 11.3c0.2 0.6 1 2.8 1 2.8 0 0.1 0.1 0.2 0.2 0.2s0.2 0 0.2-0.1c1.8-3.2 4.6-5.3 9-6.9 0.1 0 0.1-0.1 0.1-0.1v-0.2l-6.6-18c0.1-0.1 0-0.2-0.2-0.2z" fill="#86a072"/>
  <path d="m179.3 63h-0.4c-0.3-0.1-0.7-0.2-1.1-0.4-1.4-0.8-2.9-1.6-4.3-2.4-0.8-0.5-1.6-0.9-2.3-1.4l-1.5-0.9c-0.6-0.4-3.1-1.8-3.8-2.2-0.9-0.5-4.5-2.6-4.5-2.6l-5.5-3.2c-0.9-0.5-1.9-1.1-2.8-1.7-0.7-0.4-1.1-1.1-1.2-2-0.1-0.4-0.1-0.8 0-1.3 0-0.1 0.1-0.3 0.2-0.4l0.1-0.2c0.4-0.7 5.7-9.8 5.7-9.8l1.7-2.8 1.5-2.6c0.6-1.1 1.2-2.1 1.9-3.2 0.4-0.7 0.8-1.4 1.3-2.1 0.3-0.6 0.8-0.9 1.5-1.1 0.2-0.1 0.4-0.1 0.7-0.2l0.3-0.1c0.5 0 1 0.2 1.7 0.6 1.2 0.7 2.5 1.4 3.8 2.2l2.2 1.3c1.3 0.7 2.6 1.5 3.8 2.2 0.7 0.4 3.9 2.3 3.9 2.3l1.8 1.1c0.8 0.5 1.7 1 2.5 1.5s1.7 1 2.5 1.5l1.7 1 0.8 0.5c0.4 0.3 0.9 0.5 1.3 0.8 0.7 0.4 1.1 1 1.4 1.9 0.2 0.7 0.1 1.4-0.3 2.1-0.3 0.5-0.6 1-0.8 1.5-0.3 0.5-0.6 1.1-0.9 1.6-0.3 0.6-0.7 1.1-1 1.7l-0.5 0.9-1.3 2.3-1.7 3-0.9 1.5c-0.4 0.7-0.9 1.5-1.3 2.2-0.9 1.6-1.9 3.2-2.9 4.8-0.2 0.3-0.3 0.5-0.5 0.8l-0.3 0.5c-0.2 0.3-0.5 0.5-0.9 0.7-0.7-0.1-1.1 0.1-1.6 0.1zm-1.1-8c-0.1 0-0.2 0-0.2 0.1l-1.7 3c-0.1 0.1 0 0.3 0.1 0.3l2.9 1.7h0.1 0.1c0.1 0 0.1-0.1 0.2-0.1l1.7-3v-0.2c0-0.1-0.1-0.1-0.1-0.2l-2.9-1.7c-0.1 0.2-0.2 0.1-0.2 0.1zm-7.2-4.2c-0.1 0-0.2 0-0.2 0.1v0.1c0 0.1-0.1 0.1-0.1 0.2l-1.5 2.5c-0.1 0.2-0.2 0.3-0.1 0.4 0 0.1 0.2 0.2 0.3 0.3 0.4 0.2 0.7 0.4 1 0.6l1.6 1h0.1c0.1 0 0.2 0 0.2-0.1l1.6-2.8c0.1-0.1 0.1-0.2 0.1-0.4s-0.2-0.2-0.2-0.3c-0.7-0.4-1.3-0.8-1.9-1.1l-0.8-0.4-0.1-0.1zm-7.3-4.2c-0.1 0-0.1 0.1-0.2 0.1l-1.7 3c-0.1 0.1 0 0.3 0.1 0.3l3 1.7h0.1c0.1 0 0.2 0 0.2-0.1l1.7-2.8s0.1-0.2 0.1-0.3c0-0.2-0.2-0.2-0.2-0.3-0.3-0.2-0.7-0.4-1-0.6l-1.8-1h-0.3zm-7.1-4.1c-0.1 0-0.2 0-0.2 0.1l-1.7 3v0.2c0 0.1 0.1 0.1 0.1 0.2l2.9 1.7h0.1c0.1 0 0.2 0 0.2-0.1l1.7-3v-0.2c0-0.1-0.1-0.1-0.1-0.2l-2.9-1.7h-0.1zm15.4-6.5c-0.1 0-0.2 0-0.2 0.1l-5.1 8.7v0.2c0 0.1 0.1 0.1 0.2 0.1l11.1 0.7c0.1 0 0.2 0 0.2-0.1s0.1-0.3 0-0.3l-6.1-9.3s0-0.1-0.1-0.1zm16.2 1.8c-0.1 0-0.1 0.1-0.2 0.1l-1.7 3v0.2c0 0.1 0.1 0.1 0.1 0.2l2.9 1.7h0.1 0.1c0.1 0 0.1-0.1 0.2-0.1l1.7-3c0.1-0.1 0-0.3-0.1-0.3l-2.9-1.7c0-0.1-0.1-0.1-0.2-0.1zm-7.1-4.2c-0.1 0-0.2 0-0.2 0.1l-1.7 3v0.2c0 0.1 0.1 0.1 0.1 0.2l2.9 1.7h0.1c0.1 0 0.2 0 0.2-0.1l1.7-3v-0.2c0-0.1-0.1-0.1-0.1-0.2l-2.9-1.7h-0.1zm-7.3-4.2c-0.1 0-0.2 0-0.2 0.1l-1.7 3v0.2c0 0.1 0.1 0.1 0.1 0.2l0.2 0.1s1.9 1.1 2.6 1.5c0.1 0 0.2 0.1 0.3 0.1 0.2 0 0.3-0.1 0.4-0.3 0.4-0.7 0.7-1.3 1.1-2l0.3-0.5c0.2-0.4 0.2-0.5-0.2-0.7l-1.9-1.2c-0.2-0.1-0.3-0.2-0.5-0.3l-0.2-0.1c-0.2-0.1-0.2-0.1-0.3-0.1zm-7.2-4.2c-0.1 0-0.1 0.1-0.2 0.1l-1.7 3v0.2c0 0.1 0.1 0.1 0.1 0.2l2.9 1.7h0.1c0.1 0 0.2 0 0.2-0.1l1.7-3v-0.2c0-0.1-0.1-0.1-0.1-0.2l-2.9-1.7h-0.1c0.1 0 0.1 0 0 0z" fill="#86a072"/>
  <path d="m12.8 144.8c0-1.6 0.3-3.2 0.8-4.7 0.3-0.9 0.7-1.8 1.1-2.7l1.2-2.4c0.6-1 1.2-2.1 1.8-3.1l1.5-2.1c0.6-0.8 1.3-1.5 2.1-2.1 0.9-0.8 1.9-1.4 3-1.8 0.6-0.3 1.3-0.5 2-0.6 0.9-0.1 1.8-0.1 2.6 0.1 0.9 0.2 1.8 0.6 2.5 1.1 0.6 0.4 1.2 0.8 1.7 1.3 0.4 0.3 0.7 0.8 1.1 1.2 0.5 0.6 1 1.2 1.7 1.5 0.4 0.2 0.8 0.3 1.2 0.5 0.5 0.2 1 0.3 1.5 0.4s1 0.1 1.5 0 1.1-0.2 1.6-0.4c1-0.2 2.1-0.3 3.1-0.2 0.9 0.1 1.8 0.3 2.6 0.6 0.9 0.3 1.6 0.8 2.2 1.4 0.7 0.7 1.2 1.4 1.7 2.3 0.4 0.8 0.7 1.6 0.9 2.4 0.4 1.3 0.5 2.7 0.6 4.1 0.1 1.3 0 2.7-0.2 4-0.2 1.5-0.4 3.1-0.8 4.6-0.3 1.3-0.7 2.5-1.2 3.7-0.5 1-1 2-1.6 2.8-0.4 0.6-0.9 1.1-1.5 1.4-1 0.6-1.9 0.6-2.9-0.1-0.8-0.6-1.4-1.3-1.9-2.2s-1-1.9-1.5-2.8c-0.4-0.8-0.8-1.7-1.2-2.5-0.1-0.2-0.2-0.4-0.2-0.7-0.1-0.3-0.3-0.4-0.5-0.6-0.6-0.6-1.4-0.8-2.1-1.1-1-0.3-1.9-0.6-2.9-0.9-2-0.7-4-1.3-6-2-0.7-0.2-1.3-0.4-2-0.7-0.5-0.1-0.9-0.1-1.4-0.1-0.4 0-0.7 0.3-1.1 0.5-0.8 0.5-1.7 1-2.5 1.4-1.1 0.5-2.2 1.1-3.3 1.6-0.8 0.4-1.6 0.6-2.5 0.6-1.2 0-2-0.5-2.5-1.7-0.1-0.5-0.2-1.3-0.2-2zm14.8-7.4c0.1 0 0.1 0 0.2 0.1 0.7 0.2 1.3 0.4 2 0.6 0.1 0 0.2 0 0.3-0.1 0.1-0.2 0.3-0.3 0.4-0.5 0.4-0.6 0.6-1.2 0.4-1.9-0.1-0.2-0.1-0.3-0.3-0.3-0.3-0.1-0.6-0.2-0.9-0.3-0.4-0.1-0.8-0.3-1.1-0.4 0.3-0.8 0.5-1.6 0.8-2.4 0-0.1 0-0.2-0.1-0.3-0.8-0.7-1.6-0.9-2.6-0.8-0.1 0.4-0.3 0.9-0.4 1.3s-0.3 0.9-0.4 1.3c-0.7-0.2-1.5-0.5-2.2-0.7h-0.3c-0.3 0.2-0.5 0.4-0.6 0.7-0.3 0.6-0.3 1.2-0.1 1.8 0 0.1 0.1 0.1 0.2 0.2 0.5 0.2 0.9 0.3 1.4 0.5 0.3 0.1 0.5 0.2 0.8 0.3-0.2 0.8-0.5 1.5-0.7 2.2v0.2c0.2 0.2 0.4 0.5 0.6 0.6 0.6 0.4 1.3 0.4 1.9 0.2 0.1 0 0.1-0.1 0.1-0.2 0.1-0.6 0.3-1.4 0.6-2.1zm20.1 6.6c1.2 0 2.2-0.9 2.3-2.1 0.1-1.3-0.9-2.3-2.1-2.4-1.3-0.1-2.4 0.9-2.4 2.2-0.1 1.2 0.9 2.3 2.2 2.3zm-6.4-7c0 1.3 1 2.3 2.3 2.3 1.2 0 2.2-1 2.2-2.3 0-1.2-1-2.3-2.3-2.2-1.2 0-2.2 1-2.2 2.2zm2.7 5.7c0-1.2-1-2.2-2.2-2.2s-2.4 1-2.3 2.4c0.1 1.1 1 2.1 2.3 2.1 1.2 0 2.2-1 2.2-2.3z" fill="#86a072"/>
 </g>
</svg>
