<svg width="139.7" height="156.1" version="1.1" viewBox="0 0 140 156" xmlns="http://www.w3.org/2000/svg">
 <rect x="-.503" y="-.595" width="141" height="158" rx="0" ry="0" fill="#fff" style="paint-order:stroke fill markers"/>
 <g stroke-linejoin="round">
  <path d="m106.8 46.77-2.04 8.738c-5.779 2.396-10.92 0.4485-15.09-3.033l4.091-18.99c1.52 3.172 2.986 6.72 4.562 9.503 1.559 2.692 3.511 4.629 6.674 4.235z" fill="#fff"/>
  <rect x="25.82" y="19.88" width="94.57" height="101" rx="5.26" ry="5.545" clip-rule="evenodd" fill="#e3e3e3" fill-rule="evenodd" image-rendering="optimizeQuality" shape-rendering="geometricPrecision" style="paint-order:stroke fill markers"/>
 </g>
 <g transform="translate(-19.07 -7.31)" aria-label="UltraISO-Install.exe">
  <path d="m108.3 147.3h-1.552v-1.851h1.552z"/>
  <path d="m117.1 143.8h-5.345q0 0.6689 0.2013 1.169 0.2013 0.4936 0.552 0.8118 0.3377 0.3117 0.7988 0.4676 0.4676 0.1559 1.026 0.1559 0.7403 0 1.487-0.2922 0.7533-0.2987 1.072-0.5845h0.0649v1.331q-0.6169 0.2598-1.26 0.4351t-1.351 0.1753q-1.805 0-2.818-0.9741-1.013-0.9806-1.013-2.779 0-1.779 0.9676-2.825 0.9741-1.046 2.559-1.046 1.468 0 2.26 0.8572 0.7988 0.8572 0.7988 2.435zm-1.188-0.9352q-6e-3 -0.9611-0.4871-1.487-0.4741-0.526-1.448-0.526-0.9806 0-1.565 0.578-0.578 0.578-0.6559 1.435z"/>
  <path d="m125 147.3h-1.539l-2.059-2.786-2.072 2.786h-1.422l2.831-3.617-2.805-3.637h1.539l2.046 2.741 2.052-2.741h1.429l-2.851 3.572z"/>
  <path d="m132.3 143.8h-5.345q0 0.6689 0.2013 1.169 0.2013 0.4936 0.552 0.8118 0.3377 0.3117 0.7988 0.4676 0.4676 0.1559 1.026 0.1559 0.7403 0 1.487-0.2922 0.7533-0.2987 1.072-0.5845h0.0649v1.331q-0.6169 0.2598-1.26 0.4351t-1.351 0.1753q-1.805 0-2.818-0.9741-1.013-0.9806-1.013-2.779 0-1.779 0.9676-2.825 0.9741-1.046 2.559-1.046 1.468 0 2.26 0.8572 0.7988 0.8572 0.7988 2.435zm-1.188-0.9352q-6e-3 -0.9611-0.4871-1.487-0.4741-0.526-1.448-0.526-0.9806 0-1.565 0.578-0.578 0.578-0.6559 1.435z"/>
 </g>
 <g transform="matrix(1.001 0 0 .9986 -4.692 -8.619)" stroke-width=".319" aria-label="uTorrent">
  <path d="m42.47 148.8h-1.171v-0.7726q-0.5919 0.4673-1.134 0.7165t-1.196 0.2492q-1.097 0-1.707-0.6667-0.6106-0.6729-0.6106-1.969v-4.517h1.171v3.963q0 0.5296 0.04985 0.9097 0.04985 0.3738 0.2118 0.6418 0.1682 0.2742 0.4362 0.3988 0.2679 0.1246 0.7788 0.1246 0.4548 0 0.9907-0.2368 0.5421-0.2368 1.009-0.6044v-5.196h1.171z"/>
  <path d="m51.49 140.6h-3.315v8.181h-1.234v-8.181h-3.315v-1.097h7.863z"/>
  <path d="m57.2 145.3q0 1.701-0.8723 2.685-0.8723 0.9845-2.337 0.9845-1.477 0-2.349-0.9845-0.8661-0.9845-0.8661-2.685 0-1.701 0.8661-2.685 0.8723-0.9907 2.349-0.9907 1.464 0 2.337 0.9907 0.8723 0.9845 0.8723 2.685zm-1.209 0q0-1.352-0.5296-2.006-0.5296-0.6605-1.47-0.6605-0.9533 0-1.483 0.6605-0.5234 0.6542-0.5234 2.006 0 1.308 0.5296 1.988 0.5296 0.6729 1.477 0.6729 0.9346 0 1.464-0.6667 0.5358-0.6729 0.5358-1.994z"/>
  <path d="m63.36 143.1h-0.06231q-0.2617-0.0623-0.5109-0.0872-0.243-0.0311-0.5795-0.0311-0.5421 0-1.047 0.243-0.5047 0.2368-0.972 0.6168v4.941h-1.171v-6.96h1.171v1.028q0.6978-0.5608 1.227-0.7913 0.5358-0.2368 1.09-0.2368 0.3053 0 0.4424 0.0187 0.1371 0.0125 0.4112 0.0561z"/>
  <path d="m68.8 143.1h-0.06231q-0.2617-0.0623-0.5109-0.0872-0.243-0.0311-0.5795-0.0311-0.5421 0-1.047 0.243-0.5047 0.2368-0.972 0.6168v4.941h-1.171v-6.96h1.171v1.028q0.6978-0.5608 1.227-0.7913 0.5358-0.2368 1.09-0.2368 0.3053 0 0.4424 0.0187 0.1371 0.0125 0.4112 0.0561z"/>
  <path d="m75.73 145.4h-5.128q0 0.6418 0.1932 1.122 0.1932 0.4735 0.5296 0.7788 0.324 0.2991 0.7664 0.4486 0.4486 0.1495 0.9845 0.1495 0.7103 0 1.427-0.2804 0.7228-0.2866 1.028-0.5608h0.06231v1.277q-0.5919 0.2492-1.209 0.4175-0.6168 0.1682-1.296 0.1682-1.732 0-2.704-0.9346-0.972-0.9408-0.972-2.667 0-1.707 0.9284-2.71 0.9346-1.003 2.455-1.003 1.408 0 2.168 0.8225 0.7664 0.8225 0.7664 2.337zm-1.14-0.8972q-0.0062-0.9222-0.4673-1.427-0.4548-0.5047-1.389-0.5047-0.9408 0-1.502 0.5545-0.5545 0.5545-0.6293 1.377z"/>
  <path d="m83.33 148.8h-1.171v-3.963q0-0.4798-0.05608-0.8972-0.05608-0.4237-0.2056-0.6605-0.1558-0.2617-0.4486-0.3863-0.2928-0.1308-0.7602-0.1308-0.4798 0-1.003 0.2368t-1.003 0.6044v5.196h-1.171v-6.96h1.171v0.7726q0.5483-0.4548 1.134-0.7103t1.203-0.2555q1.128 0 1.72 0.6792 0.5919 0.6792 0.5919 1.956z"/>
  <path d="m89.2 148.7q-0.3302 0.0872-0.7228 0.1433-0.3863 0.0561-0.6916 0.0561-1.065 0-1.62-0.5732t-0.5545-1.838v-3.701h-0.7913v-0.9845h0.7913v-2h1.171v2h2.418v0.9845h-2.418v3.171q0 0.5483 0.02492 0.8598 0.02492 0.3053 0.1745 0.5732 0.1371 0.2492 0.3738 0.3676 0.243 0.1122 0.7352 0.1122 0.2866 0 0.5982-0.081 0.3115-0.0872 0.4486-0.1433h0.06231z"/>
 </g>
 <g transform="matrix(.6138 0 0 .6299 37.09 32.15)" stroke-linecap="round" stroke-linejoin="round">
  <path d="m19.36 0.8393h81.42c10.1 0 18.24 7.755 18.24 17.39v84.24c0 9.631-8.133 17.39-18.24 17.39h-81.42c-10.1 0-18.24-7.755-18.24-17.39v-84.24c0-9.631 8.133-17.39 18.24-17.39z" fill="#76b83f" stroke-width="1.333" style="paint-order:stroke fill markers"/>
  <g transform="matrix(1.032 -.2355 .2241 .8935 -.665 -.3144)" fill="#fff" stroke-linecap="round" stroke-linejoin="round" stroke-width="3.484" style="paint-order:fill markers stroke" aria-label="u">
   <path transform="matrix(1.598 .4213 -.408 1.879 -20 -25.16)" d="m55.95 13.19c-4.289 0.0012-9.129 2.207-7.566 6.434l10.77 29.57c-1.033 1.044-2.172 1.944-3.418 2.699-1.246 0.7551-2.431 1.302-3.555 1.645-1.685 0.5131-3.066 0.7458-4.141 0.6973-1.05-0.05611-1.94-0.3808-2.67-0.9766-0.7545-0.5882-1.406-1.418-1.955-2.488-0.5315-1.098-1.104-2.495-1.715-4.188l-6.004-16.64c-1.865-4.026-14.31-2.194-13.27 4.018l-0.0078 2e-3c1.941 5.38 4.588 13.05 7.295 20.65l3.02 8.332c1.499 4.06 2.945 7.85 4.213 10.88 2.93 4.57 15.09 1.385 13.43-3.137l-2.17-6.018c0.3331-0.1431 0.615-0.3162 0.834-0.5273 2.809-0.8556 5.089-1.981 6.836-3.375 1.737-1.413 3.555-3.249 5.451-5.506 4.882 3.439 11.94 2.782 15.97-2.201l0.01367 0.0078c1.432-1.119 4.13-7.011 1.977-8.027-2.635 1.87-5.275 3.294-7.17 0.668l-1.018-2.4c1.013-1.859 1.65-3.221 2.459-4.244l-1.592-2.07c-0.6495 0.9076-1.46 2.171-2.016 2.359l-8.387-23.74c-0.6753-1.625-3.05-2.419-5.623-2.418zm-33.53 20.77c-4.19e-4 -0.0012-0.0015-0.0027-2e-3 -0.0039v0.0039z"/>
   <path transform="matrix(1.598 .4213 -.408 1.879 -20 -25.16)" d="m76 30-2.994 4.754c-0.316 0.5154-0.4281 0.5093-0.5427 0.409-0.5127-0.4406-1.85-1.755-1.92-1.768-0.3388-0.06173-0.5332 0.1128-0.4219 0.6172 0.6181 0.9769 1.212 1.893 1.818 2.781-0.6208 0.8743-1.273 1.729-1.979 2.555-15.2 18.23-27.86 15.87-52.71 17.38 23.72 13.57 37.27 12.87 53.86-13.42 0.7937-1.43 1.631-2.833 2.48-4.229 0.6153 0.7987 1.268 1.593 1.998 2.404 0.3541 0.4243 0.9956-0.1453 0.6855-0.7598l-1.504-2.982c-0.0084-0.356 0.1336-0.5777 0.2305-0.7363l3.625-5.934c0.37-1.643-2.077-2.252-2.625-1.066z" fill="#fff"/>
  </g>
 </g>
</svg>
