<svg version="1.1" viewBox="0 0 304.3 89.04" xmlns="http://www.w3.org/2000/svg">
 <g fill="#76b83f">
  <g id="Group" transform="matrix(1.718 0 0 1.728 18.64 3.506)" fill-rule="evenodd">
   <path d="m142.4 12.81v2.531h-2.812v6.766c0 0.6292 0.1245 1.052 0.3352 1.265 0.2152 0.2122 0.6465 0.3158 1.28 0.3158 0.213 0 0.4402-0.01125 0.6315-0.0285 1.739-0.9932 9.207-3.879 8.24 2.976l-9.879-0.0182c-0.5782 0-1.136-0.04125-1.652-0.1215-0.5198-0.078-0.9788-0.234-1.376-0.4598-0.3938-0.2295-0.6855-0.5558-0.9135-0.9765-0.2272-0.4208-0.3225-0.9765-0.3225-1.66v-8.058h-2.344v-2.531h2.344l-0.0143-4.116h3.656l0.0143 4.116z"/>
   <path transform="translate(-13.04,-9.971)" d="m88.29 19.18v1.628l-7.568 0.2816v15.38h-4.22v-15.38l-7.719-0.3228 0.02444-1.667 9.756-1.2z"/>
   <path d="m70.22 16.72c0.3352-0.8895 0.8062-1.643 1.424-2.266 0.6172-0.6262 1.356-1.11 2.216-1.454 0.861-0.3412 1.828-0.5138 2.902-0.5138 1.07 0 2.042 0.1725 2.912 0.5138 0.87 0.3435 1.611 0.8272 2.23 1.454 0.6142 0.6232 1.089 1.377 1.424 2.266 0.3338 0.888 0.5002 1.876 0.5002 2.965 0 1.094-0.1665 2.074-0.5002 2.954-0.3345 0.8782-0.8092 1.63-1.424 2.255-0.6188 0.624-1.36 1.102-2.23 1.435-0.87 0.3338-1.843 0.5025-2.912 0.5025-1.073 0-2.041-0.1688-2.902-0.5025-0.8595-0.3322-1.598-0.8108-2.216-1.435-0.6172-0.6248-1.088-1.377-1.424-2.255-0.3315-0.8798-0.501-1.859-0.501-2.954 0-1.088 0.1695-2.077 0.501-2.965m3.403 4.559c0.1058 0.5212 0.2858 0.987 0.5408 1.399 0.252 0.4148 0.5918 0.744 1.016 0.987 0.4215 0.2475 0.948 0.3682 1.581 0.3682 0.6315 0 1.164-0.1208 1.594-0.3682 0.432-0.243 0.774-0.5722 1.028-0.987 0.2558-0.4118 0.4365-0.8775 0.5415-1.399 0.1058-0.5168 0.159-1.046 0.159-1.594 0-0.5438-0.05325-1.082-0.159-1.607-0.105-0.5265-0.2858-0.9915-0.5415-1.397-0.2542-0.405-0.5962-0.7342-1.028-0.9885-0.4298-0.258-0.9622-0.381-1.594-0.381-0.633 0-1.16 0.123-1.581 0.381-0.4245 0.2542-0.7642 0.5835-1.016 0.9885-0.255 0.4058-0.435 0.8708-0.5408 1.397-0.1058 0.5258-0.159 1.064-0.159 1.607 0 0.5482 0.05325 1.078 0.159 1.594"/>
   <path d="m108.7 23.22c0.564 0.5475 1.37 0.8115 2.426 0.8115 0.7552 0 1.405-0.1838 1.952-0.5595 0.5445-0.3765 0.8798-0.8182 1.003-1.193h3.294c-0.5242 1.594-1.337 2.794-2.423 3.503-1.093 0.699-2.41 1.047-3.956 1.047-1.073 0-2.04-0.1748-2.903-0.516-0.861-0.3428-1.59-0.8325-2.186-1.464-0.5977-0.6338-1.06-1.388-1.385-2.266-0.3262-0.879-0.489-1.848-0.489-2.904 0-1.019 0.1672-1.964 0.5025-2.847 0.3322-0.879 0.8078-1.641 1.423-2.281 0.618-0.6428 1.351-1.147 2.201-1.517 0.8528-0.3682 1.799-0.5528 2.836-0.5528 1.16 0 2.168 0.2235 3.032 0.672 0.861 0.4492 1.572 1.052 2.122 1.808 0.5535 0.7568 0.9548 1.625 1.198 2.592 0.2498 0.966 0.3368 2.008 0.267 3.039h-9.837c0.0517 1.219 0.3638 2.083 0.9232 2.629m4.235-7.157c-0.4523-0.492-1.134-0.747-2.046-0.747-0.5992 0-1.094 0.09225-1.488 0.2955-0.3975 0.204-0.7162 0.4492-0.9502 0.7478-0.2392 0.3008-0.4043 0.6398-0.5025 0.9712-0.0953 0.3352-0.153 0.636-0.171 0.9172h6.092c-0.1762-1.031-0.4882-1.69-0.9337-2.185"/>
   <path d="m122.9 12.81v1.969h0.126c0.4732-0.8438 1.09-1.383 1.844-1.743 0.756-0.3592 1.529-0.5475 2.324-0.5475 0.9998 0 1.819 0.132 2.461 0.4042 0.6412 0.2722 1.147 0.651 1.517 1.133 0.3668 0.4822 0.6322 1.071 0.78 1.764 0.1522 0.696 0.2295 1.462 0.2295 2.308v8.399h-3.75v-7.715c0-1.123-0.1755-1.962-0.5272-2.517-0.354-0.555-0.9758-0.8325-1.874-0.8325-1.021 0-1.778 0.3045-2.236 0.912-0.4568 0.6045-0.7072 1.604-0.7072 2.994v7.159h-3.656v-13.69z"/>
   <path d="m93.8 12.8-0.0893-0.0038-5.613 0.5941-2.497-0.5734v13.69h3.75v-6.16c0-0.6128 0.0615-1.182 0.186-1.713 0.1245-0.5265 0.33-0.9892 0.621-1.384 0.2918-0.396 0.6742-0.7065 1.146-0.9352 0.4755-0.2295 1.054-0.3442 1.741-0.3442 0.1995 0 0.5695 0.3206 0.7571 0.3408z"/>
   <path d="m103.1 12.8-0.0893-0.0038-5.687 0.6902-2.423-0.6695v13.69h3.75v-6.16c0-0.6128 0.0615-1.182 0.186-1.713 0.1245-0.5265 0.33-0.9892 0.621-1.384 0.2918-0.396 0.6742-0.7065 1.146-0.9352 0.4755-0.2295 1.054-0.3442 1.741-0.3442 0.1995 0 0.5695 0.3206 0.7571 0.3408z"/>
   <path d="m55.96 26.59v-1.969h-0.075c-0.2475 0.375-0.5242 0.7388-0.8362 1.019-0.3112 0.2835-0.6255 0.525-0.9465 0.7118-0.318 0.1875-0.6262 0.3262-0.9165 0.4148-0.2948 0.08775-0.5475 0.1342-0.7582 0.1342-0.5325 0-0.96-0.057-1.278-0.1725-0.318-0.1185-0.5332-0.2632-0.7208-0.4395l-0.03406 2.197c0.07104 1.964-4.538 2.246-4.728 0l1.012-15.68h3.75v7.757c0 1.136 0.1778 1.986 0.5318 2.546 0.357 0.5558 0.9862 0.837 1.892 0.837 1.028 0 1.773-0.3082 2.231-0.9195 0.4612-0.612 0.6892-1.62 0.6892-3.02v-7.2h3.75v13.78z"/>
  </g>
  <g stroke-linecap="round" stroke-linejoin="round">
   <path d="m26.55 10.66h46.68c5.792 0 10.46 4.369 10.46 9.795v47.46c0 5.426-4.663 9.795-10.46 9.795h-46.68c-5.792 0-10.46-4.369-10.46-9.795v-47.46c0-5.426 4.663-9.795 10.46-9.795z" stroke-width=".7575" style="paint-order:stroke fill markers"/>
   <path d="m83.25 43.67a33.37 32.9 0 0 1-33.37 32.9 33.37 32.9 0 0 1-33.37-32.9 33.37 32.9 0 0 1 33.37-32.9 33.37 32.9 0 0 1 33.37 32.9z" stroke-width="8.193" style="paint-order:stroke fill markers"/>
  </g>
 </g>
 <g transform="matrix(.5918 -.1327 .1285 .5034 15.07 10.01)" fill="#fff" stroke-linecap="round" stroke-linejoin="round" stroke-width="3.484" style="paint-order:fill markers stroke" aria-label="u">
  <path transform="matrix(1.598 .4213 -.408 1.879 -20 -25.16)" d="m55.95 13.19c-4.289 0.0012-9.129 2.207-7.566 6.434l10.77 29.57c-1.033 1.044-2.172 1.944-3.418 2.699-1.246 0.7551-2.431 1.302-3.555 1.645-1.685 0.5131-3.066 0.7458-4.141 0.6973-1.05-0.05611-1.94-0.3808-2.67-0.9766-0.7545-0.5882-1.406-1.418-1.955-2.488-0.5315-1.098-1.104-2.495-1.715-4.188l-6.004-16.64c-1.865-4.026-14.31-2.194-13.27 4.018l-0.0078 2e-3c1.941 5.38 4.588 13.05 7.295 20.65l3.02 8.332c1.499 4.06 2.945 7.85 4.213 10.88 2.93 4.57 15.09 1.385 13.43-3.137l-2.17-6.018c0.3331-0.1431 0.615-0.3162 0.834-0.5273 2.809-0.8556 5.089-1.981 6.836-3.375 1.737-1.413 3.555-3.249 5.451-5.506 4.882 3.439 11.94 2.782 15.97-2.201l0.01367 0.0078c1.432-1.119 4.13-7.011 1.977-8.027-2.635 1.87-5.275 3.294-7.17 0.668l-1.018-2.4c1.013-1.859 1.65-3.221 2.459-4.244l-1.592-2.07c-0.6495 0.9076-1.46 2.171-2.016 2.359l-8.387-23.74c-0.6753-1.625-3.05-2.419-5.623-2.418zm-33.53 20.77c-4.19e-4 -0.0012-0.0015-0.0027-2e-3 -0.0039v0.0039z"/>
  <path transform="matrix(1.598 .4213 -.408 1.879 -20 -25.16)" d="m76 30-2.994 4.754c-0.316 0.5154-0.4281 0.5093-0.5427 0.409-0.5127-0.4406-1.85-1.755-1.92-1.768-0.3388-0.06173-0.5332 0.1128-0.4219 0.6172 0.6181 0.9769 1.212 1.893 1.818 2.781-0.6208 0.8743-1.273 1.729-1.979 2.555-15.2 18.23-27.86 15.87-52.71 17.38 23.72 13.57 37.27 12.87 53.86-13.42 0.7937-1.43 1.631-2.833 2.48-4.229 0.6153 0.7987 1.268 1.593 1.998 2.404 0.3541 0.4243 0.9956-0.1453 0.6855-0.7598l-1.504-2.982c-0.008362-0.356 0.1336-0.5777 0.2305-0.7363l3.625-5.934c0.37-1.643-2.077-2.252-2.625-1.066z" fill="#fff"/>
 </g>
</svg>
