<svg version="1.1" viewBox="0 0 182.4 53.66" xmlns="http://www.w3.org/2000/svg">
 <g fill="#fff">
  <path d="m71.15 35.54h41.42v-25.98h-41.42zm13.83-24.55c0.2331 0.2819 0.2331 0.7399-0.0037 1.022l-10.29 12.44c-0.2331 0.2819-0.612 0.2863-0.8452 0.0043-0.2331-0.2819-0.2331-0.7399 0.0037-1.022l10.29-12.44c0.2331-0.2819 0.612-0.2863 0.8452-0.0043zm-11.64 7.483 6.692-8.091c0.153-0.185 0.4663-0.1057 0.6958 0.1762 0.2331 0.2819 0.2987 0.6606 0.1457 0.8412l-6.692 8.091c-0.153 0.185-0.4663 0.1057-0.6994-0.1762-0.2295-0.2775-0.2914-0.6562-0.1421-0.8412zm-5.716 29.87h50.35c1.37 0 2.481-1.506 2.481-4.14h-55.31c0 2.634 1.111 4.14 2.481 4.14zm19.71-3.387h10.75c0.3024 0 0.5501 0.5725 0.5501 0.9425 0 0.3655-0.2477 0.9425-0.5501 0.9425h-10.75c-0.3024 0-0.5501-0.5725-0.5501-0.9425s0.2477-0.9425 0.5501-0.9425zm29.87-2.638c0.0364-0.7531 0.0399-1.691 0.0399-1.986v-30.86c0-3.079-2.051-5.188-4.597-5.188h-39.88c-2.546 0-5.355 2.11-5.355 5.188v30.86c0 0.2907 0.765 1.233 0.7978 1.986zm-47.61-33.89h44.23v29.37h-44.23z" stroke-width=".4006"/>
  <path d="m137.1 34.56-0.0137 8.725 26.68 0.0059v-1.543l-25.14-0.0059 0.0117-7.18z" color="#000000" style="-inkscape-stroke:none"/>
  <path d="m114 28.92v1.543l25.91 0.0039v-1.541z" color="#000000" style="-inkscape-stroke:none"/>
  <path d="m163.8 16.87-26.68 0.0059 0.0137 8.725 1.543-2e-3 -0.0117-7.18 25.14-0.0059z" color="#000000" style="-inkscape-stroke:none"/>
  <g stroke-width="2.101">
   <path d="m154 4.198h15.64c0.8529 0 1.54 0.6867 1.54 1.54v1.969c0 0.8529-0.6867 1.54-1.54 1.54h-15.64c-0.8529 0-1.54-0.6867-1.54-1.54v-1.969c0-0.8529 0.6867-1.54 1.54-1.54z"/>
   <path d="m154 9.618h15.64c0.8529 0 1.54 0.6867 1.54 1.54v1.969c0 0.8529-0.6867 1.54-1.54 1.54h-15.64c-0.8529 0-1.54-0.6867-1.54-1.54v-1.969c0-0.8529 0.6867-1.54 1.54-1.54z"/>
   <path d="m154 15.04h15.64c0.8529 0 1.54 0.6867 1.54 1.54v1.969c0 0.8529-0.6867 1.54-1.54 1.54h-15.64c-0.8529 0-1.54-0.6867-1.54-1.54v-1.969c0-0.8529 0.6867-1.54 1.54-1.54z"/>
  </g>
  <g stroke-width="1.508">
   <path d="m132.4 23.95h11.12c0.6163 0 1.112 0.4961 1.112 1.112v1.423c0 0.6163-0.4961 1.112-1.112 1.112h-11.12c-0.6163 0-1.112-0.4961-1.112-1.112v-1.423c0-0.6163 0.4961-1.112 1.112-1.112z"/>
   <path d="m132.4 27.87h11.12c0.6163 0 1.112 0.4961 1.112 1.112v1.423c0 0.6163-0.4961 1.112-1.112 1.112h-11.12c-0.6163 0-1.112-0.4961-1.112-1.112v-1.423c0-0.6163 0.4961-1.112 1.112-1.112z"/>
   <path d="m132.4 31.78h11.12c0.6163 0 1.112 0.4961 1.112 1.112v1.423c0 0.6163-0.4961 1.112-1.112 1.112h-11.12c-0.6163 0-1.112-0.4961-1.112-1.112v-1.423c0-0.6163 0.4961-1.112 1.112-1.112z"/>
  </g>
  <g stroke-width="2.101">
   <path d="m164 34.5h15.64c0.8529 0 1.54 0.6867 1.54 1.54v1.969c0 0.8529-0.6867 1.54-1.54 1.54h-15.64c-0.8529 0-1.54-0.6867-1.54-1.54v-1.969c0-0.8529 0.6867-1.54 1.54-1.54z"/>
   <path d="m164 39.92h15.64c0.8529 0 1.54 0.6867 1.54 1.54v1.969c0 0.8529-0.6867 1.54-1.54 1.54h-15.64c-0.8529 0-1.54-0.6867-1.54-1.54v-1.969c0-0.8529 0.6867-1.54 1.54-1.54z"/>
   <path d="m164 45.34h15.64c0.8529 0 1.54 0.6867 1.54 1.54v1.969c0 0.8529-0.6867 1.54-1.54 1.54h-15.64c-0.8529 0-1.54-0.6867-1.54-1.54v-1.969c0-0.8529 0.6867-1.54 1.54-1.54z"/>
  </g>
  <path d="m45.99 34.56 0.0137 8.725-26.68 0.0059v-1.543l25.14-0.0059-0.0117-7.18z" color="#000000" style="-inkscape-stroke:none"/>
  <path d="m69.17 28.92v1.543l-25.91 0.0039v-1.541z" color="#000000" style="-inkscape-stroke:none"/>
  <path d="m19.32 16.87 26.68 0.0059-0.0137 8.725-1.543-2e-3 0.0117-7.18-25.14-0.0059z" color="#000000" style="-inkscape-stroke:none"/>
  <g stroke-width="2.101">
   <path transform="scale(-1,1)" d="m-29.17 4.198h15.64c0.8529 0 1.54 0.6867 1.54 1.54v1.969c0 0.8529-0.6867 1.54-1.54 1.54h-15.64c-0.8529 0-1.54-0.6867-1.54-1.54v-1.969c0-0.8529 0.6867-1.54 1.54-1.54z"/>
   <path transform="scale(-1,1)" d="m-29.17 9.618h15.64c0.8529 0 1.54 0.6867 1.54 1.54v1.969c0 0.8529-0.6867 1.54-1.54 1.54h-15.64c-0.8529 0-1.54-0.6867-1.54-1.54v-1.969c0-0.8529 0.6867-1.54 1.54-1.54z"/>
   <path transform="scale(-1,1)" d="m-29.17 15.04h15.64c0.8529 0 1.54 0.6867 1.54 1.54v1.969c0 0.8529-0.6867 1.54-1.54 1.54h-15.64c-0.8529 0-1.54-0.6867-1.54-1.54v-1.969c0-0.8529 0.6867-1.54 1.54-1.54z"/>
  </g>
 </g>
 <path d="m28.7 5.362h-4.386v2.868h4.386z" fill="#76b83f" stroke-width="3.789"/>
 <g fill="#fff" stroke-width="1.508">
  <path transform="scale(-1,1)" d="m-50.71 23.95h11.12c0.6163 0 1.112 0.4961 1.112 1.112v1.423c0 0.6163-0.4961 1.112-1.112 1.112h-11.12c-0.6163 0-1.112-0.4961-1.112-1.112v-1.423c0-0.6163 0.4961-1.112 1.112-1.112z"/>
  <path transform="scale(-1,1)" d="m-50.71 27.87h11.12c0.6163 0 1.112 0.4961 1.112 1.112v1.423c0 0.6163-0.4961 1.112-1.112 1.112h-11.12c-0.6163 0-1.112-0.4961-1.112-1.112v-1.423c0-0.6163 0.4961-1.112 1.112-1.112z"/>
  <path transform="scale(-1,1)" d="m-50.71 31.78h11.12c0.6163 0 1.112 0.4961 1.112 1.112v1.423c0 0.6163-0.4961 1.112-1.112 1.112h-11.12c-0.6163 0-1.112-0.4961-1.112-1.112v-1.423c0-0.6163 0.4961-1.112 1.112-1.112z"/>
 </g>
 <path d="m50.48 24.8h-3.01v2.053h3.01z" fill="#76b83f" stroke-width="2.656"/>
 <g fill="#fff" stroke-width="2.101">
  <path transform="scale(-1,1)" d="m-19.14 34.5h15.64c0.8529 0 1.54 0.6867 1.54 1.54v1.969c0 0.8529-0.6867 1.54-1.54 1.54h-15.64c-0.8529 0-1.54-0.6867-1.54-1.54v-1.969c0-0.8529 0.6867-1.54 1.54-1.54z"/>
  <path transform="scale(-1,1)" d="m-19.14 39.92h15.64c0.8529 0 1.54 0.6867 1.54 1.54v1.969c0 0.8529-0.6867 1.54-1.54 1.54h-15.64c-0.8529 0-1.54-0.6867-1.54-1.54v-1.969c0-0.8529 0.6867-1.54 1.54-1.54z"/>
  <path transform="scale(-1,1)" d="m-19.14 45.34h15.64c0.8529 0 1.54 0.6867 1.54 1.54v1.969c0 0.8529-0.6867 1.54-1.54 1.54h-15.64c-0.8529 0-1.54-0.6867-1.54-1.54v-1.969c0-0.8529 0.6867-1.54 1.54-1.54z"/>
 </g>
 <g fill="#76b83f">
  <path d="m18.71 35.74h-3.885v2.615h3.885z" stroke-width="3.406"/>
  <path d="m154.6 5.362h4.386v2.868h-4.386z" stroke-width="3.789"/>
  <path d="m132.8 24.8h3.01v2.053h-3.01z" stroke-width="2.656"/>
  <path d="m164.6 35.74h3.885v2.615h-3.885z" stroke-width="3.406"/>
 </g>
</svg>
