<svg width="120" height="120" version="1.1" viewBox="0 0 120 120" xmlns="http://www.w3.org/2000/svg">
 <g stroke-linecap="round" stroke-linejoin="round">
  <path d="m19.36 0.8393h81.42c10.1 0 18.24 7.755 18.24 17.39v84.24c0 9.631-8.133 17.39-18.24 17.39h-81.42c-10.1 0-18.24-7.755-18.24-17.39v-84.24c0-9.631 8.133-17.39 18.24-17.39z" fill="#76b83f" stroke-width="1.333" style="paint-order:stroke fill markers"/>
  <g fill="#fff">
   <path d="m108.4 27.24-37.41-0.1826-0.06757 45.93c-0.06679 8.292-22.79 8.176-22.7 0l0.06757-45.93-35.09 0.1944 13.92-16.64 66.35 0.04212z" stroke-width="3.14"/>
   <g transform="matrix(1.012 .1009 -.06399 .7668 296.9 -18.72)" stroke-linecap="round" stroke-linejoin="round" stroke-width="3.484" style="paint-order:fill markers stroke" aria-label="u">
    <path d="m-209.9 107.1 3.419 52.68c-8.324 8.531-26.87 9.581-35.66 6.905-2.163-17.82-2.446-35.07-3.669-52.61-2.569-14.75-20.39-10.72-19.51 2.977l-0.0133 4.8e-4c0.9067 10.93 2.007 26.45 3.232 41.87l1.176 17.33c0.7389 8.26 1.503 15.99 2.293 22.22 2.818 9.821 26.26 8.239 25.45-0.9574l-1.012-12.22c0.5907-0.1286 1.112-0.335 1.548-0.6394 4.838-0.4242 8.94-1.578 12.3-3.462 3.352-1.923 7.006-4.607 10.96-8.049 6.398 8.519 17.95 10.26 26.42 2.592l0.0187 0.0204c2.745-1.499 9.46-11.43 6.434-14.25-4.974 2.404-7.586 3.679-9.543-2.053-0.6328-2.392-0.6332-5.02-0.5715-7.589 2.377-3.066 1.687-2.419 3.398-4l-1.699-4.56c-1.408 1.432-1.031 3.176-1.997 3.295l-3.717-48.14c-5.707-11.67-20.15-4.451-19.26 8.643zm-55.42 9.949c-1.8e-4 -2e-3 -1e-3 -6e-3 -2e-3 -8e-3l-2e-3 7e-3z" fill="#fff" stroke-width="6.208"/>
   </g>
   <path d="m113.2 62.74-7.294 5.204c-0.7771 0.5684-0.9521 0.5056-1.081 0.3097-0.5802-0.865-2.006-3.352-2.11-3.405-0.5058-0.2505-0.9078-0.1003-0.9998 0.6596 0.462 1.667 0.9178 3.237 1.408 4.773-1.453 0.9231-2.945 1.804-4.508 2.618-33.36 20.24-55.07 11.72-95.57 1.035 30.48 30.48 54.9 33.83 95.29 5.065 2.024-1.617 4.103-3.175 6.197-4.718 0.5525 1.416 1.167 2.844 1.895 4.332 0.3368 0.7654 1.66 0.2788 1.495-0.7315l-0.8016-4.902c0.1764-0.5024 0.5204-0.7439 0.7589-0.919l8.926-6.55c1.464-2.121-2.102-4.158-3.605-2.763z" stroke-width="5.49" style="paint-order:fill markers stroke"/>
  </g>
 </g>
</svg>
